<svg id="Component_105_1" data-name="Component 105 – 1" xmlns="http://www.w3.org/2000/svg" xmlns:xlink="http://www.w3.org/1999/xlink" width="113.803" height="70" viewBox="0 0 113.803 70">
  <defs>
    <clipPath id="clip-path">
      <rect id="Rectangle_8153" data-name="Rectangle 8153" width="113.803" height="70" transform="translate(0 0)" fill="none"/>
    </clipPath>
  </defs>
  <g id="Group_7152" data-name="Group 7152" clip-path="url(#clip-path)">
    <path id="Path_29527" data-name="Path 29527" d="M36.723,43.414a17.41,17.41,0,0,1,1.368-2.49c.458-.841.944-1.587,1.438-2.415C44.607,30,48.9,23.362,54.292,15.089c1.2-1.839,5.464-7.118,7.006-8.264-.011.975-1.523,7.388-1.868,8.908-.961,4.237-5.035,21.728-6.382,25.552Zm40.068-3.357c-.034,2.94-.748,4.934,1.589,6.832,2.806,2.278,5.385-1.217,5.913-1.6.729-.529,2.849-2,3.787-2.134.568.539.489.687,1.274,1.185,5.448,3.461,6.836,2.835,13.775,1.7,3-.491,5.808-.683,8.866-1.031,2.555-.29,1.85-2.151,1.186-2.53-.868-.495-3.072.34-3.99.6-4.93,1.41-2.983,1.1-8.367,1.587-1.667.152-6.568-1.387-7.611-2.234-.9-.735-2.044-5.177-5.466-4.208-2.9.82-4.232,3.4-5.835,4.091-.842-2.072-.011-5.256-1.421-6.717-1.9-1.968-3.677.3-5.016,1.619-1.659,1.631-2.935,3.338-3.936,4.337-.628.627-.718.932-1.949,2.113l-2.3,1.954a33.25,33.25,0,0,1,3.218-6,19.823,19.823,0,0,1,2.21-2.3,2.021,2.021,0,0,0-.968-3.089c-1.639-.519-2.242.659-2.809,1.563a18.647,18.647,0,0,0-1.282,2.3c-3.539,1.171-11.1,2.824-11.938,2.722.342-1.827.447-3.869.817-5.678,1.4-6.843,5.792-24.894,8.339-30.668a5.046,5.046,0,0,0,.789-2.468A2.086,2.086,0,0,0,64.292.092c-1.947-.553-2.956,1.614-3.756,2.791a38.4,38.4,0,0,0-2.589,3.822L42.879,30.624c-1.656,2.662-3.273,5.452-4.907,8.086-3.1,5-2.112,4.832-4.606,5.208-8.077,1.214-17.24,2.566-25.178,4a30.4,30.4,0,0,1-5.952.572C1.12,48.481.129,48.5.013,49.534-.12,50.7.831,50.963,1.89,50.771c.292-.053,2.919-.442,2.929-.449.651-.362.047-.41.8-.774,1.476-.712,16.036-3,17.8-3.254,1.956-.282,9.885-1.779,11.049-1.75l-4.552,7.934c-1.571,2.715-2.99,5.326-4.562,7.941-1.6,2.659-3.091,5.485-4.7,7.828-.263.384-.5.575-.364,1.08a.927.927,0,0,0,.881.677c.772-.012,1.069-1.1,1.349-1.664,2.675-5.4,8.114-14.4,11.147-19.809,2.979-5.309,1.533-4.236,7.509-5.016a78.955,78.955,0,0,1,11.4-.879l-1.5,6.272c-1.69,7.215,3.155,5.988,3.956,4.29.545-1.155-.013-2.295-.076-3.524-.066-1.3.272-6.26.738-7.137l11.112-1.5-2.453,4.01a12.628,12.628,0,0,0-.893,1.364c-.261.576-.46,1.033-.711,1.539-.53,1.068-1.517,2.078-.5,3.5a2,2,0,0,0,3.119.178l6.246-7.6Z" transform="translate(0 -0.004)" fill-rule="evenodd"/>
  </g>
</svg>
