<svg id="Component_35_1" data-name="Component 35 – 1" xmlns="http://www.w3.org/2000/svg" width="85" height="15.004" viewBox="0 0 85 15.004">
  <path id="Path_28438" data-name="Path 28438" d="M7.5,0,5.734,5.735,0,5.729,4.642,9.268,2.865,15,7.5,11.452,12.136,15,10.359,9.268,15,5.729l-5.733.005Z" transform="translate(0 0)" fill="#353535"/>
  <path id="Path_28439" data-name="Path 28439" d="M7.5,0,5.734,5.735,0,5.729,4.642,9.268,2.865,15,7.5,11.452,12.136,15,10.359,9.268,15,5.729l-5.733.005Z" transform="translate(18 0.004)" fill="#353535"/>
  <path id="Path_28440" data-name="Path 28440" d="M7.5,0,5.734,5.735,0,5.729,4.642,9.268,2.865,15,7.5,11.452,12.136,15,10.359,9.268,15,5.729l-5.733.005Z" transform="translate(35 0.004)" fill="#353535"/>
  <path id="Path_28441" data-name="Path 28441" d="M7.5,0,5.734,5.735,0,5.729,4.642,9.268,2.865,15,7.5,11.452,12.136,15,10.359,9.268,15,5.729l-5.733.005Z" transform="translate(53 0.004)" fill="#353535"/>
  <path id="Path_28442" data-name="Path 28442" d="M7.5,0,5.734,5.735,0,5.729,4.642,9.268,2.865,15,7.5,11.452,12.136,15,10.359,9.268,15,5.729l-5.733.005Z" transform="translate(70 0.004)" fill="#353535"/>
</svg>
