<svg id="Component_5_1" data-name="Component 5 – 1" xmlns="http://www.w3.org/2000/svg" xmlns:xlink="http://www.w3.org/1999/xlink" width="194" height="75.384" viewBox="0 0 194 75.384">
  <defs>
    <clipPath id="clip-path">
      <rect id="Rectangle_8022" data-name="Rectangle 8022" width="194" height="75.384" fill="#845252"/>
    </clipPath>
  </defs>
  <g id="Group_7085" data-name="Group 7085" clip-path="url(#clip-path)">
    <path id="Path_28417" data-name="Path 28417" d="M23.518,25.512a3.377,3.377,0,0,1-.342.683v.043h-.128v.085a3.56,3.56,0,0,0-.555.768,3.17,3.17,0,0,1-.3.512h.043c-.043.086-.128.128-.128.213a2.08,2.08,0,0,1-.469.768c-.085.043-.128.171-.171.3v.128a.759.759,0,0,0-.341.469,4.936,4.936,0,0,1-.6,1.024c0,.043.043.043.043.086H20.53a.688.688,0,0,1-.171.3,8.011,8.011,0,0,0-.9,1.537c-.043,0-.043.042-.043.085a1.332,1.332,0,0,0-.256.555,1.159,1.159,0,0,0-.341.726l-.128.128a.327.327,0,0,0-.085.213c0,.043,0,.086.043.086H18.61a.949.949,0,0,1-.171.213,3.474,3.474,0,0,0-.512.854,7,7,0,0,0-.6,1.28,5.916,5.916,0,0,0-.854,1.622h.043c-.043.085-.085.128-.085.213-.043.085-.085.128-.085.213a.492.492,0,0,0-.213.3,1.316,1.316,0,0,0-.256.555c-.086.043-.086.128-.086.213a1.715,1.715,0,0,0-.384.726,4.452,4.452,0,0,0-.469,1.024c0,.043-.042.085-.042.171a.893.893,0,0,0-.3.555v-.043a.612.612,0,0,1-.085.256v-.043a.717.717,0,0,0-.086.213,5.269,5.269,0,0,0-.64,1.408c-.043.043-.043.128-.085.213a.855.855,0,0,0-.171.342,12.025,12.025,0,0,0-.726,1.707,2.976,2.976,0,0,0-.341.854.717.717,0,0,1-.086.213,4.578,4.578,0,0,0-.171.427,16.546,16.546,0,0,0-.939,2.561l-.086.213c-.042.085-.042.213-.085.3a1.933,1.933,0,0,0-.341.939,1.82,1.82,0,0,0-.256.769c-.042.085-.085.128-.085.213a2.105,2.105,0,0,0-.256.726,1.21,1.21,0,0,0-.171.555.8.8,0,0,0-.085.341,1.208,1.208,0,0,0-.171.555v-.043a.324.324,0,0,1-.085.213.907.907,0,0,0-.171.427c-.213.64-.427,1.323-.6,1.963a2.169,2.169,0,0,0-.128.726,5.773,5.773,0,0,0-.469,1.92,1.451,1.451,0,0,0-.128.854H8.11c.256.171.256.171.384.085a2.775,2.775,0,0,0,.384-.341c.725-.854,1.451-1.665,2.219-2.518L13.1,55.987c.726-.811,1.494-1.622,2.219-2.39.769-.725,1.452-1.536,2.219-2.22l.128-.128c.256-.256.342-.256.683,0,.256.171.256.3.043.512-.256.256-.512.512-.768.811a1.029,1.029,0,0,1-.342.256.133.133,0,0,1-.042-.085c-.043,0-.043.042-.086.085s-.085.085-.085.128c-.043,0-.086.043-.128.086a.092.092,0,0,1-.086.085.891.891,0,0,1-.256.171c-.64.726-1.28,1.451-1.963,2.134a.633.633,0,0,0-.128.3,15.674,15.674,0,0,0-.171.171l.085-.086c.043-.042.043-.085.086-.085a1.834,1.834,0,0,0,.427-.384,1.647,1.647,0,0,1,.469-.469.866.866,0,0,1-.256.384L12.89,57.908c-.469.555-.9,1.152-1.366,1.665a23.783,23.783,0,0,1-2.219,2.433,3.043,3.043,0,0,1-.6.427,1.162,1.162,0,0,1-1.323-.085.74.74,0,0,0-.213-.171,1.23,1.23,0,0,1-.555-.982,5.216,5.216,0,0,1,.043-1.152A37.329,37.329,0,0,1,7.726,55.6c.128-.512.3-1.025.427-1.579.042-.086.042-.213.085-.342,0-.085,0-.171-.085-.171-.213-.085-.213-.213-.256-.384a2.806,2.806,0,0,0-.043-.6c0-.128-.128-.171-.256-.128l-.085.086V52.4c-.042.043-.085.086-.128.086a1.277,1.277,0,0,1-.171.341c-.043.043-.043.085-.085.085-.043.042-.085.085-.085.128h.085l-.085.085v.043A12.349,12.349,0,0,1,3.33,56.585a3.163,3.163,0,0,1-1.11.427,1.073,1.073,0,0,1-.811-.042,2.142,2.142,0,0,1-1.28-1.153.951.951,0,0,1-.128-.6,3.2,3.2,0,0,1,.214-1.11,11.406,11.406,0,0,1,.512-1.025A7.8,7.8,0,0,1,2.6,51.036a3.95,3.95,0,0,1,2.732-.854,3.327,3.327,0,0,1,.9.171c.342.085.384.085.6-.171.3-.555.64-1.067.939-1.579.811-1.366,1.622-2.732,2.39-4.1.64-1.067,1.2-2.177,1.793-3.287l.939-1.665c.128-.256.3-.555.469-.854a8.43,8.43,0,0,1,.47-.854c.64-1.11,1.28-2.262,1.878-3.414l1.835-3.073c.512-.939,1.067-1.836,1.665-2.732l2.561-3.8a2.938,2.938,0,0,1,.469-.555.382.382,0,0,1,.6-.042,4.314,4.314,0,0,1,.683.811c.085.171.128.342,0,.469M4.951,52.829c.256-.384.555-.768.854-1.152a2.017,2.017,0,0,0,.3-.512.156.156,0,0,0-.085-.213H5.8a2.94,2.94,0,0,0-1.238.3,7.1,7.1,0,0,0-1.2.768.9.9,0,0,1-.469.3c.085-.256.3-.341.384-.512.128-.086.256-.128.3-.256a.381.381,0,0,0-.342.213,2.953,2.953,0,0,0-1.238,1.366.469.469,0,0,0-.256.427.623.623,0,0,0,.256-.384.971.971,0,0,0,.341-.385c.171-.128.256-.3.47-.384a.651.651,0,0,1-.256.427,5.57,5.57,0,0,0-.9,1.323A4.026,4.026,0,0,0,1.323,55.6c0,.213.128.3.3.213a3.076,3.076,0,0,0,.9-.512,14.867,14.867,0,0,0,2.433-2.476m-3.414-.213h.085V52.53c-.042,0-.042.042-.085.085m0,1.238a.235.235,0,0,0,.171-.256c-.085.043-.128.171-.171.256m.085-1.366H1.75a.15.15,0,0,1-.043-.086.092.092,0,0,1-.085.086M1.75,52.4h.085v.086a.092.092,0,0,0,.085-.086H1.836v-.085a.092.092,0,0,0-.085.085m0,.128v.085c.042-.043.042-.085.085-.085Zm.085-.256h.085v-.086h.085V52.1l-.085.085c-.043.043-.043.086-.085.086m.085.042a.15.15,0,0,1,.043.085.092.092,0,0,1,.085-.085Zm.085-.256.128.128H2.049v.086l.085-.086a1.61,1.61,0,0,0,.6-.725.157.157,0,0,0,.043-.128c0,.042-.043.042-.085.085a1.417,1.417,0,0,0-.683.64m.811-.726c.085,0,.171,0,.171-.085a.17.17,0,0,0-.171.085m2.049,2.774.085-.085H4.866l.085-.128v.085a.092.092,0,0,0,.085-.085H4.951l.128-.128.085-.085v.085c.043-.042.085-.042.085-.085a.917.917,0,0,0,.384-.512.042.042,0,0,0-.042-.043H5.549c.043,0,.043-.043.085-.085v.085a.092.092,0,0,0,.085-.085H5.634c.043-.043.043-.086.085-.086a.133.133,0,0,0,.043.086c.042,0,.042-.043.085-.086H5.719c.043-.042.085-.085.085-.128a.256.256,0,0,0,.043-.171c.043,0,.043-.043.085-.043v.213H5.848v.085c.043,0,.043-.042.085-.085a.322.322,0,0,0,.171-.3H6.018a.091.091,0,0,0-.085.085V52.53c.042,0,.042,0,.085-.042.043,0,.043-.043.085-.086v.086c.043-.043.085-.043.085-.086H6.1c.043-.042.085-.085.085-.128a.257.257,0,0,0,.043-.171c0-.042.043-.085.043-.128H6.4v.213a.542.542,0,0,0,.171-.3H6.488c.043-.042.086-.085.086-.128.042.043.042.043.042.085.043,0,.043-.042.085-.085H6.573v-.213a.72.72,0,0,0-.3.427.092.092,0,0,0-.086.085.719.719,0,0,0-.3.427l-.128.085a3.548,3.548,0,0,0-.555.769,7.309,7.309,0,0,0-.939,1.067c.171,0,.256-.128.384-.171l.128-.128v.085c.042,0,.042-.043.085-.085m-.043.982a.888.888,0,0,0-.256.171c.128,0,.171-.085.256-.171m.043-1.067v.085H4.781a.091.091,0,0,1,.085-.085m2.6-2.177H7.384a.753.753,0,0,0-.171.213c-.555.768-1.152,1.536-1.793,2.262-.085.086-.128.214-.213.3-.043.042-.043.085-.086.085-.085.085-.171.128-.171.256a.426.426,0,0,0,.213-.171c.043-.043.085-.085.085-.128a1.007,1.007,0,0,0,.384-.342,15.458,15.458,0,0,0,1.793-2.262c.043-.043.043-.043.043-.085a.08.08,0,0,0,0-.128m-2.39,1.963V53.9a.092.092,0,0,1,.085-.085Zm1.152-1.494V52.4a.092.092,0,0,1,.085-.085Zm.427-.9h.128l.085-.085c-.128-.085-.171-.085-.213.085m.555,1.536-.085.086v-.086Zm.256-.469h.042v.042H7.384v-.042Zm.854-1.878a12.045,12.045,0,0,0,1.024-1.537.63.63,0,0,0,.043-.3,14.453,14.453,0,0,0-1.025,1.579c-.042.043-.042.128-.085.213a1.923,1.923,0,0,0-.427.6v.085a.059.059,0,0,0,.086,0,1.012,1.012,0,0,0,.384-.64m1.323-1.494a2.322,2.322,0,0,0-.64,1.024,2.208,2.208,0,0,0-.6.9A.791.791,0,0,0,8.238,52.1a2.954,2.954,0,0,1,.128.6.16.16,0,0,0,.128.171c0-.043.042-.086.085-.171.3-.854.555-1.707.854-2.6a.256.256,0,0,0,.043-.171c0-.086-.043-.128-.085-.213Zm-1.11,1.92H8.409a.08.08,0,0,1,.128,0m.128,6.189a.892.892,0,0,0-.171.469.473.473,0,0,0,.171-.469m.427-1.451v.042c.042-.042.042-.042,0-.042M9.9,48.049a.265.265,0,0,0-.171.256c.085-.043.128-.171.171-.256m0,5.122a.894.894,0,0,0-.171.469.642.642,0,0,0,.171-.469m.427-1.281c-.043.086-.043.171-.085.256a.314.314,0,0,0,.085-.256m.342-.939c-.043.043-.043.085-.085.128,0,.043,0,.043.042.043h.043Zm.256-.768a.892.892,0,0,0-.171.469.9.9,0,0,0,.171-.469m.427-1.2a.565.565,0,0,0-.128.469.66.66,0,0,0,.128-.469m-.085,1.494v-.213a.466.466,0,0,0,.042.213Zm0,8.109a10.738,10.738,0,0,0,1.152-1.238c.043-.085.043-.171.085-.213a7.378,7.378,0,0,0-1.11,1.2c-.085.085-.085.171-.128.256m1.2-.512c-.043,0-.043.043-.086.086l-.085.128a3.225,3.225,0,0,0-.854,1.025,3.317,3.317,0,0,0,.854-1.025c.043-.043.085-.043.085-.128a.092.092,0,0,0,.086-.086m-.939-9.518c0,.085-.043.128-.043.171.043-.043.043-.086.043-.171m.726-1.75c-.043-.042-.043,0-.086.043V46.9a11.812,11.812,0,0,0,.086-.085m.256.427a.259.259,0,0,0-.042-.171h.128c-.043.043-.043.128-.085.171m.085-1.323a.221.221,0,0,0-.085.171.326.326,0,0,0,.085-.171m-.043,12.037c0,.042-.042.042-.042.085a.15.15,0,0,0,.042-.085m.043,0a6.134,6.134,0,0,0,1.2-1.366c0-.043.043-.043.085-.086l.085-.128c.043-.043.085-.085.085-.128a.092.092,0,0,0,.085-.085c.043-.042.086-.085.086-.128.042-.042.085-.042.085-.085-.043,0-.043.043-.085.085a.092.092,0,0,0-.086.086L14,56.243c0,.043-.043.043-.086.085l-.085.128c-.043.042-.086.042-.086.085a7.974,7.974,0,0,0-1.109,1.28.157.157,0,0,0-.043.128m.256-12.677a2.53,2.53,0,0,0-.171.342c.128-.043.213-.128.171-.342m.171,11.268a.042.042,0,0,0,.042-.043Zm.171-.213a1.154,1.154,0,0,0,.683-.725,2.2,2.2,0,0,0-.683.725m.3-12.463a.32.32,0,0,0-.171.384.522.522,0,0,0,.171-.384m.171-.427c-.042.043-.042.086-.085.171.043-.043.043-.128.085-.171m.085-.213-.085.128c.043-.043.085-.086.085-.128m.086-.085c0-.043,0-.043-.043-.085V43.1c-.043.043-.043.043-.043.085.043,0,.043-.042.086-.042m.256,12.25a1.837,1.837,0,0,0,.854-.939,3,3,0,0,0-.854.939m.555-14.085a.324.324,0,0,0-.085.213,1.018,1.018,0,0,0-.256.47.846.846,0,0,0,.256-.47c.042-.085.085-.128.085-.213m.213-.3c-.128.043-.171.128-.213.256.128-.043.171-.171.213-.256m.342-.9c-.043.085-.086.128-.086.213a.324.324,0,0,0,.086-.213m.3,14.64c0,.043-.042.085-.085.128v-.043c.043,0,.043-.042.085-.085m.043-15.28c0-.042-.043-.042-.043,0s-.042.043-.042.085c.042-.042.042-.042.085-.042Zm0,14.3a.991.991,0,0,0,.512-.341,7.284,7.284,0,0,0,.427-.6,4.906,4.906,0,0,0-.939.939m.811.043a1.93,1.93,0,0,1-.811.939,3.484,3.484,0,0,1,.811-.939M15.878,38.7a.15.15,0,0,0-.043.085.042.042,0,0,1,.043-.042Zm.512,15.066.085-.085c-.042.043-.042.085-.085.128h-.042c.042,0,.042,0,.042-.043m.469-.6h.086a.909.909,0,0,1-.47.512Zm.086-.128h.128l-.086.085a.132.132,0,0,0-.042-.085m0,.085h.043v.043h-.043Zm.128-.085v-.086h.085c-.042,0-.042.043-.085.086m.085-.128v-.085h.086a.092.092,0,0,1-.086.085m.171-.982c.3-.171.3-.171.469-.512a2.561,2.561,0,0,0-.469.512m1.494-18.012h-.128a.08.08,0,0,1,.128,0m-.043-.043c0-.043,0-.043.043-.085v.128a.042.042,0,0,0-.043-.043" transform="translate(0 -13.562)" fill="#845252"/>
    <path id="Path_28418" data-name="Path 28418" d="M47.908,83.306a13.52,13.52,0,0,0-2.988,1.622c-.427.3-.9.555-1.323.811-.769.6-1.665,1.067-2.476,1.622-.725.555-1.494,1.067-2.219,1.665-.341.256-.683.555-1.024.854h-.043c-.512.384-1.025.725-1.536,1.067a23.968,23.968,0,0,1-2.646,1.579,4.216,4.216,0,0,1-1.579.47,2.073,2.073,0,0,1-1.707-.6,2.712,2.712,0,0,1-.683-2.476,11.49,11.49,0,0,1,1.109-3.286,18.442,18.442,0,0,1,1.579-2.6,1.341,1.341,0,0,0,.213-.427,2.218,2.218,0,0,1,.854-1.025,2.286,2.286,0,0,0,.64-.64,14.237,14.237,0,0,1,1.707-1.494,9.493,9.493,0,0,1,.939-.469,1.17,1.17,0,0,1,1.323.256c.6.6.64,1.11-.085,1.878a11.339,11.339,0,0,1-1.836,1.665,5.721,5.721,0,0,1-2.134.982.728.728,0,0,0-.555.341,1.888,1.888,0,0,0-.341.47A22.232,22.232,0,0,0,31.817,88c-.042.085-.042.171-.085.256v.128a3.121,3.121,0,0,0-.342,1.067,6.607,6.607,0,0,0-.256,1.323,2.6,2.6,0,0,0,0,.811.243.243,0,0,0,.342.213,2.884,2.884,0,0,0,.854-.3,12.206,12.206,0,0,0,1.793-1.024c1.025-.64,2.006-1.323,2.988-1.963,1.536-1.025,3.03-2.049,4.567-3.031,1.2-.768,2.39-1.536,3.628-2.219.3-.171.64-.341.982-.512a3.883,3.883,0,0,1,.6-.3.593.593,0,0,1,.64.171c.171.171.427.341.385.683m-13.061-.043a1.325,1.325,0,0,0,.768-.384,7.267,7.267,0,0,0,.6-.469c.3-.256.555-.555.854-.854a.13.13,0,0,0,0-.171.08.08,0,0,0-.128,0,2.36,2.36,0,0,0-1.109.811h-.043a.091.091,0,0,1-.085.085v.043a3,3,0,0,0-.854.939m.256,7.171a.092.092,0,0,0-.085.085c0-.042.042-.042.085-.085m.043-.043a.321.321,0,0,0,.3-.171.432.432,0,0,0-.3.171m.213-9.048h.128v-.085c-.043,0-.085.042-.128.085m11.481,2.134c-.128,0-.213.085-.3.213a.314.314,0,0,0-.256.085c-.085.043-.213.043-.3.128a24.548,24.548,0,0,0-2.476,1.579,3.5,3.5,0,0,0-.854.512c-.171.128-.384.213-.555.342-.768.512-1.537,1.024-2.22,1.579l-.427.256c-.982.725-1.963,1.451-2.945,2.134a1.516,1.516,0,0,0-.469.427.38.38,0,0,0-.342.213.926.926,0,0,0-.341.213.584.584,0,0,0,.341-.213.436.436,0,0,0,.342-.213,1.853,1.853,0,0,0,.64-.342c.64-.427,1.238-.9,1.878-1.323.469-.342.9-.726,1.366-1.067.982-.6,1.878-1.238,2.817-1.921a2.5,2.5,0,0,0,.811-.555c.085-.043.171-.043.256-.128.726-.427,1.494-.9,2.22-1.366.128-.085.213-.128.256-.213l.256-.128c.128-.043.256-.085.3-.213m-10.713-.64a7.29,7.29,0,0,0-.683.512.574.574,0,0,0,.512-.213.286.286,0,0,0,.171-.3m-.64-1.622h.128v.128c0-.043.042-.085.085-.128l.128-.085a.934.934,0,0,0,.341-.213,2.375,2.375,0,0,0,.342-.213.157.157,0,0,1,.042-.128.133.133,0,0,1-.042-.086,1.876,1.876,0,0,0-.768.512l-.128.128Zm0,.939c.555-.384,1.025-.768,1.579-1.152a2.94,2.94,0,0,0-1.579,1.152m.128-.939v-.085H35.7A.157.157,0,0,0,35.744,81l.085.128h-.085c0,.042-.043.042-.043.085Zm0,8.878a.321.321,0,0,0,.3-.213.493.493,0,0,0-.3.213m.171-7.768a.15.15,0,0,1-.085-.043h.043Zm.256,1.28a.432.432,0,0,0-.3.171.286.286,0,0,0,.3-.171m-.086,6.274a.791.791,0,0,1,.3-.086c.043-.085.128-.128.171-.213H36.6l.128-.128v.085c.042,0,.085-.042.128-.085h-.128c.042-.043.085-.085.128-.085,0-.042.043-.042.043-.085l.171-.043c.043-.042.085-.042.128-.085v.085l.085-.085H37.2v-.042c.043,0,.085-.043.128-.086v.086c.043,0,.043-.043.086-.086a.728.728,0,0,1,.213-.085l.128-.128h-.085l.128-.086v.086a.092.092,0,0,1,.085-.086.927.927,0,0,0,.341-.213v-.086l.043.043.043-.043v-.042h.042a.584.584,0,0,0,.341-.213v-.042h.043v.042a.092.092,0,0,1,.085-.085l.128-.128a.436.436,0,0,0,.341-.213c.043-.043.085-.086.128-.086a.926.926,0,0,0,.341-.213l.128-.128c.086-.043.128-.085.213-.085l.128-.128c.042-.043.085-.085.128-.085a.133.133,0,0,0-.086-.043v-.042c.043,0,.043.042.086.042.085,0,.128-.042.213-.085l.128-.128c.128-.043.213-.128.342-.171l.128-.128a.926.926,0,0,0,.342-.213c.043-.043.085-.086.128-.086a.131.131,0,0,0-.085-.042V86.08c.042,0,.042.043.085.043.086,0,.128-.043.213-.085.043-.043.085-.085.128-.085h-.128a.157.157,0,0,0,.043-.128c.042.043.042.085.085.085a.515.515,0,0,0,.213-.213h.128c.128-.042.213-.128.342-.171l.128-.128c.085-.085.171-.128.213-.213.043-.043.043-.043.043-.086l.085.086c.085-.086.171-.128.256-.213v-.085c.043.042.086.042.086.085a1.723,1.723,0,0,1,.384-.213H43.81a1.732,1.732,0,0,1,.384-.213h-.042a2.369,2.369,0,0,0,.341-.213l.384-.213a2.441,2.441,0,0,1,.342-.213c.085-.085.171-.128.213-.213.042-.043.042-.043.042-.085l.085.085c.086-.085.171-.128.256-.213a.157.157,0,0,1-.043-.128.654.654,0,0,0-.3.213.694.694,0,0,0-.384.213c-.128.043-.256.085-.3.213a.573.573,0,0,0-.384.213,3.189,3.189,0,0,0-1.025.64.587.587,0,0,0-.341.213.693.693,0,0,0-.384.213,2.511,2.511,0,0,0-.811.555c-.128,0-.213.085-.341.213a1.1,1.1,0,0,0-.469.3,2.5,2.5,0,0,0-.811.555,1.108,1.108,0,0,0-.47.3,1.107,1.107,0,0,0-.469.3,1.212,1.212,0,0,0-.469.341,6.117,6.117,0,0,0-.939.64,2.594,2.594,0,0,0-.6.427,1.544,1.544,0,0,0-.427.3,1.893,1.893,0,0,0-.469.341.853.853,0,0,0-.427.342m.9-6.915a.148.148,0,0,0-.085.043,2.074,2.074,0,0,0-.6.469c-.043.042-.043.085-.085.085a.092.092,0,0,0,.085-.085.883.883,0,0,0,.6-.427c.042-.042.085-.042.085-.085m.256-.213a.092.092,0,0,0-.086.085c.043-.042.086-.042.086-.085m.256,6.189a.148.148,0,0,0,.043.085h-.086a.148.148,0,0,0,.043-.085m.512-.341v.128h-.085c.042-.042.085-.085.085-.128m.939-.6v.085c-.042-.043-.042-.043-.085-.043.043,0,.043-.042.085-.042m.043-.085c.042,0,.042.042.085.042-.043,0-.043,0-.085-.042m.427-.171v-.086c.043.043.043.043,0,.086m.128-.086a.133.133,0,0,0-.085-.042v-.043c.042,0,.042.043.085.085m.384-.427.085.085h-.128c.043,0,.043-.043.043-.085m.427-.213V87.1H40.1Zm.854-.64.085.085h-.128c.042-.042.042-.042.042-.085M42.7,85.312l.085.085h-.128c.043-.042.043-.042.043-.085m3.116-1.963c.085,0,.171,0,.213-.085Zm.256-.085a.323.323,0,0,0,.171-.085.171.171,0,0,0-.171.085m.213-.128h.085l.043-.043c0-.043-.043-.043-.085-.043a.15.15,0,0,1-.043.086m.768.256a.171.171,0,0,0-.171.085.323.323,0,0,1,.171-.085" transform="translate(-16.666 -44.936)" fill="#845252"/>
    <path id="Path_28419" data-name="Path 28419" d="M64.088,83.5a47.967,47.967,0,0,0-6.488,3.97c-.042.042-.128.085-.171.171a.554.554,0,0,0-.256.683c.128.427.213.9.3,1.323a17.894,17.894,0,0,1,.469,3.329,11.269,11.269,0,0,1-.043,1.707,12.185,12.185,0,0,1-.256,1.323.935.935,0,0,0-.043.341,1.066,1.066,0,0,1-.171.6c0-.042.043-.085,0-.085v.085c-.043.171,0,.342-.213.427a.935.935,0,0,0-.128.213l-.512,1.28a1.4,1.4,0,0,0-.3.555h.128c-.042.042-.085.128-.128.171v.043a.42.42,0,0,0-.171.213h.042a.882.882,0,0,0-.171.256,21.181,21.181,0,0,1-6.1,6.061,8.1,8.1,0,0,1-2.732,1.152,2.387,2.387,0,0,1-1.452-.042,6.418,6.418,0,0,1-.939-.47,1.625,1.625,0,0,1-.9-1.408,5.841,5.841,0,0,1,.213-2.262,17.773,17.773,0,0,1,1.451-3.671,32.365,32.365,0,0,1,2.945-4.737c.64-.854,1.366-1.665,2.092-2.476a33.863,33.863,0,0,1,3.03-3.03c.512-.469.982-.939,1.536-1.366a.627.627,0,0,0,.213-.683L55,85.935c-.256-.939-.555-1.92-.811-2.86a4.627,4.627,0,0,1-.171-1.878,3.7,3.7,0,0,1,.854-2.22,10.509,10.509,0,0,1,1.622-1.75,8.1,8.1,0,0,1,3.073-1.835,4.437,4.437,0,0,1,.726-.171.815.815,0,0,1,.6.3.237.237,0,0,1-.085.341,10.323,10.323,0,0,0-.982.469,13.466,13.466,0,0,0-1.408.939,1.686,1.686,0,0,1-.64.427c.043-.042.043-.128.086-.171s.042-.085.085-.085l.128-.128a2.2,2.2,0,0,0,.726-.555,1.442,1.442,0,0,0,.469-.3c.043-.042.128-.042.171-.128-.085,0-.171,0-.213.086a1.247,1.247,0,0,0-.512.3,2.6,2.6,0,0,0-.683.512l-.128.128c-.042.042-.085.085-.128.085a1.124,1.124,0,0,0-.213.256c-.043,0-.085.043-.128.086a.806.806,0,0,0-.342.427,1.105,1.105,0,0,0,.385-.384c.042,0,.085-.042.128-.085a.255.255,0,0,0,.171-.043.62.62,0,0,1-.256.384,1.337,1.337,0,0,0-.384.469L57,78.679a1.475,1.475,0,0,0-.384.512v.128c-.042.085-.085.128-.128.213h-.128c-.213.469-.47.982-.64,1.451a3.21,3.21,0,0,0-.213,1.536,10.582,10.582,0,0,0,.47,2.006c.128.469.3.939.469,1.408a.619.619,0,0,0,.085.3c.128.256.213.3.512.085a8.614,8.614,0,0,0,.768-.555,34.194,34.194,0,0,1,2.988-1.75c2.859-1.494,3.841-1.878,4.695-2.347,1.11-.6,2.262.085-1.408,1.835M54.7,98.27a10.934,10.934,0,0,0,1.366-4.951,21.431,21.431,0,0,0-.213-3.713c-.042-.085-.042-.171-.085-.256a.206.206,0,0,0-.256-.086c-.341.3-.683.555-.982.854-.682.683-1.408,1.366-2.048,2.134l-.128.128-.384.384v.042a.092.092,0,0,0-.086.085h-.042a1.828,1.828,0,0,1-.256.3,13.283,13.283,0,0,0-.981,1.2,1.167,1.167,0,0,0-.385.512v.042c-.042,0-.085.043-.128.086a4.5,4.5,0,0,0-.769,1.067l-.128.213a1.3,1.3,0,0,0-.384.555v-.043l-.128.256v-.043a5.244,5.244,0,0,0-.811,1.323v-.042l-.128.256v-.042a.939.939,0,0,1-.128.213,6.309,6.309,0,0,0-.726,1.409,4.355,4.355,0,0,0-.3.64h.043a1.212,1.212,0,0,0-.3.726c-.171.128-.128.3-.213.427a5.108,5.108,0,0,0-.469,2.049,2.092,2.092,0,0,0-.042.512,3.045,3.045,0,0,0,.085,1.238,1.334,1.334,0,0,0,.213.427.343.343,0,0,0,.47.128,9.187,9.187,0,0,0,1.451-.725,21.857,21.857,0,0,0,2.347-1.707A20.078,20.078,0,0,0,52.65,101.3,18.006,18.006,0,0,0,54.7,98.27m-8.707,3.116h.042v-.043a.042.042,0,0,1-.042.043m.3-.726.042.043.043-.043v-.085c-.043,0-.043.042-.085.085m.3-.64a1.172,1.172,0,0,0,.427-.683,1.435,1.435,0,0,0-.427.683m.427-.726a.462.462,0,0,0,.128-.3.388.388,0,0,0-.128.3m.128-.341a1.089,1.089,0,0,0,.384-.512,25.721,25.721,0,0,1,1.665-2.519,44.482,44.482,0,0,1,3.884-4.61l2.262-2.176a.515.515,0,0,0,.213-.213v-.085h-.043a.425.425,0,0,0-.213.171A40.709,40.709,0,0,0,52.223,92a34.462,34.462,0,0,0-4.78,6.36,3.89,3.89,0,0,0-.3.6M48.936,94.9h.085a.258.258,0,0,0,.042-.171.586.586,0,0,0-.128.171m.128-.213h.128V94.6h.128v-.213l-.128.213c-.043.043-.085.085-.128.085m.128.043c0,.042-.043.128-.043.171l.128-.171Zm.128-.384a.324.324,0,0,0,.213-.086l.043-.171c-.128.043-.171.171-.256.256m.256-.3h.085a.148.148,0,0,0,.043-.085h.085v.085l.128-.085H49.79l.128-.128a.466.466,0,0,1,.042-.213h.085c.043,0,.085-.043.128-.085v-.213a.762.762,0,0,0-.213.3.663.663,0,0,0-.256.342c-.043.042-.085.085-.128.085m.128.043a.256.256,0,0,0-.043.171l.128-.171Zm.512-.768H50.3l.128-.128v.128c.043-.042.085-.085.085-.128H50.43c.043-.042.085-.042.128-.085v-.213a.681.681,0,0,0-.342.427m.385-.427h.085v-.085a.092.092,0,0,0-.085.085m.085-.128h.128v.128c0-.042.043-.085.085-.128a.923.923,0,0,0,.128-.213l.128-.085.128-.128.128-.085h-.128c0-.085.042-.128.042-.213h.085v.171l.128-.171c.042-.043.085-.085.085-.128H51.54c.042-.043.085-.043.128-.086v.086l.085-.086h-.085L51.8,91.7v.128c.043-.042.043-.085.085-.128l.128-.213c0-.043-.042-.043-.085-.085h.128v.085c0-.043.042-.043.085-.085l.128-.128c.043-.042.086-.042.128-.085l.128-.128a.767.767,0,0,0,.213-.3h.042c.043-.042.043-.085.086-.128h-.086a.148.148,0,0,0,.043-.085h.085v.085c0-.042.042-.042.085-.085l.128-.128c.042-.043.085-.085.128-.085a5.394,5.394,0,0,0,.854-.854l.128-.128.085-.086a.148.148,0,0,0-.085-.042.042.042,0,0,0,.042-.043h.042a.131.131,0,0,0,.043.085c0-.042.043-.085.085-.128l.128-.086.128-.128.128-.085H54.7a.132.132,0,0,0,.043-.085c.042,0,.042,0,.085-.043v.085c.043,0,.043-.042.086-.085h-.086a.148.148,0,0,0,.043-.085h.085v.085c0-.042.043-.042.085-.085h-.085A.148.148,0,0,1,55,88.539a.132.132,0,0,0,.085-.043c0,.043,0,.085-.043.085.043,0,.085-.042.128-.085s.085-.085.128-.085l.128-.128h-.086V88.2h.086c0-.128-.043-.085-.128-.042-.043.042-.085.085-.128.085l-.128.128c-.042.043-.085.086-.085.128-.042,0-.085.043-.128.085s-.085.086-.128.086l-.128.128c-.043.043-.085.085-.128.085l-.128.128c0,.042-.042.085-.085.128-.043,0-.086.042-.128.085l-.128.128a5.24,5.24,0,0,0-1.109,1.067c0,.042-.043.042-.086.085l-.128.128a1.715,1.715,0,0,0-.6.64l-.128.128a1.084,1.084,0,0,0-.469.512h.085v.128h-.128c0-.043,0-.085.043-.085-.043,0-.085.042-.128.085a.573.573,0,0,0-.256.3l-.128.128a.449.449,0,0,0-.256.3m.341-.213-.085-.085h.128c0,.042,0,.042-.043.085m.043-.085v-.128h.085c.042-.043.085-.043.128-.085v.085H51.2a.158.158,0,0,0-.042.128Zm.982-1.067V91.27h.128c0,.042-.043.085-.043.128Zm.213-.213v.085H52.18c0-.042.042-.042.085-.085m.128-.128v.128h-.128Zm.3-.384c.043,0,.043,0,.085-.043v.128c-.042-.042-.042-.085-.085-.085m.342-.256c0,.042-.043.085-.043.128h-.085v-.085c.042,0,.085-.042.128-.042m.085-.085v.085h-.085c0-.043.042-.043.085-.085m1.366,9.731a.423.423,0,0,1,.171-.213.257.257,0,0,0-.042.171c.085-.043.128-.086.128-.171h-.128c.085-.086.128-.171.171-.213l-.042.171c.085-.043.128-.085.128-.171a.426.426,0,0,0,.171-.213c.085-.043.085-.128.085-.213a1.02,1.02,0,0,0,.3-.555h-.086a.423.423,0,0,1-.171.213l.128-.213a.732.732,0,0,0,.042-.3,1.033,1.033,0,0,0-.256.342c-.213.384-.469.726-.683,1.11l-.512.854a.664.664,0,0,0-.256.342.675.675,0,0,0,.3-.3c.213-.171.341-.47.555-.64M54.1,89.392v.085c-.042-.042-.042-.042-.042-.085Zm.128-.042h-.086v-.086c.043.043.043,0,.086,0-.043.043,0,.043,0,.086m2.347,8.707c-.213.128-.256.341-.385.512a16.519,16.519,0,0,1-1.622,2.6,1.66,1.66,0,0,0-.256.469,1.146,1.146,0,0,0,.342-.3,12.165,12.165,0,0,0,1.323-1.963,5.264,5.264,0,0,0,.6-1.323M54.442,89.05v.086h-.085c0-.043.043-.043.043-.086Zm.128-.128v.128c-.043,0-.043-.042-.085-.042a.042.042,0,0,1,.042-.042.042.042,0,0,0,.043-.043m-.043,11.14a.258.258,0,0,0-.042.171l.128-.171Zm.086-11.225H54.7v.085h-.085Zm.3,10.585a1.816,1.816,0,0,0-.043.213h-.085a.9.9,0,0,1,.128-.213M55,99.38c-.043,0-.043,0-.085.043a.93.93,0,0,1,.128-.213Zm.042-.171c.043-.128.043-.256.128-.342a.937.937,0,0,1-.043.342Zm.128-10.8V88.5h-.085a.133.133,0,0,1,.042-.085Zm.128-.085v.085c-.043,0-.043-.043-.085-.043v-.042ZM56.405,99.38a.914.914,0,0,0,.128-.213v.043a.945.945,0,0,0-.128.213Zm.128-.213c0-.085.043-.213.043-.3.042,0,.085.043.128.043Zm.085-1.238c-.042.043-.042.043-.042.085.042-.042.085-.042.042-.085m.128-19.335c.043-.043.043-.085.085-.128l-.085.085Zm.384,8.28a.223.223,0,0,0,.171-.085l.128-.085H57.3a.133.133,0,0,0,.043-.086.15.15,0,0,0,.085-.042v.085c.043,0,.085-.043.128-.085.128-.085.213-.213.341-.3v-.128a1.107,1.107,0,0,0-.469.3l-.128.128a.923.923,0,0,0-.213.128c-.085.042-.128.085-.085.171Zm1.835-.726a1.1,1.1,0,0,0-.469.3,1.924,1.924,0,0,0-.6.427,2.347,2.347,0,0,0-.811.64v.043h.043a2.839,2.839,0,0,0,.811-.64,1.417,1.417,0,0,0,.6-.427.852.852,0,0,0,.427-.342m-1.835-9.006c0,.042,0,.085.043.085a.148.148,0,0,1,.085-.043H57.3l.128-.128v.128c.043-.042.085-.085.085-.128H57.43c.043-.043.085-.043.128-.085v.085c0-.043.042-.043.085-.085l.128-.128a5.229,5.229,0,0,0,.811-.512c.042-.085.128-.128.085-.171-.085-.085-.128-.043-.171.043a1.768,1.768,0,0,0-.811.512l-.128.128a.973.973,0,0,0-.427.3m.427,9.433H57.43c.043-.043.043-.043.043-.085,0,.042.042.042.085.085m.128-9.732a.158.158,0,0,1-.042.128h-.085c0-.043,0-.085.042-.085a.131.131,0,0,0,.085-.043m0-.043a.148.148,0,0,1,.085.043h-.085Zm.256,9.347h.085v.128l.085-.128h-.085v-.085c.042,0,.085.043.128.085a1.279,1.279,0,0,1,.213-.3.587.587,0,0,0-.342.213c-.043.043-.085.043-.085.085m.6-.427a.5.5,0,0,0,.3-.213.755.755,0,0,0-.3.213m.9.128a.359.359,0,0,0-.3.171.432.432,0,0,0,.3-.171m.47-.341a.758.758,0,0,0-.3.213.5.5,0,0,0,.3-.213m.341-.213a.766.766,0,0,0-.3.213.767.767,0,0,0,.3-.213" transform="translate(-24.652 -42.315)" fill="#845252"/>
    <path id="Path_28420" data-name="Path 28420" d="M101.621,74.092a1,1,0,0,1-.085.342c0,.043-.042.085-.085.128-.683.555-1.409,1.11-2.134,1.665-.982.768-2.007,1.536-2.945,2.3-1.665,1.238-3.287,2.519-4.951,3.756a12.493,12.493,0,0,1-1.579,1.024,2.4,2.4,0,0,1-.768.3.887.887,0,0,1-.811-.214l-.213-.128a1.07,1.07,0,0,1-.469-1.152,6.044,6.044,0,0,1,.469-1.921,2.807,2.807,0,0,0,.384-.811,22.66,22.66,0,0,1,1.409-2.646c.513-.939,1.025-1.836,1.579-2.732.6-.854,1.2-1.75,1.878-2.6a.725.725,0,0,1,.341-.256c.47.256.555.427.342.939a8.338,8.338,0,0,1-.726,1.536c-.213.342-.384.683-.555,1.025a.32.32,0,0,0-.085.171H92.7c-.085.085-.128.128-.128.213a1.864,1.864,0,0,0-.384.427,6.014,6.014,0,0,1-.555,1.025,1.5,1.5,0,0,1-.17.384c-.043.085-.085.128-.085.171.042.043.042.043.085.043h-.085a1.577,1.577,0,0,0-.47.811,1.122,1.122,0,0,0-.3.64,1.344,1.344,0,0,0-.343.64,1.936,1.936,0,0,0-.427.9c0,.043,0,.086-.085.128a6.371,6.371,0,0,0-.725,1.665,2.07,2.07,0,0,0-.043.512c0,.085.128.128.213.128a.911.911,0,0,0,.213-.128l.811-.512c.385-.256.726-.555,1.11-.811.9-.683,1.835-1.366,2.732-2.006.683-.512,1.365-.939,2.006-1.451.981-.726,2.006-1.452,2.987-2.22l1.793-1.28a.518.518,0,0,1,.64-.085ZM89.414,80.238v0Zm.214-.47c.085-.085.085-.171.128-.256s.042-.171.085-.213v-.042c-.043.085-.043.171-.085.256a.565.565,0,0,1-.128.213Zm.427-.9c.043,0,.043,0,.085-.042a.042.042,0,0,1-.042-.042c0,.042-.043.042-.043.085m.513-.854c0-.085.043-.128.043-.213a1.824,1.824,0,0,0-.043.213m4.865-9.006c-.128-.213-.3-.384-.213-.64a2.143,2.143,0,0,1,.213-.555,14.307,14.307,0,0,1,1.537-2.049,2.206,2.206,0,0,1,.47-.427.388.388,0,0,1,.511,0,2.334,2.334,0,0,0,.385.3,3.719,3.719,0,0,1-.342.427.678.678,0,0,0-.384.384.291.291,0,0,0-.214.3.6.6,0,0,1,.256-.3,2.775,2.775,0,0,1,.341-.384c.171-.042.256-.085.469-.128a1.741,1.741,0,0,0-.171.213,2.947,2.947,0,0,0-.982.939,8.419,8.419,0,0,0-.811,1.323,4.7,4.7,0,0,1-.555.726c-.213.043-.384.043-.512-.128m2.007-3.2h.043c.085.043.213-.043.213-.171h-.042c-.085-.042-.129-.042-.17.043a.157.157,0,0,0-.043.128" transform="translate(-49.253 -36.703)" fill="#845252"/>
    <path id="Path_28421" data-name="Path 28421" d="M116.866,79.25a3.366,3.366,0,0,0-1.409.555c-1.622.811-3.116,1.835-4.652,2.774a29.366,29.366,0,0,0-3.884,2.6,9.809,9.809,0,0,1-.812.6,1.859,1.859,0,0,0-.682.939h-.043c-.043-.085-.085-.085-.128,0a2.178,2.178,0,0,0-.3.726.725.725,0,0,0-.085.213,6.019,6.019,0,0,0-.341.768,12.4,12.4,0,0,0-.6,1.323,1.506,1.506,0,0,0-.128.469v.042c-.042.043-.085.128-.128.171a2.134,2.134,0,0,0-.214.555c0,.085-.042.128-.085.213a1.262,1.262,0,0,0-.213.555v-.043l-.128.256.042-.043a.9.9,0,0,0-.213.555h-.042c.042.256-.128.427-.213.64a.326.326,0,0,1-.085.213l-.213.342a.91.91,0,0,0-.128.213h.042c-.128.128-.085.256-.128.427a.955.955,0,0,0-.128.213h.043c-.213.384-.384.768-.555,1.152a3.994,3.994,0,0,1-.213.427c-.6,1.28-1.195,2.6-1.835,3.841-.6,1.153-1.152,2.262-1.75,3.372-.683,1.238-1.323,2.433-2.049,3.628a32.5,32.5,0,0,1-2.732,4.1,20.411,20.411,0,0,1-2.091,2.22,8.38,8.38,0,0,1-.982.725,3.239,3.239,0,0,1-1.409.469A2.418,2.418,0,0,1,86.05,113.1a4.2,4.2,0,0,1-.3-1.622,7.861,7.861,0,0,1,.128-1.408,17.245,17.245,0,0,1,.939-2.86,24.525,24.525,0,0,1,2.049-4.1c.6-1.024,1.238-2.049,1.878-3.03.811-1.238,1.665-2.433,2.561-3.628a41.741,41.741,0,0,1,4.78-5.463c1.152-1.11,2.348-2.177,3.543-3.244.427-.384.939-.683,1.366-1.067a2.053,2.053,0,0,0,.64-.854c.341-.939.811-1.836,1.195-2.774.47-1.11.982-2.22,1.409-3.329.085-.213.213-.427.3-.64.342-.854.854-1.665,1.153-2.561a5.962,5.962,0,0,1,.555-1.451.34.34,0,0,0-.085-.427l-.939,1.28a1.143,1.143,0,0,0-.3.341.916.916,0,0,0-.086.469c0,.128.043.256.043.384s-.128.171-.3.171c-.042,0-.085-.085-.17-.128s-.171-.043-.213.043c-.427.854-1.238,1.366-1.75,2.134-.043.043-.086.085-.086.128-.042,0-.085.043-.128.086l-.128.128a3.3,3.3,0,0,0-.726.811.745.745,0,0,1-.171.213,7.478,7.478,0,0,1-1.963,1.494,4.225,4.225,0,0,1-1.11.384,2.2,2.2,0,0,1-2.049-.64c-.555-.512-.64-1.195-1.024-1.921a.539.539,0,0,1-.043-.256,3.55,3.55,0,0,1,.469-1.707,7.017,7.017,0,0,1,2.092-2.39,5.681,5.681,0,0,1,3.884-.982,3.408,3.408,0,0,1,1.58.469,1.414,1.414,0,0,0,.427.256.279.279,0,0,0,.342-.085c.256-.256.427-.512.64-.768.768-.939,1.451-2.006,2.22-2.945a14.111,14.111,0,0,1,1.024-1.366l.64-.64a.338.338,0,0,1,.47-.042,4.049,4.049,0,0,1,.683.811.781.781,0,0,1,.128.683c-.085.213-.128.427-.213.64-.342.854-.64,1.707-.939,2.561a5,5,0,0,1-.427,1.109,4.594,4.594,0,0,0-.256.469v-.042a8.662,8.662,0,0,0-.427,1.109,2.646,2.646,0,0,0-.3.811v.128a2.33,2.33,0,0,0-.342.64c-.128.128,0,.3-.085.427a1.492,1.492,0,0,0-.213.342c-.086.171-.086.384-.213.512l-.128.341a.684.684,0,0,0-.213.427.408.408,0,0,0-.085.3.92.92,0,0,1-.128.213,2.6,2.6,0,0,0-.213.512,1.259,1.259,0,0,0-.213.555c-.042.128-.171.213-.213.341a7.6,7.6,0,0,1-.512,1.238c-.043.085-.043.171-.085.256a.631.631,0,0,0,.554-.085,8.059,8.059,0,0,0,.769-.512q1.728-1.153,3.586-2.305a28.237,28.237,0,0,1,3.841-2.134,4.121,4.121,0,0,1,.811-.341.862.862,0,0,1,.982.469c.042.085,0,.213-.085.213M97.7,99.182c.171-.385.384-.726.555-1.11.341-.768.725-1.494,1.067-2.262.427-.939.9-1.836,1.28-2.817a15.233,15.233,0,0,1,.812-1.921c.3-.512.3-1.238.725-1.665.043-.042,0-.171.043-.213a.082.082,0,0,0-.043-.128h-.128c-.213,0-.341.3-.555.341a1.431,1.431,0,0,1-.768.64l.6-.64a.324.324,0,0,0,.171-.042c.171-.256.47-.427.683-.683.213-.171.3-.3.213-.3-.171,0-.213.128-.3.213a4.809,4.809,0,0,0-.854.769,7.326,7.326,0,0,0-1.067.939l-.085.128c-.043.042-.086.042-.128.085l-.086.128c-.042.043-.085.043-.128.086l-.085.128c-.043.043-.085.043-.128.086a7.1,7.1,0,0,0-.982.981c0,.043-.043.043-.085.085s-.128.086-.128.128-.043.043-.086.085a13.241,13.241,0,0,0-1.28,1.409l-.128.085a6.975,6.975,0,0,0-.726.854,3.619,3.619,0,0,0-.64.768,10.4,10.4,0,0,0-1.366,1.707,1.083,1.083,0,0,0-.342.427,1.663,1.663,0,0,0-.342.427,1.552,1.552,0,0,0-.3.427,1.1,1.1,0,0,0-.3.469.451.451,0,0,0-.256.3,3.453,3.453,0,0,0-.512.769.542.542,0,0,0-.213.3.5.5,0,0,0-.214.3.587.587,0,0,0-.213.342.492.492,0,0,0-.213.3,2.7,2.7,0,0,0-.512.9,2.119,2.119,0,0,0-.64,1.067.7.7,0,0,0-.342.512,2.7,2.7,0,0,0-.512.982.233.233,0,0,0-.128.213.437.437,0,0,0-.171.427.759.759,0,0,0,.171-.427.234.234,0,0,0,.128-.213,2.607,2.607,0,0,0,.554-.939,1.405,1.405,0,0,0,.3-.555l.213-.128a.323.323,0,0,0,.086-.171.926.926,0,0,1,.213-.342l.128-.427.427-.427a1.766,1.766,0,0,1-.512.854.921.921,0,0,1-.213.342c-.042.043-.042.128-.128.213a2.665,2.665,0,0,1-.427.939,8.585,8.585,0,0,0-.768,1.366,5.773,5.773,0,0,1-.64,1.11v-.342a1.9,1.9,0,0,0-.427.939l.342-.384a1.526,1.526,0,0,1-.171.469l-.64,1.835a6.453,6.453,0,0,0-.427,2.988,4.219,4.219,0,0,0,.469,1.409c.256.427.427.469.854.213a6.763,6.763,0,0,0,1.366-1.11,24.2,24.2,0,0,0,3.287-4.481c.213-.341.427-.726.64-1.11.64-1.109,1.238-2.219,1.878-3.372.768-1.409,1.494-2.817,2.134-4.268M87.245,109a.574.574,0,0,0,.085-.384,1.243,1.243,0,0,0-.085.384m.085-.427a1.78,1.78,0,0,0,.342-.768,1.77,1.77,0,0,0-.342.768m.342-.811a.786.786,0,0,0,.213-.512.235.235,0,0,0,.085-.213.328.328,0,0,0-.085.213.575.575,0,0,0-.213.512M88.4,106.4c0,.085-.043.128-.085.213a.325.325,0,0,1,.085-.213m.043-.342a2.84,2.84,0,0,0,.384-.811.991.991,0,0,0-.384.811m2.134-5.036a.223.223,0,0,0,.085-.171.323.323,0,0,0-.085.171m.213-.342a.222.222,0,0,0,.085-.171c-.043.085-.043.128-.085.171m.3.9a.326.326,0,0,1,.086-.213.386.386,0,0,0,.042-.213.589.589,0,0,0,.171-.128c.043-.043.043-.085.043-.171a.589.589,0,0,0,.17-.128c.043-.043.043-.128.086-.171a.529.529,0,0,0,.171-.342.589.589,0,0,0,.213-.341,1.305,1.305,0,0,0,.3-.213,2.647,2.647,0,0,1-.726,1.067c-.043.128-.085.256-.213.3a.672.672,0,0,1-.214.341c-.042.086-.042.171-.128.213m1.067-2.9.213-.086c-.042-.042-.085-.085-.085-.128h.085v-.085l-.085.085a.939.939,0,0,1-.128.213m.213.982a.584.584,0,0,1,.213-.342.381.381,0,0,1-.213.342m.213-.342a.255.255,0,0,1,.043-.171.926.926,0,0,0,.213-.342.785.785,0,0,0,.3-.427.77.77,0,0,0,.3-.213,2.287,2.287,0,0,1-.854,1.152m.214-1.622a.131.131,0,0,0,.085.042v-.085a.148.148,0,0,1-.085.043m.213-.213c.085,0,.128-.043.213-.086.043-.042.085-.042.085-.085H93.22v-.128h.085v-.085c0,.043-.042.043-.085.085s-.085.085-.085.128Zm.128-.171h.085v.085c-.042-.042-.085-.042-.085-.085m.3.854c0-.086.042-.128.042-.171a1.1,1.1,0,0,0,.3-.47.85.85,0,0,0,.342-.427c.171-.128.3-.342.512-.427-.085.3-.342.47-.469.683s-.385.384-.512.64a.431.431,0,0,1-.213.171m0-1.323a.15.15,0,0,1,.085.043v-.128a.092.092,0,0,1-.085.085m.128-.085h.085v-.085c-.043.042-.085.042-.085.085m.3-.427h.086c0-.042.042-.042.042-.085h.086a2.606,2.606,0,0,1,.085-.3.431.431,0,0,0-.171.3Zm.427-.555a.131.131,0,0,0,.085.043c0-.043.043-.085.043-.128H94.5V95.6l-.085.085c-.043.043-.086.085-.128.085m.213-.213a.36.36,0,0,0,.3-.171h.042c0-.043.043-.085.086-.128s.085-.043.085-.086h-.085v-.085c.042,0,.085.043.128.085a3.618,3.618,0,0,1,.3-.427c.043-.043.086-.086.086-.128h-.086V94.53h.128v.085l.086-.085h-.086V94.4h.086v.085a.092.092,0,0,0,.085-.085h-.085v-.085c.042,0,.085.043.128.085l.3-.427c.042-.042.085-.042.085-.085h-.085v-.128h.128v.086c.043,0,.043-.043.085-.086s.086-.085.128-.085h-.128v-.128h.128v-.085l-.128.085c-.042.042-.042.085-.085.128l-.128.085c-.043.043-.043.086-.085.128a.584.584,0,0,0-.341.427l-.086.085-.128.128-.085.085a.806.806,0,0,0-.341.427c-.043.042-.086.085-.086.128l-.128.086a1.3,1.3,0,0,0-.213.3m.128,1.109a.653.653,0,0,1,.3-.427.723.723,0,0,1-.3.427m.213-1.28-.128-.128h.128Zm0-.213h.085v.085h-.085Zm.64.427a1.033,1.033,0,0,1-.427.512.829.829,0,0,1,.427-.512m-.128-.854c-.042-.043-.085-.086-.085-.128h.085Zm.768.085a1.882,1.882,0,0,1-.64.768.384.384,0,0,1,.043-.213c.213-.128.341-.427.6-.555m-.213-.939h.085v.085c-.043-.042-.085-.042-.085-.085m.213-.213h.085v.085h-.085Zm.726.3a.36.36,0,0,1-.085.256,2.807,2.807,0,0,1-.64.6.257.257,0,0,1,.043-.171c.256-.213.384-.512.683-.683m-.512-.555a1.166,1.166,0,0,0,.512-.384l-.085-.128h.085v.086c.043,0,.085-.043.128-.086s.043-.085.086-.085h-.086v-.128h.086v.085c.042,0,.085-.043.128-.085s.042-.086.085-.086H97.19v-.128h.085v.085c.043,0,.085-.043.128-.085s.043-.086.085-.086H97.4v-.128h.085v.085c.043,0,.086-.042.128-.085a22.264,22.264,0,0,1,2.006-2.006.15.15,0,0,0-.043-.085.042.042,0,0,1,.043-.042v.085c.042,0,.085-.043.128-.085s.043-.085.085-.085h-.085v.085h-.128c.042-.043.042-.043.042-.085.042,0,.042,0,.085-.043V89.92h.085v.085c.043,0,.086-.043.128-.085s.043-.085.086-.085h-.086v.085h-.128c.043-.043.043-.043.043-.085a.131.131,0,0,0,.085-.043v-.085h.086v.085c.042,0,.085-.042.128-.085.512-.469,1.067-.939,1.579-1.366V88.3c.043,0,.085-.042.128-.085a1.26,1.26,0,0,0,.427-.512c.042,0,.085,0,.085-.042v-.085l-.085.085a1.145,1.145,0,0,0-.555.427l-.128.128a1.073,1.073,0,0,0-.3.171c-.384.384-.768.64-1.152,1.024a.915.915,0,0,0-.128.213.092.092,0,0,0-.086.085c-.042.043-.085.085-.128.085-.042.043-.085.085-.085.128-.043,0-.085.042-.128.085l-.128.128a.9.9,0,0,0-.256.171L97.7,91.841a.932.932,0,0,0-.213.342l-.085.085-.128.128-.085.086-.128.128-.086.086-.128.128-.085.085a1,1,0,0,0-.427.512m.512-.6h.128v.085h-.128Zm.982.085a.645.645,0,0,1-.171.342,3.3,3.3,0,0,1-.811.725.255.255,0,0,0,.043-.171c.042-.043.085-.085.085-.128a4.239,4.239,0,0,0,.47-.427,1.482,1.482,0,0,1,.384-.342m-.768-.3h.128v.085h-.128Zm.213-.213H97.4v.085h-.128Zm.213-.128v-.085c.043,0,.086.042.128.085Zm.6,7.6a7.3,7.3,0,0,1,.811-1.494.727.727,0,0,1,.043-.3c.171-.213.213-.469.384-.683.042-.042.042-.128.085-.213v.213a.941.941,0,0,0,.128-.213l.085-.213c.042-.085.085-.128.128-.213a2.589,2.589,0,0,0,.213-.512.324.324,0,0,0,.086-.213.572.572,0,0,0,.128-.213c.042-.085.085-.128.085-.213a1.705,1.705,0,0,0,.427-.982c.128-.043.128-.128.128-.213a1.21,1.21,0,0,0,.3-.725c.085-.086.128-.128.128-.213.043-.085.085-.128.085-.213h-.085v-.3c.043,0,.085-.043.128-.043v.3a.916.916,0,0,0,.171-.512h-.085a.328.328,0,0,0,.085-.213.386.386,0,0,1,.042.213,124.469,124.469,0,0,0,.171-.427h-.085v-.3h.128v.3a1.213,1.213,0,0,0,.17-.512h-.085a.71.71,0,0,0,.085-.213.255.255,0,0,0,.043.171.327.327,0,0,1,.085-.171h-.128V91.2a2.276,2.276,0,0,0-.341.725,4.05,4.05,0,0,0-.427.982c-.042.128-.17.256-.213.384a32.836,32.836,0,0,1-2.049,4.482c-.043.085-.043.171-.086.256l-.128.213a18.761,18.761,0,0,0-.9,1.878l-.128.341a1.792,1.792,0,0,0,.384-.6m-.171-7.043a.436.436,0,0,1,.213-.256.27.27,0,0,1-.213.256m.854,7.512a.831.831,0,0,0-.213.385,2.119,2.119,0,0,0-.427.811,1.174,1.174,0,0,0,.427-.811.409.409,0,0,0,.213-.385m-.512-7.853a.255.255,0,0,1,.043-.171l.085-.086c.043-.042.128-.085.128-.128s.043-.086.085-.128a6.5,6.5,0,0,0,.939-.939l.128-.128c.042-.043.085-.043.128-.085l.085-.128c.043,0,.085-.043.128-.085s.043-.128.085-.128.085-.042.128-.085c.043,0,.086-.043.171-.043a.932.932,0,0,1-.213.342l-1.622,1.579c-.086.085-.171.213-.3.213m6.829-16.56-.256-.128a2.759,2.759,0,0,0-1.664-.085,5.445,5.445,0,0,0-2.519,1.024,2.64,2.64,0,0,0-.768.769.158.158,0,0,0-.128.042.091.091,0,0,0-.085.085h-.042a3.744,3.744,0,0,0-.854,1.28v.128a4.217,4.217,0,0,0-.213.683,3.448,3.448,0,0,0-.043,1.323c.085.427.213.47.683.47.042,0,.085-.043.128-.043a1.828,1.828,0,0,0,1.024-.427,15.528,15.528,0,0,0,1.323-1.024,21.89,21.89,0,0,0,2.39-2.476,6.37,6.37,0,0,0,.982-1.2l.085-.213c.043-.086.043-.171-.042-.213M98.6,77.287c.128-.128.256-.213.3-.385a.545.545,0,0,0-.3.385m2.092-.982A3.249,3.249,0,0,0,99.2,77.628l-.086.213a.5.5,0,0,0-.213.3.763.763,0,0,0,.213-.3c.086-.042.213-.085.256-.171a2.682,2.682,0,0,1,1.11-1.067,1.128,1.128,0,0,0,.256-.213.385.385,0,0,0,.256-.256.681.681,0,0,0-.3.171M99.153,99.694a2.977,2.977,0,0,1,.213-.555l-.341.512a.72.72,0,0,0-.128.427.768.768,0,0,0,.256-.384m-.171-22.92h.128c.171.043.3-.085.427-.213.042-.043.042-.085.085-.085h-.085v.085h-.213v-.085c.085,0,.128-.042.213-.042a.092.092,0,0,0,.085-.086v.086c.042,0,.085-.043.128-.086s.043-.085.085-.085h-.085v-.085a.148.148,0,0,1,.085.042.919.919,0,0,0,.214-.171.721.721,0,0,0,.085-.213.888.888,0,0,0-.427.256.679.679,0,0,0-.384.384.092.092,0,0,0-.086.085h.086l-.128.128-.086.085v-.085c-.042,0-.085.042-.128.085m.128-.128H99.2v-.085c-.043.043-.043.085-.086.085m.427,20.317v.213h-.128a.945.945,0,0,0,.128-.213m.085-.213v.213h-.085c.042-.042.042-.128.085-.213m0-20.4c.042-.042.085-.085.128-.085v.085Zm.128,20.4h-.128a.08.08,0,0,1,.128,0m0-19.121v-.085h.085c-.042,0-.042.042-.085.085m.3,18.183v.213h-.086Zm0-6.1v-.085c.042,0,.085.042.128.085Zm.128,5.89v.213h-.128Zm.085,0h-.085c.042-.042.085-.042.085,0m.128-5.25a.351.351,0,0,1,.213-.213.272.272,0,0,1-.213.213m.3,4.055v.213c-.043,0-.043,0-.086-.043,0,.043,0,.043-.042.043Zm-.128.213h.042c0,.042,0,.042-.042,0m.554-1.152v.213c-.042,0-.042-.043-.085-.043h-.043Zm-.128.213v-.043c.043.043.043.043,0,.043m.128-.213a.929.929,0,0,1,.128-.213v.213Zm3.628-6.4a1.114,1.114,0,0,0-.3.726,3.135,3.135,0,0,0-.3.512c-.427.854-.812,1.836-1.2,2.732-.6,1.409-1.152,2.9-1.75,4.311a15.368,15.368,0,0,0,.726-1.451,50.222,50.222,0,0,0,2.134-4.908,4.906,4.906,0,0,0,.384-1.195,1.211,1.211,0,0,0,.3-.726m-3.2,5.421a.956.956,0,0,0,.128-.213v.213Zm.427-11.951.128-.128v.085a.092.092,0,0,0,.086-.085H102.1l.086-.085.128-.128v.085a.091.091,0,0,0,.085-.085h-.085c.042-.043.085-.043.085-.085a.148.148,0,0,1,.043.085c0-.043.042-.043.085-.085s.085-.085.085-.128h-.085V79.89h.085v-.128h.128v.085a.091.091,0,0,0,.085-.085h-.085v-.086h.085v-.128c-.042.042-.085.042-.085.128-.042,0-.085.043-.128.086s-.042.085-.085.085a4.594,4.594,0,0,0-.939.854c.128,0,.256-.128.384-.171m-.213,7.682V88.3a.148.148,0,0,1-.043-.085Zm.128,0h-.128c.043-.042.043-.042.043-.085,0,.043.042.043.085.085m.3,2.774v-.3c-.086.171-.214.3-.171.512.043-.085.128-.128.171-.213l.042.3a.608.608,0,0,1,.086-.256c-.043,0-.086-.042-.128-.042m.128-10.67h-.086V80.4c0-.043.043-.043.086-.085m.085-.213.128-.128V80.1Zm1.025,0-.939.939-.085.086a2.158,2.158,0,0,0,1.025-1.025m-.982,7.469a.092.092,0,0,0,.085.085.68.68,0,0,0,.3-.384.543.543,0,0,0-.384.3m0,2.646c.042-.085.042-.171.085-.256a.607.607,0,0,0-.085.256m.213-10.329v.085c0-.042.043-.042.085-.085Zm.3-.341v-.086h.086v-.128c0,.043-.043.085-.086.128s-.085.043-.085.086h.085v.085a.092.092,0,0,0,.086-.085Zm-.085.128v.086c0-.043.043-.043.085-.086Zm.427-.427c0-.043.042-.085.085-.128.043-.085.043-.213.085-.3a.971.971,0,0,0-.3.427c-.043.042-.086.042-.086.085h.086v.085a.092.092,0,0,0,.085-.085h-.085V79.25h.128v.085c0-.043.042-.043.085-.085Zm-.214.213v.086c0-.043.043-.043.086-.086Zm.3,11.738h.085c0,.042-.042.042-.085,0m.128-.213a.15.15,0,0,0,.085.042c-.042.043-.042.128-.085.171Zm.171-.512v-.042l.042.042Zm.554-10.841v-.085h.086a.092.092,0,0,1-.086.085m.128-.085v-.086h.086a.092.092,0,0,0-.086.086m.6,8.152h-.085v-.042c.043,0,.085,0,.085.042m0-.256H105v.043a.042.042,0,0,0-.043-.043m0,.256.043-.042V87.7Zm.043-.042v-.171h.128Zm.128-.213v.043c-.042-.043-.042-.043,0-.043m1.11-2.006c-.042.042-.128.042-.171.085a.222.222,0,0,0,.171-.085m.427-.3a.432.432,0,0,0-.3.171c.128-.043.256-.085.3-.171m.341-.213a.36.36,0,0,0-.3.171.431.431,0,0,0,.3-.171m.512-1.11a1.713,1.713,0,0,0-.683.555,1,1,0,0,0,.683-.555m-.213.9a.171.171,0,0,0-.171.085c.085-.042.128-.042.171-.085m-.043-2.561-.043-.042h.043Zm.811,2.006a.491.491,0,0,0-.3.213.769.769,0,0,0,.3-.213m.3-.213-.128.085c.043,0,.085-.043.128-.085m.769-1.152a.434.434,0,0,0-.3.171.691.691,0,0,0,.3-.171m.512.3c-.043.043-.085.043-.171.086a.222.222,0,0,0,.171-.086m.981-.64c-.128,0-.213.085-.3.213.128-.043.256-.086.3-.213" transform="translate(-48.237 -39.087)" fill="#845252"/>
    <path id="Path_28422" data-name="Path 28422" d="M169.982,82h.213a.514.514,0,0,1-.213.213,6.36,6.36,0,0,1-.555.342,28.07,28.07,0,0,0-2.476,1.366l-.555.3c-.811.512-1.665.982-2.476,1.494-.512.3-.982.555-1.494.811a6.436,6.436,0,0,1-.854.256,1.479,1.479,0,0,1-1.665-.555,3.234,3.234,0,0,1-.341-.47,1.188,1.188,0,0,1-.213-1.067,6.3,6.3,0,0,1,.555-1.494l.256-.683c.043-.128-.042-.213-.213-.171a3.188,3.188,0,0,0-.469.171c-.64.3-1.28.64-1.921.982a9.547,9.547,0,0,1-.982.64.9.9,0,0,0-.213.171,6.035,6.035,0,0,0-.64.469h.043c-.683.555-1.366,1.11-2.092,1.622a2.087,2.087,0,0,1-.854.469,1.244,1.244,0,0,1-1.409-.342l-.213-.256a.871.871,0,0,1-.256-.982,6.462,6.462,0,0,1,.64-1.579c.256-.427.469-.811.683-1.238a28.683,28.683,0,0,1,1.878-2.774c.512-.683,1.11-1.366,1.707-2.049.256-.256.554-.512.854-.768.128-.085.213-.128.341.042.043.085.214,0,.214.171a.769.769,0,0,1-.043.427l-.256.342c-.6.9-1.195,1.707-1.793,2.6a1.447,1.447,0,0,0-.256.512,8.512,8.512,0,0,0-1.067,1.665.321.321,0,0,1-.043.171c-.042.085-.085.085-.128.171v.128c-.042.085-.128.171-.17.256a.265.265,0,0,0-.086.3.881.881,0,0,0-.171.256.363.363,0,0,0-.213.469.156.156,0,0,0,.213.085c.171-.085.3-.256.512-.384a16.844,16.844,0,0,1,3.03-2.134,15.083,15.083,0,0,1,2.049-.982,3.133,3.133,0,0,1,.811-.3,1.408,1.408,0,0,1,1.409.3,4.511,4.511,0,0,1,.726.854,1.2,1.2,0,0,1,.085.854,4.712,4.712,0,0,1-.384,1.323c-.128.3-.213.64-.384.982a.155.155,0,0,0,.043.128h.171c.128-.042.256-.128.384-.171.64-.341,1.28-.64,1.835-.939,1.11-.555,2.22-1.067,3.244-1.665.427-.213.9-.384,1.28-.555.213-.128.427-.213.6-.3a4,4,0,0,0,.427-.213.854.854,0,0,1,1.024.3c.085.042.085.128.042.213-.042.042-.17.085-.17.213M153.25,85.247a1.04,1.04,0,0,0,.469-.384h.128c.043,0,.043.042.043.085a.091.091,0,0,1,.085-.085l.085-.086h-.085l.085-.128a.156.156,0,0,0,.043.128c0-.042.085-.085.128-.128h-.171c.043-.086.171-.128.3-.171v.085c.042,0,.042-.042.042-.085h-.042a.133.133,0,0,0,.042-.085c.043-.042.086-.085.128-.085v.085h-.085v.085c0-.043.043-.043.085-.085a.543.543,0,0,0,.256-.171h-.171a.32.32,0,0,1,.3-.213v.085a.131.131,0,0,0,.043-.085h-.043c.043,0,.043-.043.086-.085a.511.511,0,0,1,.213-.213c.043-.042.085-.042.171-.085.085-.085.128-.171.256-.171v.085l.085-.085h-.085a.092.092,0,0,0,.085-.086l.128-.171h.171c.042-.042.042-.128.085-.213a679.275,679.275,0,0,1,.512-.342.307.307,0,0,0-.256.171,2148.709,2148.709,0,0,0-.6.342,2.076,2.076,0,0,0-.6.469,6.826,6.826,0,0,0-1.494,1.2.936.936,0,0,0-.427.384l-.128.128c.042-.042.085-.085.128-.085m4.14-2.049a.537.537,0,0,0-.47.256.461.461,0,0,0-.3.128,25.667,25.667,0,0,0-2.732,2.092c-.043.043-.043.128-.086.213a.364.364,0,0,0-.256.128.368.368,0,0,0,.256-.128,1.625,1.625,0,0,0,.6-.469c.811-.6,1.579-1.28,2.433-1.836l.085-.128a.649.649,0,0,0,.47-.256m-3.543,1.665c.043-.043.085-.043.128-.086v.086Zm1.921-1.494v.086l.128-.086Zm8.579,1.665a.389.389,0,0,0-.256.171.912.912,0,0,0,.256-.171m.427-.256a.9.9,0,0,0-.255.171c-.043.043-.128.043-.128.086l.128-.086a.388.388,0,0,0,.255-.171m.171-.128c0,.042-.085.085-.128.085.085,0,.128,0,.128-.085m.512-.256a.392.392,0,0,0-.256.171c.085-.042.213-.042.256-.171m.171-.085a.184.184,0,0,0-.128.043.21.21,0,0,0,.128-.043m.171-.939-.128.086c.043,0,.086,0,.128-.086m0,.854c-.042,0-.085.042-.128.085Zm.47-.3c-.171.085-.342.085-.427.3a1.533,1.533,0,0,0,.427-.3m.213-.085c-.085,0-.171.042-.171.085.043,0,.085-.043.171-.085m.128-.086a.21.21,0,0,0-.128.043.187.187,0,0,0,.128-.043m.512-.3c-.043.042-.128.042-.171.085a.224.224,0,0,0,.171-.085m.171-.043c-.042,0-.128,0-.128.043a.433.433,0,0,1,.128-.043m.854-.512a.222.222,0,0,0-.171.086.7.7,0,0,0-.469.3c.171-.086.341-.086.469-.3.043-.043.085-.043.171-.086m.811-.469c-.043,0-.043.043-.085.043l-.043.042c0,.043.043.043.085,0,0-.042,0-.042.043-.085" transform="translate(-84.879 -43.206)" fill="#845252"/>
    <path id="Path_28423" data-name="Path 28423" d="M281.975,1.151a.2.2,0,0,1-.171.214,6.369,6.369,0,0,1-.811.128c-1.792.213-3.585.384-5.378.555l-4.054.384L269,2.688l-4.225.384c-1.11.128-2.22.213-3.329.342l-2.774.256c-1.963.171-3.969.341-5.933.512l-3.33.256c-1.707.128-3.414.3-5.122.427-1.323.085-2.646.213-3.969.3-1.707.128-3.414.256-5.079.341a1.6,1.6,0,0,0-1.067.427c-.085-.085-.128-.128-.214,0a2.01,2.01,0,0,0-.64.811l.427-.384.427-.427c-.128.213-.256.427-.384.6a38.854,38.854,0,0,0-2.39,3.5c-.341.555-.683,1.11-1.024,1.707a2.824,2.824,0,0,0-.256.512,2.57,2.57,0,0,0-.385.555c-.469.768-.9,1.579-1.366,2.347l-.213.6c-.085.086-.171.128-.214.213-.384.769-.811,1.494-1.152,2.263v.128l-.768,1.28c-.469,1.025-.982,2.006-1.451,3.03a5.4,5.4,0,0,0-.256.768,2.436,2.436,0,0,0-.341.555c-.683,1.579-1.409,3.116-2.091,4.695-.086.256-.128.512-.214.725a1.863,1.863,0,0,0-.384.9,4.312,4.312,0,0,0-.512,1.11c-.427,1.024-.811,2.049-1.195,3.116l-.128.555v.128l-.043-.042c0-.043.043-.086.043-.128l-.256.512c-.256.64-.469,1.281-.726,1.921L217.055,41.4a7.106,7.106,0,0,0-.256.9,5.953,5.953,0,0,0-.341.768c-.256.6-.427,1.238-.64,1.835-.085.213-.085.427-.171.64h.043a.906.906,0,0,0-.171.256,30.163,30.163,0,0,0-1.024,3.159,4.606,4.606,0,0,0-.342.811l-.9,2.732c-.3.939-.6,1.878-.9,2.859l-.385,1.281a4.943,4.943,0,0,0-.3,1.323,4.267,4.267,0,0,0-.427,1.238c-.213.725-.384,1.451-.555,2.176-.085.512-.128,1.025-.256,1.537a2.435,2.435,0,0,0,.171,1.366,1.4,1.4,0,0,0,.128.256.511.511,0,0,1-.384.342.739.739,0,0,1-.427.042,4,4,0,0,1-.64-.256.822.822,0,0,1-.469-.64,3.182,3.182,0,0,1-.043-.9,14.824,14.824,0,0,1,.256-1.92c.512-2.39,1.238-4.823,1.964-7.213.213-.683.469-1.366.64-2.006.555-1.92,1.238-3.841,1.836-5.762l1.153-3.414c.427-1.28.939-2.6,1.408-3.927.042-.213.128-.427.171-.6.555-1.409,1.067-2.817,1.579-4.226l.9-2.262c.427-1.11.9-2.177,1.323-3.287.3-.64.555-1.28.811-1.92l1.11-2.39c.725-1.579,1.494-3.116,2.262-4.695.6-1.2,1.238-2.433,1.921-3.628.9-1.579,1.792-3.2,2.774-4.78.469-.811,1.024-1.579,1.536-2.347.6-.9,1.28-1.75,1.963-2.6l.213-.256V5.718c-.086,0-.171-.042-.256-.042-.384,0-.769.042-1.11.042-1.323.085-2.6.128-3.884.213-1.366.042-2.689.128-4.055.171-.64.043-1.28.043-1.92.043-2.817.128-5.592.128-8.409.128-.854,0-1.707,0-2.518-.042a33.661,33.661,0,0,1-4.695-.427,4.883,4.883,0,0,1-1.11-.384,1.024,1.024,0,0,1-.64-1.11c.128,0,.213-.042.3,0a16.669,16.669,0,0,0,2.6.342c2.86.171,5.719.128,8.622.085q3.393-.064,6.786-.256c1.835-.043,3.628-.171,5.421-.256a2.087,2.087,0,0,1,.512-.042c.982-.085,1.963-.128,2.945-.213,1.323-.086,2.6-.128,3.884-.213.725-.043,1.494-.128,2.219-.171.214,0,.427-.043.64-.043l3.244-.256c1.579-.128,3.159-.213,4.738-.342.982-.085,2.006-.171,2.987-.213l1.281-.128c1.2-.128,2.39-.213,3.585-.3L258.5,1.92c.64-.043,1.28-.128,1.921-.171.64-.085,1.28-.128,1.878-.171l1.835-.128c.683-.085,1.323-.128,2.006-.213,1.153-.086,2.305-.213,3.458-.3L271.432.81c1.409-.128,2.86-.256,4.268-.384l4.524-.384A8.177,8.177,0,0,1,281.248,0a.406.406,0,0,1,.427.256c0,.086.085.128.128.214.128.256.128.256,0,.6.085.043.128.085.171.085m-72,58.175a1.807,1.807,0,0,1-.086.469c.128-.171.214-.3.086-.469m16.646-41.4-.3.384c-.213.384-.384.769-.6,1.2-1.152,2.305-2.305,4.653-3.287,7-.811,1.921-1.622,3.8-2.39,5.719-.726,1.792-1.409,3.628-2.092,5.463-.854,2.347-1.707,4.737-2.518,7.085l-1.75,5.207-1.665,5.25c-.512,1.622-.981,3.286-1.408,4.908a12.068,12.068,0,0,0-.342,2.3c.171-.811.384-1.622.6-2.433.341-1.28.682-2.561,1.067-3.841.427-1.536.939-3.03,1.451-4.567.47-1.451.939-2.945,1.452-4.4.64-1.836,1.238-3.671,1.878-5.506l1.921-5.25c.939-2.6,1.964-5.121,2.988-7.682.9-2.134,1.835-4.226,2.817-6.317.64-1.323,1.323-2.6,1.921-3.927a3.592,3.592,0,0,0,.256-.6m-16.347,40.59c.043-.128.086-.171.086-.256l-.043-.042c0,.042-.043.042-.043.085Zm.214-.085a.132.132,0,0,0,.042-.085.042.042,0,0,0-.042.043Zm.042-.982a.15.15,0,0,0,.085.043c0-.085.042-.171.042-.256,0-.042-.042-.042-.042-.085a.148.148,0,0,1-.042.085.464.464,0,0,0-.043.213m.256-.128h.043v-.043Zm.043-.939a2.416,2.416,0,0,0,.341-.384l.128-1.2a1.273,1.273,0,0,0,.171-.341,7.4,7.4,0,0,0,.3-.9c.043-.128.128-.043.214-.085.042-.342.042-.726.085-1.067-.043.042-.085.085-.085.128-.256.768-.469,1.536-.683,2.262a6.751,6.751,0,0,0-.469,1.579m1.665-5.506a8.2,8.2,0,0,0-.384,1.366,2.478,2.478,0,0,0,.171-.341,1.26,1.26,0,0,0,.171-.342c.043-.171.085-.3.128-.469.214,0,.171-.128.171-.213a3.082,3.082,0,0,1,.469-1.579.541.541,0,0,0-.043.256h.085a.545.545,0,0,1-.042-.256,1.6,1.6,0,0,1,.213-.768v-.042a1.283,1.283,0,0,0,.171-.427c.213,0,.128-.213.213-.341a.607.607,0,0,0,.085-.256h-.042c0,.085-.043.171-.043.256a1.043,1.043,0,0,1,0-.512,7.084,7.084,0,0,0,.342-.854c0,.085-.042.213.043.256a.538.538,0,0,0-.043-.256,1.34,1.34,0,0,1,.256-.683l-.042.171h.085a.256.256,0,0,1-.043-.171,1.418,1.418,0,0,1,.214-.683v.256h.042c0-.085-.042-.171-.042-.256l.128-.768a1.843,1.843,0,0,1,.256-.3c.043,0,.043,0,.128.042.042-.171.042-.3.085-.427.085-.171.128-.384.213-.555a1.506,1.506,0,0,0,.171-.726c0-.085,0-.256.042-.256.256-.171.171-.341.214-.555a2.477,2.477,0,0,1,.384-1.067.539.539,0,0,1-.043.256h.085a.545.545,0,0,1-.042-.256l.085-.341c.256,0,.171-.213.213-.3a3.876,3.876,0,0,0,.469-1.28.507.507,0,0,0,.128-.469V37.9a.042.042,0,0,1-.042.042V37.9c.042-.128.085-.213.128-.342.213,0,.171-.213.256-.341,0-.043.042-.086.085-.171h-.043a.323.323,0,0,0-.042.171.7.7,0,0,1,0-.512l.213-.725c.128-.3.256-.555.384-.854l.341-.726v.128c.043,0,.043,0,.085-.042V34.4a.711.711,0,0,0,.128-.555,3.364,3.364,0,0,1,.214-.6v.128a.042.042,0,0,0,.042.043v-.043l.086-.085a.156.156,0,0,1-.128-.043,2.348,2.348,0,0,1,.385-.982v-.042c.085-.213.128-.47.213-.683.085-.3.214-.555.3-.854a3.474,3.474,0,0,0,.427-1.024,2.113,2.113,0,0,0-.427,1.024,4.648,4.648,0,0,1-.342.64l-.256.683-1.28,3.329a3.524,3.524,0,0,0-.171.64c-.213.469-.427.939-.6,1.408-.64,1.75-1.238,3.457-1.836,5.207a11.922,11.922,0,0,0-.512,1.622c-.043.128-.128.256-.171.385-.256.683-.512,1.366-.726,2.091-.47,1.409-.939,2.774-1.366,4.183m-.043.726v.213h.043a.384.384,0,0,0-.043-.213m.3,2.988h.042l-.042.042Zm.17-4.183.043.043v-.043Zm.555-1.878a.384.384,0,0,0-.043.213h.043Zm1.067.512c-.042-.043-.042-.043-.042-.085a.133.133,0,0,0,.042.085m.3-4.439v.042l.043-.042v-.043a.042.042,0,0,0-.043.043m.469-1.622a2.51,2.51,0,0,1-.085.555.536.536,0,0,1,.085-.555m.128,0h-.128a2.618,2.618,0,0,0,.085-.3c.128.085.043.213.043.3m.555-1.707.042.043v-.043Zm.6-1.835a.723.723,0,0,1-.043.3V39.48Zm.171-.725.128-.256c0,.085-.042.171-.042.3-.043-.042-.043-.042-.086-.042m.128-.256a4.509,4.509,0,0,0,.213-.512c.042,0,.042,0,.042.043l-.128.469Zm1.28-3.2h.043v-.043Zm.256-.854a2.15,2.15,0,0,1,.213-.555l-.128.555Zm2.347-6.188c0,.042,0,.042-.042.085.042,0,.042-.043.085-.085v-.043Zm.256-.683c.043-.043.043-.043.043-.086l-.043.043Zm.768-1.409c.043-.128.043-.256.086-.384l-.214.384Zm.982-2.476a.042.042,0,0,0,.043-.042Zm5.037-7.981a3.727,3.727,0,0,0-.512.9,1.9,1.9,0,0,0,.512-.9m.512-.9a.778.778,0,0,0-.342.555,1.505,1.505,0,0,0,.342-.555m.64-1.28-.171.341a5.572,5.572,0,0,1-.256.512,1.161,1.161,0,0,0,.256-.512c.085-.085.213-.171.171-.341m4.054-6.274a1.611,1.611,0,0,0-.427.512,1,1,0,0,0,.427-.512m.171-1.28.043-.043h-.043Z" transform="translate(-114.753 0.001)" fill="#845252"/>
    <path id="Path_28424" data-name="Path 28424" d="M265.105,55.837c-.043,0-.085.043-.128.085-.427.213-.811.427-1.238.683-.726.555-1.58,1.067-2.347,1.579-1.366.982-2.732,2.006-4.055,3.03a23.524,23.524,0,0,1-2.262,1.537,1.79,1.79,0,0,1-.939.341,1.441,1.441,0,0,1-1.238-.427,3.637,3.637,0,0,1-.427-.341,1.719,1.719,0,0,1-.6-.982,5.5,5.5,0,0,1,.085-1.878c.128-.9.3-1.878.384-2.774a.587.587,0,0,0,0-.385c0-.085-.043-.128-.085-.128a.614.614,0,0,0-.3.085l-.726.469c-.555.427-1.109.811-1.622,1.28A30.12,30.12,0,0,0,246.41,61c-.341.384-.683.768-1.024,1.109a1.329,1.329,0,0,1-.384.3,1.074,1.074,0,0,1-.811-.256c-.128-.171-.341-.213-.469-.342-.256-.128-.341-.341-.256-.469.213-.6.385-1.2.64-1.75a7.534,7.534,0,0,0,.512-1.366c.085-.3.256-.555.341-.811l.854-2.219c.171-.427.342-.811.512-1.238a.6.6,0,0,0,.085-.256,4.987,4.987,0,0,1,.427-1.11c.512-1.28,1.025-2.476,1.579-3.756.512-1.109.982-2.176,1.452-3.286.469-1.067.982-2.091,1.451-3.159.341-.64.6-1.28.939-1.921.213-.512.512-1.067.768-1.622l1.536-2.945c.6-1.067,1.152-2.177,1.707-3.244a21.561,21.561,0,0,1,1.11-1.878,1.97,1.97,0,0,1,.256-.384.272.272,0,0,1,.256,0h.128a.268.268,0,0,1,.171.341c-.213.555-.384,1.152-.64,1.665-.213.555-.384,1.11-.64,1.622a22.251,22.251,0,0,1-1.024,2.3c-.171.384-.342.811-.555,1.238a14.647,14.647,0,0,0-.811,1.878V39.4a2.812,2.812,0,0,0-.512,1.152.8.8,0,0,0-.171.384c0,.043-.043.085-.085.128-.086.042-.086.171-.128.3a8.305,8.305,0,0,0-.811,1.878.575.575,0,0,0-.213.384h.043a.774.774,0,0,0-.256.6.541.541,0,0,0-.171.385c0,.042-.043.042-.085.085a5.814,5.814,0,0,0-.6,1.408l-.128.3a6.1,6.1,0,0,0-.6,1.409.388.388,0,0,0-.128.3.642.642,0,0,0-.042.3l-.086.085a1.075,1.075,0,0,0-.256.6.389.389,0,0,0-.128.3c.043,0,.085-.043.128,0h-.128v.042c-.085.043-.085.128-.085.213,0,.043-.043.085-.043.128-.128.085-.128.213-.171.341h.042c-.128.043-.128.171-.128.3a.85.85,0,0,0-.3.683.389.389,0,0,0-.128.3l-.128.3h.043a.3.3,0,0,0-.128.256.092.092,0,0,1-.086.085,1.137,1.137,0,0,0-.128.512c0,.042-.042.085-.042.128a1.579,1.579,0,0,0-.3.6c-.085.085-.085.213-.128.3h.043a.386.386,0,0,0-.128.3.405.405,0,0,0-.086.3c-.085.085-.085.171-.128.3h.043a.092.092,0,0,0-.085.085c-.128.086-.128.171-.171.3a.192.192,0,0,0,0,.213c-.128.042-.128.128-.128.256a.157.157,0,0,1-.042.128l-.128.342a1.384,1.384,0,0,0-.128.256c-.085.085-.085.213-.128.3a.614.614,0,0,0-.086.3c-.042.043-.042.043-.042.085a.439.439,0,0,1-.043.171.354.354,0,0,0-.128.342h.128c-.043.042-.085.042-.085.085a.322.322,0,0,0-.043.171l-.085.128a.157.157,0,0,0-.043-.128c0,.043-.043.085-.085.128v.213h.085c.043.086.128.128.171.086a.551.551,0,0,0,.256-.171c.811-.64,1.579-1.323,2.389-1.963.385-.3.854-.555,1.238-.811a1.442,1.442,0,0,1,.64-.256.882.882,0,0,1,.726.086,4.2,4.2,0,0,1,1.28.854,1.577,1.577,0,0,1,.47.811,2.739,2.739,0,0,1-.043,1.323,3.819,3.819,0,0,0-.085.768,1.058,1.058,0,0,1-.043.342h-.043a.514.514,0,0,1,.043.427l-.043.171a1.84,1.84,0,0,1-.042.213.8.8,0,0,0-.128.64c.042.171-.043.3-.086.469.128.128,0,.3.043.469a.163.163,0,0,0,.213.128c.214,0,.385-.171.6-.3,1.067-.768,2.176-1.451,3.286-2.219.512-.342,1.025-.726,1.579-1.067.6-.427,1.28-.854,1.921-1.238.6-.384,1.238-.811,1.878-1.2a2.487,2.487,0,0,1,.768-.341.853.853,0,0,1,.555.085.787.787,0,0,1,.6.384h-.043c.085.128.128.256.043.3m-19.079.811c.042.043.042.128.085.213v-.213c0-.043.042-.085.042-.128h-.042v-.171c.042.043.042.085.085.171a.255.255,0,0,0,.043-.171c0-.043.042-.043.042-.085H246.2a1.835,1.835,0,0,1,.043-.213.257.257,0,0,1,.042.171.255.255,0,0,0,.043-.171h-.085c.042-.042.042-.085.085-.128,0,.043,0,.086.043.086a.15.15,0,0,0,.042-.086.321.321,0,0,0,.043-.171l.085-.085h-.085a.319.319,0,0,1,.043-.213l.042.171c0-.042.043-.128.043-.171H246.5c0-.043.042-.085.042-.128l-.042-.171c.042,0,.085-.043.17-.085a.387.387,0,0,1-.042-.213l.128-.128c0-.042-.043-.085-.043-.128a.148.148,0,0,0,.085-.043l.086.171c.085-.085.128-.128.085-.256h-.085v-.213l.128-.128c0,.085.042.128.042.213a.383.383,0,0,0,.043-.213h-.085c-.043-.043-.043-.086-.086-.171.086-.042.128-.085.213-.085-.043-.085-.043-.171-.086-.213-.085.043-.085.171-.128.3a.3.3,0,0,0-.128.256.487.487,0,0,0-.128.342.325.325,0,0,0-.042.3.22.22,0,0,0-.128.3.616.616,0,0,0-.256.6,1.842,1.842,0,0,0-.384.982.388.388,0,0,0-.128.3.333.333,0,0,0-.128.3.456.456,0,0,0-.085.256.483.483,0,0,0-.128.342.865.865,0,0,0-.256.6.3.3,0,0,0-.128.256.8.8,0,0,0-.086.342,1.862,1.862,0,0,0-.341.64,1.014,1.014,0,0,0-.128.512c.213,0,.171-.256.3-.342a.041.041,0,0,0,.042-.042c.043.042.086.042.086,0a.256.256,0,0,0,.128-.256c.085-.086.085-.171.085-.342a.3.3,0,0,0,.128-.256.483.483,0,0,0,.128-.341.3.3,0,0,0,.128-.256.461.461,0,0,0,.085-.342c.086-.085.086-.128.086-.256h-.086v-.213c0-.043.043-.085.128-.128,0,.085.043.128.043.213,0-.085.043-.128.043-.213h-.086c-.042-.042-.042-.085-.085-.171.085-.043.128-.085.171-.085a.319.319,0,0,0-.043-.213.6.6,0,0,0,.171-.128v-.128Zm-1.2,3.073c0,.043.043.128.043.171h-.086Zm.128-.3a1.815,1.815,0,0,1,.043.213h-.086a.318.318,0,0,1,.043-.213m.085-.3c0,.042.043.085.043.171H245v-.128Zm.128-.3a1.86,1.86,0,0,1,.042.213h-.128v-.213Zm.085-.3.085.171h-.128a.158.158,0,0,0-.042-.128.15.15,0,0,0,.085-.042m.128-.3c.042.043.042.128.085.213h-.128a1.834,1.834,0,0,1,.043-.213m.128-.3a.257.257,0,0,1,.042.171h-.085a.157.157,0,0,0-.043-.128c.043,0,.086,0,.086-.042m.384-.683h-.086l.043.171Zm.128-.342h-.086a.384.384,0,0,0,.043.213.384.384,0,0,1,.043-.213m.085-.256h-.085l.085-.128Zm.256,1.707c.3-.64.469-1.28.768-1.92.256-.811.64-1.622.939-2.39.683-1.835,1.409-3.67,2.134-5.463.256-.512.427-1.024.64-1.536a2.169,2.169,0,0,0,.3-.726.619.619,0,0,0,.085-.3.463.463,0,0,0,.171-.384.386.386,0,0,0,.128-.3.221.221,0,0,0-.128.3c-.171.043-.213.171-.213.384-.085.043-.085.171-.085.256a1.48,1.48,0,0,0-.342.683,2.211,2.211,0,0,0-.256.555c-.64,1.494-1.238,2.945-1.836,4.4-.427,1.067-.854,2.177-1.323,3.287-.384,1.024-.768,2.049-1.2,3.116a1.006,1.006,0,0,0-.085.512c.213-.085.213-.3.3-.47m-.256-2.006.085-.085c0,.042,0,.042.043.085Zm.213-.427c-.043-.042-.043-.128-.085-.171h.128c0,.043.042.085.042.171Zm.256,4.4a.421.421,0,0,0-.3.3.674.674,0,0,0,.3-.3m-.128-4.653v.085h-.085c0-.042.042-.042.085-.085m.128-.341v.085a.091.091,0,0,0,.085-.085Zm.3,4.695a.316.316,0,0,0-.256.256.31.31,0,0,0,.256-.256m.042-2.39h.086c0,.042-.043.128-.043.171a.255.255,0,0,1-.043-.171m.043,1.2a.517.517,0,0,0,.213-.213.35.35,0,0,0-.213.213m.256.9a.288.288,0,0,0-.256.171.288.288,0,0,0,.256-.171m.128-6.786a1.1,1.1,0,0,0-.3.683c.086,0,.128-.043.214-.086v.213c0-.085.042-.128.042-.213.043,0,.043-.042.086-.042h-.086v.042h-.042v-.042a.466.466,0,0,0,.042-.213c.043-.042.086-.085.086-.128a.133.133,0,0,1,.042.086c.043,0,.043-.043.085-.086.085-.085.128-.171.085-.256h-.085a.388.388,0,0,0-.042-.213.6.6,0,0,0,.171-.128.386.386,0,0,1,.042.213.384.384,0,0,0,.043-.213h-.085c-.043-.086-.043-.128-.086-.171a.259.259,0,0,0-.128.256.282.282,0,0,0-.085.3m-.085,3.8h.042V56.9c-.042,0-.042-.085-.042-.171m.256,2.689c-.128.042-.213.085-.256.213.128-.043.213-.086.256-.213m-.171-2.689c-.043-.042-.043-.042-.043-.085h.128c-.042.043-.085.043-.085.085m.043-3.586a1.823,1.823,0,0,1-.043-.213h.085c.043.085.043.128.085.213Zm-.043.128a.257.257,0,0,0,.043.171l.042-.171Zm.256-.9a.223.223,0,0,1,.171-.085c0,.043.042.085.042.128v-.128h-.042c-.043-.085-.043-.171-.086-.213a.263.263,0,0,0-.085.3m.213,6.786a.235.235,0,0,0-.213.128.929.929,0,0,0,.213-.128m-.042-3.372h-.128a.156.156,0,0,1,.128-.043Zm.085-4.14a.222.222,0,0,0,.17-.085,1.871,1.871,0,0,1-.042-.213.322.322,0,0,1,.171-.085c.043.042.043.128.086.171a.257.257,0,0,1,.042-.171h-.128c0-.043-.042-.128-.042-.171a.369.369,0,0,0-.128.256.387.387,0,0,0-.128.3m.256,7.171A.422.422,0,0,0,247.9,59c.128,0,.171-.085.213-.171m0-7.768a.325.325,0,0,0,.171-.085.387.387,0,0,1-.042-.213l.128-.085.085-.086v.086c.043,0,.043-.043.085-.086h-.128a.47.47,0,0,0-.042-.213.37.37,0,0,0,.128-.256.258.258,0,0,0-.128.256c-.086.128-.171.256-.128.384-.128.085-.128.171-.128.3m.256,7.555a.35.35,0,0,0-.214.213.516.516,0,0,0,.214-.213m-.086-4.439c.043-.042.086-.085.086-.042s-.043.042-.086.042m.086-3.457a.434.434,0,0,1,.042.128.211.211,0,0,0,.043-.128Zm.213,7.726-.128.085c.043,0,.085-.043.128-.085m.043-4.866H248.5c.042,0,.085-.043.128-.043Zm0-3.8.171-.128c.043,0,.043-.042.085-.085a.148.148,0,0,0,.042.085v-.085h-.042c-.042-.042-.042-.085-.085-.171a.416.416,0,0,0-.171.384m.128,3.5h-.043l.043-.042Zm.085-3.884c.042-.043.085-.043.085-.085v-.213a.264.264,0,0,0-.085.3m.3,8.536c-.128.085-.256.085-.256.3a.574.574,0,0,0,.256-.3m-.171-8.92h.085c0-.043-.042-.128-.042-.171a.322.322,0,0,1-.043.171m.213,3.073c0,.042-.042.128-.042.171-.043-.043-.043-.128-.086-.171Zm-.085-3.415a.148.148,0,0,1,.085.043c.043-.043.086-.085.086-.128a.133.133,0,0,1,.042.085c.042,0,.042-.042.085-.085h-.128c0-.085-.043-.128-.043-.171l.171-.128c.042,0,.042-.042.085-.085a.384.384,0,0,1-.043-.213l.086-.085a.255.255,0,0,0-.043-.171.539.539,0,0,0-.043.256.434.434,0,0,0-.213.427c-.128.043-.128.128-.128.256m.3,9.049a.515.515,0,0,0-.214.213.352.352,0,0,0,.214-.213m.213-.213a.429.429,0,0,0-.171.213c.043-.043.171-.085.171-.213m-.043-9.9h.128c0-.042.043-.085.043-.128a.159.159,0,0,1,.042.128v-.128c-.042-.042-.042-.128-.085-.171a.333.333,0,0,0-.128.3m.341,9.732a.661.661,0,0,0-.256.171c.128-.042.213-.042.256-.171m.128-10.756a.541.541,0,0,0,.043-.256c0,.085-.043.171-.043.256m.512,1.92a.133.133,0,0,1,.086-.042V48.5Zm.086,8.28a.042.042,0,0,1-.043.043h.043Zm0-8.322V48.41h.042a.041.041,0,0,1-.042.043m.9-3.159a.206.206,0,0,0,.085-.256.363.363,0,0,0-.085.256m.171-.385a1.248,1.248,0,0,0,.3-.683c.128-.128.213-.256.17-.384-.128.086-.17.171-.17.384a.849.849,0,0,0-.3.683m.512-1.067c.128-.085.128-.256.128-.427a.333.333,0,0,0,.128-.3,2.383,2.383,0,0,0,.555-1.2c.128-.042.128-.171.128-.256a.207.207,0,0,0-.128.256,3.831,3.831,0,0,0-.555,1.2.462.462,0,0,0-.128.3.437.437,0,0,0-.128.427m.043.854c-.043-.043-.043-.043-.043-.085.043.042.043.042.043.085m1.622-3.628h-.128a.08.08,0,0,1,.128,0m-.042-.043v-.085a.158.158,0,0,1,.042.128.042.042,0,0,0-.042-.043" transform="translate(-136.938 -17.082)" fill="#845252"/>
    <path id="Path_28425" data-name="Path 28425" d="M299.218,83.306a13.53,13.53,0,0,0-2.988,1.622c-.427.3-.9.555-1.323.811-.768.6-1.665,1.067-2.476,1.622-.726.555-1.494,1.067-2.219,1.665-.342.256-.683.555-1.025.854h-.042c-.512.384-1.025.725-1.537,1.067a23.927,23.927,0,0,1-2.646,1.579,4.216,4.216,0,0,1-1.579.47,2.073,2.073,0,0,1-1.707-.6,2.713,2.713,0,0,1-.683-2.476,11.5,11.5,0,0,1,1.109-3.286,18.444,18.444,0,0,1,1.579-2.6,1.323,1.323,0,0,0,.214-.427,2.217,2.217,0,0,1,.854-1.025,2.286,2.286,0,0,0,.64-.64,14.267,14.267,0,0,1,1.707-1.494,9.536,9.536,0,0,1,.939-.469,1.17,1.17,0,0,1,1.323.256c.6.6.64,1.11-.085,1.878a11.358,11.358,0,0,1-1.836,1.665,5.72,5.72,0,0,1-2.134.982.727.727,0,0,0-.555.341,1.89,1.89,0,0,0-.342.47A22.148,22.148,0,0,0,283.127,88c-.043.085-.043.171-.085.256v.128a3.131,3.131,0,0,0-.342,1.067,6.606,6.606,0,0,0-.256,1.323,2.6,2.6,0,0,0,0,.811.243.243,0,0,0,.342.213,2.888,2.888,0,0,0,.854-.3,12.227,12.227,0,0,0,1.793-1.024c1.024-.64,2.006-1.323,2.988-1.963,1.536-1.025,3.03-2.049,4.567-3.031,1.195-.768,2.39-1.536,3.628-2.219.3-.171.64-.341.981-.512a3.9,3.9,0,0,1,.6-.3.593.593,0,0,1,.64.171c.171.171.427.341.384.683m-13.061-.043a1.327,1.327,0,0,0,.769-.384,7.419,7.419,0,0,0,.6-.469c.3-.256.554-.555.853-.854a.13.13,0,0,0,0-.171.08.08,0,0,0-.128,0,2.361,2.361,0,0,0-1.11.811H287.1a.091.091,0,0,1-.085.085v.043a3,3,0,0,0-.854.939m.256,7.171a.092.092,0,0,0-.086.085c0-.042.043-.042.086-.085m.042-.043a.322.322,0,0,0,.3-.171.433.433,0,0,0-.3.171m.214-9.048h.128v-.085c-.043,0-.086.042-.128.085m11.481,2.134c-.128,0-.213.085-.3.213a.314.314,0,0,0-.256.085c-.085.043-.213.043-.3.128a24.507,24.507,0,0,0-2.476,1.579,3.5,3.5,0,0,0-.854.512c-.17.128-.384.213-.554.342-.769.512-1.537,1.024-2.22,1.579l-.427.256c-.981.725-1.963,1.451-2.945,2.134a1.526,1.526,0,0,0-.469.427.379.379,0,0,0-.341.213.931.931,0,0,0-.342.213.584.584,0,0,0,.342-.213.435.435,0,0,0,.341-.213,1.849,1.849,0,0,0,.64-.342c.64-.427,1.238-.9,1.878-1.323.469-.342.9-.726,1.366-1.067.982-.6,1.878-1.238,2.817-1.921a2.5,2.5,0,0,0,.811-.555c.085-.043.171-.043.256-.128.725-.427,1.494-.9,2.219-1.366.128-.085.213-.128.256-.213l.256-.128c.128-.043.256-.085.3-.213m-10.713-.64a7.234,7.234,0,0,0-.683.512.575.575,0,0,0,.512-.213.286.286,0,0,0,.171-.3m-.64-1.622h.128v.128c0-.043.042-.085.085-.128l.128-.085a.932.932,0,0,0,.342-.213,2.394,2.394,0,0,0,.341-.213.156.156,0,0,1,.043-.128.133.133,0,0,1-.043-.086,1.877,1.877,0,0,0-.768.512l-.128.128Zm0,.939c.555-.384,1.024-.768,1.579-1.152a2.939,2.939,0,0,0-1.579,1.152m.128-.939v-.085h.085a.157.157,0,0,0,.043-.128l.085.128h-.085c0,.042-.043.042-.043.085Zm0,8.878a.32.32,0,0,0,.3-.213.492.492,0,0,0-.3.213m.17-7.768a.15.15,0,0,1-.085-.043h.043Zm.256,1.28a.43.43,0,0,0-.3.171.286.286,0,0,0,.3-.171m-.085,6.274a.789.789,0,0,1,.3-.086c.043-.085.128-.128.171-.213h.171l.128-.128v.085c.042,0,.085-.042.128-.085h-.128c.042-.043.085-.085.128-.085,0-.042.042-.042.042-.085l.171-.043c.043-.042.085-.042.128-.085v.085l.085-.085h-.085v-.042c.043,0,.085-.043.128-.086v.086c.043,0,.043-.043.085-.086a.73.73,0,0,1,.214-.085l.128-.128h-.085l.128-.086v.086a.092.092,0,0,1,.085-.086.929.929,0,0,0,.342-.213v-.086l.042.043.043-.043v-.042h.043a.586.586,0,0,0,.341-.213v-.042h.043v.042a.092.092,0,0,1,.085-.085l.128-.128a.436.436,0,0,0,.341-.213c.043-.043.085-.086.128-.086a.932.932,0,0,0,.342-.213l.128-.128c.086-.043.128-.085.214-.085l.128-.128c.042-.043.085-.085.128-.085a.132.132,0,0,0-.085-.043v-.042c.042,0,.042.042.085.042.085,0,.128-.042.213-.085l.128-.128c.128-.043.213-.128.341-.171l.128-.128a.928.928,0,0,0,.341-.213c.043-.043.086-.086.128-.086a.132.132,0,0,0-.085-.042V86.08c.043,0,.043.043.085.043.085,0,.128-.043.214-.085.042-.043.085-.085.128-.085h-.128a.158.158,0,0,0,.042-.128c.043.043.043.085.086.085a.514.514,0,0,0,.213-.213h.128c.128-.042.213-.128.341-.171l.128-.128c.085-.085.171-.128.213-.213.042-.043.042-.043.042-.086l.085.086c.086-.086.171-.128.256-.213v-.085c.043.042.086.042.086.085a1.713,1.713,0,0,1,.384-.213h-.043a1.724,1.724,0,0,1,.384-.213h-.043a2.373,2.373,0,0,0,.342-.213l.384-.213a2.448,2.448,0,0,1,.342-.213c.085-.085.17-.128.213-.213.043-.043.043-.043.043-.085l.085.085c.085-.085.171-.128.256-.213a.157.157,0,0,1-.043-.128.656.656,0,0,0-.3.213.694.694,0,0,0-.384.213c-.128.043-.256.085-.3.213a.572.572,0,0,0-.384.213,3.184,3.184,0,0,0-1.025.64.587.587,0,0,0-.342.213.694.694,0,0,0-.384.213,2.514,2.514,0,0,0-.811.555c-.128,0-.214.085-.342.213a1.1,1.1,0,0,0-.469.3,2.5,2.5,0,0,0-.811.555,1350.967,1350.967,0,0,0-.939.6,1.212,1.212,0,0,0-.469.341,6.1,6.1,0,0,0-.939.64,2.6,2.6,0,0,0-.6.427,1.549,1.549,0,0,0-.427.3,1.888,1.888,0,0,0-.47.341.852.852,0,0,0-.427.342m.9-6.915a.15.15,0,0,0-.086.043,2.078,2.078,0,0,0-.6.469c-.043.042-.043.085-.085.085a.092.092,0,0,0,.085-.085.882.882,0,0,0,.6-.427c.043-.042.086-.042.086-.085m.256-.213a.092.092,0,0,0-.086.085c.043-.042.086-.042.086-.085m.256,6.189a.148.148,0,0,0,.042.085h-.085a.148.148,0,0,0,.043-.085m.512-.341v.128H289.1c.043-.042.085-.085.085-.128m.939-.6v.085c-.043-.043-.043-.043-.085-.043.042,0,.042-.042.085-.042m.043-.085c.042,0,.042.042.085.042-.043,0-.043,0-.085-.042m.427-.171v-.086c.043.043.043.043,0,.086m.128-.086a.131.131,0,0,0-.085-.042v-.043c.042,0,.042.043.085.085m.385-.427.085.085h-.128c.043,0,.043-.043.043-.085m.427-.213V87.1h-.128Zm.854-.64.085.085h-.128c.043-.042.043-.042.043-.085m1.622-1.067.085.085h-.128c.043-.042.043-.042.043-.085m3.116-1.963c.085,0,.171,0,.214-.085Zm.256-.085a.323.323,0,0,0,.171-.085.171.171,0,0,0-.171.085m.213-.128h.085l.043-.043c0-.043-.043-.043-.085-.043a.15.15,0,0,1-.043.086m.769.256a.171.171,0,0,0-.171.085.323.323,0,0,1,.171-.085" transform="translate(-158.035 -44.936)" fill="#845252"/>
    <path id="Path_28426" data-name="Path 28426" d="M345.506,80.748c0,.128-.085.171-.17.213-.214.085-.427.213-.641.3-1.494.683-2.9,1.451-4.353,2.219a.915.915,0,0,1-.214.171,34.983,34.983,0,0,1-3.159,1.963,3.851,3.851,0,0,1-1.92.555,1.84,1.84,0,0,1-1.494-.811,2.723,2.723,0,0,1-.555-1.11,1.759,1.759,0,0,1-.043-.939l.256-.939a.158.158,0,0,0-.042-.128.08.08,0,0,0-.128,0,8.057,8.057,0,0,0-.854.427l-.811.512a3.746,3.746,0,0,1-.427.342h-.128a5.109,5.109,0,0,0-.6.427c-.043,0-.085.042-.128.085l-.64.555c-.127.085-.3.213-.427.3H328.9c-.042.042-.128.085-.171.128V85.1c0-.043,0-.085-.043-.085,0,.042-.042.042-.085.085s-.086.085-.086.128h.086c-.043.043-.086.043-.086.086h-.042c-.085.085-.213.128-.3.213-.042.043-.086.085-.086.128v-.128h-.042c0,.043-.043.085-.086.128h.086c0,.043-.043.043-.086.085l-.214.128c-.043.042-.085.042-.085.085V85.87h-.043c0,.042-.042.042-.085.085h.085c0,.043-.042.085-.085.128a.767.767,0,0,0-.3.213H327.2c0,.043-.042.043-.085.086V86.3c-.043.043-.086.043-.128.086a3.775,3.775,0,0,1-.427.341v.085a1.614,1.614,0,0,1-.511.427c-.086.085-.128.171-.214.213l-.853.64a6.661,6.661,0,0,1-1.622,1.067,2.1,2.1,0,0,1-1.025.085c-.64-.085-1.622-1.408-1.408-2.092a4.419,4.419,0,0,1,.171-.6,15.879,15.879,0,0,1,1.152-2.433,3.842,3.842,0,0,1,.256-.427.282.282,0,0,0,.043-.256c-.086-.128-.214-.043-.3,0-.128.085-.3.128-.427.213-1.067.64-2.134,1.28-3.244,1.878a27.376,27.376,0,0,1-3.158,1.622c-.3.128-.6.214-.854.342a2.081,2.081,0,0,1-1.024.043.8.8,0,0,1-.3-.085,1.951,1.951,0,0,1-1.109-2.134,3.438,3.438,0,0,1,.3-.939,14.356,14.356,0,0,1,1.665-2.817c.512-.683,1.067-1.323,1.579-1.963a42.461,42.461,0,0,1,3.073-3.116c.256-.256.513-.469.811-.725a7.48,7.48,0,0,1,.6-.512.263.263,0,0,1,.256-.042.379.379,0,0,1,.213.341,1.347,1.347,0,0,1-.213.427c-.256.3-.47.6-.726.939l-.6.683c-.9.982-1.792,2.006-2.646,3.073a22.967,22.967,0,0,0-1.452,2.092,10.767,10.767,0,0,0-1.322,2.732.7.7,0,0,0-.043.427c0,.128.085.171.213.128a9.235,9.235,0,0,0,.939-.427c.854-.469,1.707-.9,2.518-1.451a9.748,9.748,0,0,1,.9-.512c.982-.6,1.921-1.109,2.9-1.622.6-.3,1.2-.6,1.793-.854a.869.869,0,0,1,.853-.086.6.6,0,0,1,.256.086c.256.256.555.469.769.725a1.169,1.169,0,0,1,.213,1.409c-.086.171-.128.341-.213.512a3.938,3.938,0,0,1-.214.427l-.213.342c-.042.043-.085.128-.128.171V84.8a4.188,4.188,0,0,1-.555.939.314.314,0,0,0-.085.256c-.085.171-.256.3-.3.512.214.171.256.171.384.085l1.025-.768c1.025-.811,2.091-1.622,3.158-2.347a36.954,36.954,0,0,1,3.628-2.3c.556-.342,1.153-.6,1.75-.9l.342-.128a.905.905,0,0,1,.812.171,4.992,4.992,0,0,1,.469.469,1.233,1.233,0,0,1,.3,1.366c-.128.385-.3.811-.427,1.238l-.256.768c-.085.342.042.427.384.342a5.04,5.04,0,0,0,.469-.213c.769-.384,1.579-.768,2.347-1.238a21.388,21.388,0,0,1,2.433-1.152,1.288,1.288,0,0,1,.342-.171c.939-.512,1.92-.9,2.9-1.323.384-.171.768-.3,1.152-.427.128-.043.3-.043.427-.085.128,0,.256,0,.3.171l.085.128c.256.213.256.213.043.427l-.086.086a1.009,1.009,0,0,0-.469.256,2.646,2.646,0,0,0,.512-.213Zm-28.34,4.183c-.086,0-.128.043-.214.043a.384.384,0,0,0,.214-.043m.3-.256a.491.491,0,0,0-.3.213c.128-.043.256-.085.3-.213m.768-.427a.892.892,0,0,0,.556-.3c.085,0,.128-.043.213-.128a.32.32,0,0,0,.3-.213c.086,0,.171,0,.213-.085.086-.043.171-.043.214-.128-.086,0-.128.043-.214.128-.085,0-.127.042-.213.085-.128.042-.256.085-.3.213a.233.233,0,0,0-.213.128.731.731,0,0,0-.556.3.85.85,0,0,0-.512.342.325.325,0,0,0-.213.085c.085,0,.127-.042.213-.085a.85.85,0,0,0,.512-.342m-.128,1.11a.325.325,0,0,0-.171.042c.086,0,.128-.042.171-.042m4.61-2.6c-.085,0-.128.042-.213.128-.085,0-.128.043-.213.085a1.341,1.341,0,0,0-.427.213,1.275,1.275,0,0,0-.725.427.234.234,0,0,0-.214.128c-.086,0-.171,0-.213.085a1922.724,1922.724,0,0,0-1.536.854.789.789,0,0,0-.512.342.651.651,0,0,0-.513.3.794.794,0,0,0,.513-.3.834.834,0,0,0,.554-.342,1.079,1.079,0,0,0,.726-.427,1.256,1.256,0,0,0,.768-.427c.085,0,.128-.043.213-.085a.574.574,0,0,0,.214-.128,1.152,1.152,0,0,0,.725-.427.473.473,0,0,0,.427-.213.325.325,0,0,0,.213-.085c.085-.043.171-.043.213-.128m-2.945.64c.086-.043.213-.085.256-.213-.085.043-.214.086-.256.213m.3-.213c.085,0,.128-.042.214-.085s.17-.043.213-.128a.224.224,0,0,0,.171-.085.171.171,0,0,0-.171.085.234.234,0,0,0-.213.128.327.327,0,0,0-.214.085m.64-.342c.085,0,.128,0,.171-.085-.043.042-.128.042-.171.085m.64-.3c.128,0,.213-.085.3-.213l-.3.128c-.043,0-.043.042,0,.085m.341-.213a.325.325,0,0,0,.171-.085c-.085.042-.128.042-.171.085m.171-.128c.086,0,.171,0,.214-.085Zm.256-.085a.325.325,0,0,0,.171-.085.325.325,0,0,0-.171.085m.64.6v.043c.042,0,.042,0,0-.043m.6,4.866a.9.9,0,0,0,.469-.3c.085,0,.128-.042.213-.042a.758.758,0,0,1,.3-.213v.128c.043-.042.043-.085.086-.128a.59.59,0,0,0,.341-.213l.085-.085.128-.128c.128-.042.256-.085.3-.213l.128-.086a.766.766,0,0,0,.3-.213h-.214a1.508,1.508,0,0,1,.341-.213v.085a.093.093,0,0,0,.086-.085h-.086l.128-.128v.128a.5.5,0,0,0,.3-.213c.042-.043.085-.085.085-.128h-.085c.042-.042.085-.085.128-.085v.085a.543.543,0,0,0,.384-.3H326.6v-.085c.085,0,.128-.042.213-.042v.128c.043-.042.086-.042.086-.128a.32.32,0,0,0,.3-.213h-.171a.326.326,0,0,1,.213-.085v.085c0-.043.043-.043.086-.085a.542.542,0,0,0,.3-.213h-.213c.043-.043.043-.043.043-.085.085,0,.128-.043.214-.043v.085l.085-.085a.323.323,0,0,0,.3-.213c.085,0,.127-.042.127-.085.128-.042.256-.085.3-.213a.676.676,0,0,0,.342-.213c-.085,0-.129-.043-.171-.043a.328.328,0,0,0,.171-.085v.085a.092.092,0,0,0,.085-.085h-.085l.085-.085h.043v.085c.042-.043.128-.043.17-.085h-.17a.915.915,0,0,1,.213-.128v.085l.085-.085c.128-.043.256-.085.3-.213l.128-.085c.085-.043.17-.043.213-.128l.085-.085h-.085c.042-.043.085-.085.085-.128a.154.154,0,0,1,.043.128c.042-.043.128-.043.17-.128h-.17a.041.041,0,0,1,.042-.043c.043-.043.086-.043.171-.043v.086a.093.093,0,0,1,.085-.086h-.085c0-.042.043-.085.085-.128v.085c.085,0,.128-.042.214-.085l.128-.128c.043,0,.128-.042.171-.042a1.03,1.03,0,0,0,.342-.256l.213-.085a.382.382,0,0,1-.213-.043c.042,0,.042,0,.042-.042l.171-.043c.085-.042.128-.085.213-.085.043-.042.086-.085.086-.128.042,0,.042-.042.042-.085a.386.386,0,0,0,.214-.042v-.086h.171a.13.13,0,0,0,.043-.085c.042-.043.127-.043.213-.043v.043a3,3,0,0,1,.6-.427,1.1,1.1,0,0,0-.81.427.314.314,0,0,0-.256.085c-.086,0-.128.043-.213.086a1.4,1.4,0,0,0-.556.3,3.632,3.632,0,0,0-.853.555.5.5,0,0,0-.3.213.586.586,0,0,0-.341.213,20.87,20.87,0,0,0-2.219,1.579,4.307,4.307,0,0,0-.9.64c-.341.256-.684.512-1.025.811-.6.427-1.152.9-1.707,1.366a.565.565,0,0,0-.427.342.224.224,0,0,0-.172.085c.086,0,.128,0,.172-.085m10.073-6.018a4.264,4.264,0,0,0-1.239.64,1.251,1.251,0,0,0-.511.3,3.151,3.151,0,0,0-.513.3c-1.024.64-2.006,1.366-2.988,2.092-1.494,1.152-2.9,2.39-4.439,3.5-.042,0-.128.043-.042.171a2.6,2.6,0,0,0,.427-.3,18.366,18.366,0,0,0,1.75-1.281c1.537-1.238,3.074-2.475,4.7-3.585l1.2-.811a1.2,1.2,0,0,0,.512-.342c.3-.128.64-.3.982-.469.043-.043.085-.128.171-.171Zm-9.006,5.378v.085h-.086c.043-.043.086-.043.086-.085m.341-.213v.085h-.214c.042-.042.128-.042.214-.085m.085-.128v.128h-.085c.042-.042.085-.085.085-.128m.128-.085v.085h-.128c.042-.042.085-.085.128-.085m.3-.213v.086h-.214c.086-.043.171-.043.214-.086m.128-.128V86.3h-.128Zm.641-.512a.925.925,0,0,1,.213-.128v.128Zm.853-.64V85.1h-.086a.092.092,0,0,1,.086-.085m.427-.342V84.8h-.086c0-.043.043-.086.086-.128m.427-.3v.085h-.085c0-.043.042-.043.085-.085m.427-.342v.128h-.127Zm.427,1.153V85.1h.085a.092.092,0,0,1-.085.085m.64-1.878v.085h-.085c0-.043.043-.043.085-.085m.427-.342V83.1h-.128Zm.042-.042a.257.257,0,0,1,.171-.043v.085h-.171Zm.811-.469v.085h-.214a.042.042,0,0,0,.043-.043.258.258,0,0,1,.171-.042m1.195-.769v.128a.966.966,0,0,1,.214-.128Zm4.567,2.774c-.085.043-.128.043-.17.128Zm.043,0,.6-.213a.936.936,0,0,0,.127-.213.65.65,0,0,0,.512-.3.606.606,0,0,0,.256-.086.259.259,0,0,1,.171-.042.715.715,0,0,1,.213-.085l.214-.128c.042-.043.085-.128.128-.171.085,0,.128-.043.213-.043V83.1h.214a.934.934,0,0,1,.213-.128.329.329,0,0,1,.214-.085.884.884,0,0,1,.213-.128c.085-.043.128-.086.214-.086a1.078,1.078,0,0,1,.3-.171c.171-.128.341-.171.427-.384a10.669,10.669,0,0,0-1.835.939c-.085,0-.128.043-.17.128a1.388,1.388,0,0,0-.769.427.235.235,0,0,0-.213.128.79.79,0,0,0-.512.3,1.379,1.379,0,0,0-.725.427m.47.768a.322.322,0,0,0-.171.086c.085-.043.128-.043.171-.086m6.744-3.756c-.085.043-.214.043-.3.086a22.48,22.48,0,0,0-2.263,1.152,2.9,2.9,0,0,0-.512.256c-1.109.6-2.219,1.323-3.329,1.963a2.026,2.026,0,0,0-.3.3,1.752,1.752,0,0,0,.64-.3l1.025-.64c.854-.469,1.707-.982,2.519-1.494.853-.384,1.622-.811,2.433-1.238.042,0,.042-.043.085-.086m-2.945.64h.171a6.054,6.054,0,0,0,1.152-.64,4.763,4.763,0,0,0-1.323.64m1.366-.64.214-.085c-.086,0-.128.042-.214.085m.256-.085h.171V81.26a.328.328,0,0,0,.213-.085c-.085,0-.128.042-.213.085-.086,0-.128.042-.171.128m.427-.213a.952.952,0,0,0,.469-.213.684.684,0,0,0-.469.213m.512-.256a.323.323,0,0,0,.171-.085c-.085.043-.128.043-.171.085m.6.47a.171.171,0,0,0-.171.085.223.223,0,0,0,.171-.085m.982-.427c-.085,0-.129.043-.213.085a.707.707,0,0,0-.513.213.325.325,0,0,0-.213.085.234.234,0,0,0,.213-.085.789.789,0,0,0,.513-.213Z" transform="translate(-175.556 -42.292)" fill="#845252"/>
    <path id="Path_28427" data-name="Path 28427" d="M395.51,83.306a13.531,13.531,0,0,0-2.988,1.622c-.427.3-.9.555-1.323.811-.768.6-1.665,1.067-2.476,1.622-.726.555-1.494,1.067-2.219,1.665-.342.256-.683.555-1.025.854h-.042c-.512.384-1.025.725-1.537,1.067a23.927,23.927,0,0,1-2.646,1.579,4.216,4.216,0,0,1-1.579.47,2.073,2.073,0,0,1-1.707-.6,2.713,2.713,0,0,1-.683-2.476,11.5,11.5,0,0,1,1.109-3.286,18.441,18.441,0,0,1,1.579-2.6,1.324,1.324,0,0,0,.213-.427,2.217,2.217,0,0,1,.854-1.025,2.287,2.287,0,0,0,.64-.64,14.269,14.269,0,0,1,1.707-1.494,9.547,9.547,0,0,1,.939-.469,1.17,1.17,0,0,1,1.323.256c.6.6.64,1.11-.085,1.878a11.355,11.355,0,0,1-1.836,1.665,5.72,5.72,0,0,1-2.134.982.727.727,0,0,0-.555.341,1.889,1.889,0,0,0-.342.47A22.154,22.154,0,0,0,379.419,88c-.043.085-.043.171-.085.256v.128a3.131,3.131,0,0,0-.342,1.067,6.606,6.606,0,0,0-.256,1.323,2.6,2.6,0,0,0,0,.811.243.243,0,0,0,.342.213,2.889,2.889,0,0,0,.854-.3,12.229,12.229,0,0,0,1.793-1.024c1.024-.64,2.006-1.323,2.988-1.963,1.536-1.025,3.03-2.049,4.566-3.031,1.2-.768,2.39-1.536,3.628-2.219.3-.171.64-.341.981-.512a3.9,3.9,0,0,1,.6-.3.593.593,0,0,1,.64.171c.171.171.427.341.384.683m-13.06-.043a1.327,1.327,0,0,0,.768-.384,7.33,7.33,0,0,0,.6-.469c.3-.256.555-.555.854-.854a.13.13,0,0,0,0-.171.08.08,0,0,0-.128,0,2.361,2.361,0,0,0-1.11.811h-.043a.091.091,0,0,1-.085.085v.043a2.992,2.992,0,0,0-.854.939m.256,7.171a.092.092,0,0,0-.086.085c0-.042.043-.042.086-.085m.042-.043a.322.322,0,0,0,.3-.171.433.433,0,0,0-.3.171m.214-9.048h.128v-.085c-.043,0-.086.042-.128.085m11.481,2.134c-.128,0-.214.085-.3.213a.314.314,0,0,0-.256.085c-.085.043-.213.043-.3.128a24.507,24.507,0,0,0-2.476,1.579,3.5,3.5,0,0,0-.853.512c-.17.128-.384.213-.554.342-.769.512-1.537,1.024-2.22,1.579l-.427.256c-.981.725-1.963,1.451-2.945,2.134a1.526,1.526,0,0,0-.469.427.379.379,0,0,0-.341.213.931.931,0,0,0-.342.213.584.584,0,0,0,.342-.213.435.435,0,0,0,.341-.213,1.849,1.849,0,0,0,.64-.342c.64-.427,1.238-.9,1.878-1.323.469-.342.9-.726,1.366-1.067.982-.6,1.878-1.238,2.817-1.921a2.5,2.5,0,0,0,.811-.555c.085-.043.171-.043.256-.128.725-.427,1.494-.9,2.219-1.366.128-.085.214-.128.256-.213l.256-.128c.128-.043.256-.085.3-.213m-10.713-.64a7.233,7.233,0,0,0-.683.512.575.575,0,0,0,.512-.213.286.286,0,0,0,.171-.3m-.64-1.622h.128v.128c0-.043.042-.085.085-.128l.128-.085a.932.932,0,0,0,.342-.213,2.39,2.39,0,0,0,.341-.213.156.156,0,0,1,.043-.128.133.133,0,0,1-.043-.086,1.875,1.875,0,0,0-.768.512l-.128.128Zm0,.939c.555-.384,1.024-.768,1.579-1.152a2.939,2.939,0,0,0-1.579,1.152m.128-.939v-.085h.085a.157.157,0,0,0,.043-.128l.085.128h-.085c0,.042-.043.042-.043.085Zm0,8.878a.32.32,0,0,0,.3-.213.492.492,0,0,0-.3.213m.17-7.768a.149.149,0,0,1-.085-.043h.043Zm.256,1.28a.43.43,0,0,0-.3.171.286.286,0,0,0,.3-.171m-.085,6.274a.789.789,0,0,1,.3-.086c.043-.085.128-.128.171-.213h.171l.128-.128v.085c.042,0,.085-.042.128-.085h-.128c.042-.043.085-.085.128-.085,0-.042.042-.042.042-.085l.171-.043c.043-.042.085-.042.128-.085v.085l.085-.085H384.8v-.042c.043,0,.085-.043.128-.086v.086c.043,0,.043-.043.085-.086a.735.735,0,0,1,.213-.085l.128-.128h-.085l.128-.086v.086a.092.092,0,0,1,.085-.086.929.929,0,0,0,.342-.213v-.086l.042.043.043-.043v-.042h.043a.586.586,0,0,0,.341-.213v-.042h.043v.042a.092.092,0,0,1,.085-.085l.128-.128a.436.436,0,0,0,.342-.213c.043-.043.085-.086.128-.086a.931.931,0,0,0,.342-.213l.128-.128c.086-.043.128-.085.214-.085l.128-.128c.042-.043.085-.085.128-.085a.131.131,0,0,0-.085-.043v-.042c.043,0,.043.042.085.042.085,0,.128-.042.214-.085l.128-.128c.128-.043.213-.128.341-.171l.128-.128a.927.927,0,0,0,.341-.213c.043-.043.086-.086.128-.086a.132.132,0,0,0-.085-.042V86.08c.043,0,.043.043.085.043.085,0,.128-.043.213-.085.042-.043.085-.085.128-.085h-.128a.158.158,0,0,0,.042-.128c.043.043.043.085.086.085a.514.514,0,0,0,.213-.213h.128c.128-.042.214-.128.341-.171l.128-.128c.085-.085.171-.128.214-.213.043-.043.043-.043.043-.086l.085.086c.086-.086.171-.128.256-.213v-.085c.043.042.086.042.086.085a1.713,1.713,0,0,1,.384-.213h-.043a1.723,1.723,0,0,1,.384-.213h-.043a2.4,2.4,0,0,0,.342-.213l.384-.213a2.449,2.449,0,0,1,.342-.213c.085-.085.17-.128.213-.213.043-.043.043-.043.043-.085l.085.085c.085-.085.171-.128.256-.213a.158.158,0,0,1-.042-.128.654.654,0,0,0-.3.213.694.694,0,0,0-.384.213c-.128.043-.256.085-.3.213a.574.574,0,0,0-.385.213,3.187,3.187,0,0,0-1.024.64.584.584,0,0,0-.341.213.693.693,0,0,0-.385.213,2.514,2.514,0,0,0-.811.555c-.128,0-.213.085-.342.213a1.1,1.1,0,0,0-.469.3,2.5,2.5,0,0,0-.811.555,1350.78,1350.78,0,0,0-.939.6,1.209,1.209,0,0,0-.469.341,6.1,6.1,0,0,0-.939.64,2.6,2.6,0,0,0-.6.427,1.548,1.548,0,0,0-.427.3,1.888,1.888,0,0,0-.47.341.85.85,0,0,0-.427.342m.9-6.915a.15.15,0,0,0-.086.043,2.079,2.079,0,0,0-.6.469c-.043.042-.043.085-.085.085a.092.092,0,0,0,.085-.085.882.882,0,0,0,.6-.427c.043-.042.086-.042.086-.085m.256-.213a.092.092,0,0,0-.086.085c.043-.042.086-.042.086-.085m.256,6.189a.148.148,0,0,0,.042.085h-.085a.148.148,0,0,0,.043-.085m.512-.341v.128h-.085c.043-.042.085-.085.085-.128m.939-.6v.085c-.043-.043-.043-.043-.085-.043.042,0,.042-.042.085-.042m.043-.085c.042,0,.042.042.085.042-.042,0-.042,0-.085-.042m.427-.171v-.086c.043.043.043.043,0,.086m.128-.086a.131.131,0,0,0-.085-.042v-.043c.042,0,.042.043.085.085m.385-.427.085.085h-.128c.043,0,.043-.043.043-.085m.427-.213V87.1H387.7Zm.854-.64.085.085h-.128c.043-.042.043-.042.043-.085m1.622-1.067.085.085h-.128c.043-.042.043-.042.043-.085m3.116-1.963c.085,0,.171,0,.214-.085Zm.256-.085a.324.324,0,0,0,.171-.085.171.171,0,0,0-.171.085m.213-.128h.085l.043-.043c0-.043-.043-.043-.085-.043a.15.15,0,0,1-.043.086m.769.256a.171.171,0,0,0-.171.085.323.323,0,0,1,.171-.085" transform="translate(-212.202 -44.936)" fill="#845252"/>
    <path id="Path_28428" data-name="Path 28428" d="M411.691,83.5a47.932,47.932,0,0,0-6.487,3.97c-.042.042-.128.085-.171.171a.554.554,0,0,0-.256.683c.128.427.213.9.3,1.323a17.859,17.859,0,0,1,.469,3.329,11.271,11.271,0,0,1-.042,1.707,12.18,12.18,0,0,1-.256,1.323.943.943,0,0,0-.042.341,1.066,1.066,0,0,1-.171.6c0-.042.042-.085,0-.085v.085c-.043.171,0,.342-.214.427a.935.935,0,0,0-.128.213l-.512,1.28a1.409,1.409,0,0,0-.3.555h.128c-.043.042-.086.128-.128.171v.043a.425.425,0,0,0-.171.213h.043a.884.884,0,0,0-.171.256,21.175,21.175,0,0,1-6.1,6.061,8.1,8.1,0,0,1-2.732,1.152,2.386,2.386,0,0,1-1.451-.042,6.4,6.4,0,0,1-.939-.47,1.624,1.624,0,0,1-.9-1.408,5.849,5.849,0,0,1,.213-2.262,17.749,17.749,0,0,1,1.452-3.671,32.293,32.293,0,0,1,2.945-4.737c.64-.854,1.366-1.665,2.092-2.476a33.862,33.862,0,0,1,3.03-3.03c.512-.469.982-.939,1.537-1.366a.628.628,0,0,0,.213-.683l-.341-1.238c-.256-.939-.555-1.92-.811-2.86a4.628,4.628,0,0,1-.171-1.878,3.7,3.7,0,0,1,.854-2.22,10.507,10.507,0,0,1,1.622-1.75,8.1,8.1,0,0,1,3.073-1.835,4.452,4.452,0,0,1,.726-.171.813.813,0,0,1,.6.3.236.236,0,0,1-.085.341,10.317,10.317,0,0,0-.982.469,13.462,13.462,0,0,0-1.408.939,1.69,1.69,0,0,1-.64.427c.042-.042.042-.128.085-.171s.043-.085.085-.085l.128-.128a2.208,2.208,0,0,0,.726-.555,1.451,1.451,0,0,0,.469-.3c.043-.042.128-.042.171-.128-.085,0-.171,0-.214.086a1.25,1.25,0,0,0-.512.3,2.6,2.6,0,0,0-.682.512l-.128.128c-.043.042-.086.085-.128.085a1.124,1.124,0,0,0-.213.256c-.043,0-.086.043-.128.086a.805.805,0,0,0-.342.427,1.1,1.1,0,0,0,.384-.384c.043,0,.086-.042.128-.085a.256.256,0,0,0,.171-.043.623.623,0,0,1-.256.384,1.328,1.328,0,0,0-.384.469l-.128.128a1.465,1.465,0,0,0-.384.512v.128c-.043.085-.085.128-.128.213h-.128c-.213.469-.469.982-.64,1.451a3.2,3.2,0,0,0-.214,1.536,10.581,10.581,0,0,0,.469,2.006c.128.469.3.939.469,1.408a.614.614,0,0,0,.086.3c.128.256.213.3.512.085a8.552,8.552,0,0,0,.768-.555,34.319,34.319,0,0,1,2.988-1.75c2.86-1.494,3.841-1.878,4.695-2.347,1.11-.6,2.262.085-1.409,1.835M402.3,98.27a10.922,10.922,0,0,0,1.366-4.951,21.387,21.387,0,0,0-.213-3.713c-.042-.085-.042-.171-.085-.256a.206.206,0,0,0-.256-.086c-.341.3-.683.555-.982.854-.683.683-1.409,1.366-2.049,2.134l-.128.128-.384.384v.042a.092.092,0,0,0-.085.085h-.043a1.827,1.827,0,0,1-.256.3,13.281,13.281,0,0,0-.982,1.2,1.169,1.169,0,0,0-.384.512v.042c-.042,0-.085.043-.128.086a4.5,4.5,0,0,0-.768,1.067l-.128.213a1.3,1.3,0,0,0-.384.555v-.043l-.128.256v-.043a5.245,5.245,0,0,0-.811,1.323v-.042l-.128.256v-.042a.939.939,0,0,1-.128.213,6.325,6.325,0,0,0-.725,1.409,4.311,4.311,0,0,0-.3.64h.043a1.209,1.209,0,0,0-.3.726c-.17.128-.128.3-.213.427a5.1,5.1,0,0,0-.469,2.049,2.07,2.07,0,0,0-.043.512,3.045,3.045,0,0,0,.085,1.238,1.326,1.326,0,0,0,.214.427.343.343,0,0,0,.469.128,9.168,9.168,0,0,0,1.451-.725,21.818,21.818,0,0,0,2.348-1.707,20.075,20.075,0,0,0,2.475-2.561,17.978,17.978,0,0,0,2.049-3.03m-8.707,3.116h.043v-.043a.042.042,0,0,1-.043.043m.3-.726.042.043.043-.043v-.085c-.043,0-.043.042-.085.085m.3-.64a1.174,1.174,0,0,0,.427-.683,1.435,1.435,0,0,0-.427.683m.427-.726a.461.461,0,0,0,.128-.3.389.389,0,0,0-.128.3m.128-.341a1.093,1.093,0,0,0,.385-.512,25.637,25.637,0,0,1,1.664-2.519,44.536,44.536,0,0,1,3.884-4.61l2.262-2.176a.516.516,0,0,0,.214-.213v-.085h-.043a.422.422,0,0,0-.213.171A40.716,40.716,0,0,0,399.825,92a34.483,34.483,0,0,0-4.78,6.36,3.925,3.925,0,0,0-.3.6m1.793-4.055h.085a.256.256,0,0,0,.043-.171.571.571,0,0,0-.128.171m.128-.213h.128V94.6h.128v-.213l-.128.213c-.042.043-.085.085-.128.085m.128.043c0,.042-.042.128-.042.171l.128-.171Zm.128-.384a.325.325,0,0,0,.214-.086l.042-.171c-.128.043-.17.171-.256.256m.256-.3h.086a.148.148,0,0,0,.042-.085h.086v.085l.128-.085h-.128l.128-.128a.466.466,0,0,1,.042-.213h.086c.042,0,.085-.043.128-.085v-.213a.764.764,0,0,0-.214.3.666.666,0,0,0-.256.342c-.042.042-.085.085-.128.085m.128.043a.258.258,0,0,0-.042.171l.128-.171Zm.512-.768h.086l.128-.128v.128c.042-.042.085-.085.085-.128h-.085c.042-.042.085-.042.128-.085v-.213a.68.68,0,0,0-.342.427m.384-.427h.086v-.085a.092.092,0,0,0-.086.085m.086-.128h.128v.128c0-.042.042-.085.085-.128a.954.954,0,0,0,.128-.213l.128-.085.128-.128.128-.085h-.128c0-.085.042-.128.042-.213h.086v.171l.128-.171c.042-.043.085-.085.085-.128h-.085c.042-.043.085-.043.128-.086v.086l.085-.086h-.085l.128-.128v.128c.042-.042.042-.085.085-.128l.128-.213c0-.043-.043-.043-.085-.085h.128v.085c0-.043.042-.043.085-.085l.128-.128c.043-.042.085-.042.128-.085l.128-.128a.771.771,0,0,0,.213-.3h.043c.042-.042.042-.085.085-.128h-.085a.148.148,0,0,0,.042-.085h.086v.085c0-.042.042-.042.085-.085l.128-.128c.043-.043.085-.085.128-.085a5.4,5.4,0,0,0,.854-.854l.128-.128.085-.086a.148.148,0,0,0-.085-.042.042.042,0,0,0,.043-.043h.042a.131.131,0,0,0,.043.085c0-.042.043-.085.085-.128l.128-.086.128-.128.128-.085H402.3a.132.132,0,0,0,.043-.085c.043,0,.043,0,.085-.043v.085c.043,0,.043-.042.085-.085h-.085a.148.148,0,0,0,.043-.085h.085v.085c0-.042.043-.042.086-.085h-.086a.148.148,0,0,1,.043-.085.131.131,0,0,0,.085-.043c0,.043,0,.085-.042.085.042,0,.085-.042.128-.085s.085-.085.128-.085l.128-.128h-.086V88.2h.086c0-.128-.043-.085-.128-.042-.043.042-.086.085-.128.085l-.128.128c-.043.043-.086.086-.086.128-.042,0-.085.043-.128.085s-.085.086-.128.086l-.128.128c-.042.043-.085.085-.128.085l-.128.128c0,.042-.042.085-.085.128-.042,0-.085.042-.128.085l-.128.128a5.239,5.239,0,0,0-1.109,1.067c0,.042-.043.042-.085.085l-.128.128a1.713,1.713,0,0,0-.6.64l-.128.128a1.085,1.085,0,0,0-.47.512h.086v.128h-.128c0-.043,0-.085.042-.085-.042,0-.085.042-.128.085a.575.575,0,0,0-.256.3l-.128.128a.45.45,0,0,0-.255.3m.341-.213-.086-.085h.128c0,.042,0,.042-.042.085m.042-.085v-.128h.086c.042-.043.085-.043.128-.085v.085H398.8a.158.158,0,0,0-.042.128Zm.982-1.067V91.27h.128c0,.042-.042.085-.042.128Zm.213-.213v.085h-.085c0-.042.042-.042.085-.085m.128-.128v.128h-.128Zm.3-.384c.043,0,.043,0,.086-.043v.128c-.043-.042-.043-.085-.086-.085m.342-.256c0,.042-.043.085-.043.128h-.085v-.085c.042,0,.085-.042.128-.042m.085-.085v.085h-.085c0-.043.042-.043.085-.085m1.366,9.731a.424.424,0,0,1,.171-.213.255.255,0,0,0-.043.171c.085-.043.128-.086.128-.171h-.128c.085-.086.128-.171.171-.213l-.043.171c.085-.043.128-.085.128-.171a.43.43,0,0,0,.171-.213c.085-.043.085-.128.085-.213a1.019,1.019,0,0,0,.3-.555h-.086a.42.42,0,0,1-.17.213l.128-.213a.739.739,0,0,0,.042-.3,1.039,1.039,0,0,0-.256.342c-.213.384-.469.726-.682,1.11l-.512.854a.664.664,0,0,0-.256.342.677.677,0,0,0,.3-.3c.213-.171.341-.47.554-.64m-.384-10.67v.085c-.042-.042-.042-.042-.042-.085Zm.128-.042h-.085v-.086c.043.043.043,0,.085,0-.042.043,0,.043,0,.086m2.347,8.707c-.214.128-.256.341-.384.512a16.521,16.521,0,0,1-1.622,2.6,1.659,1.659,0,0,0-.256.469,1.157,1.157,0,0,0,.342-.3,12.161,12.161,0,0,0,1.323-1.963,5.265,5.265,0,0,0,.6-1.323m-2.134-9.006v.086h-.085c0-.043.043-.043.043-.086Zm.128-.128v.128c-.042,0-.042-.042-.085-.042a.042.042,0,0,1,.043-.042.042.042,0,0,0,.042-.043m-.042,11.14a.256.256,0,0,0-.043.171l.128-.171Zm.085-11.225h.085v.085h-.085Zm.3,10.585a1.833,1.833,0,0,0-.042.213h-.085a.92.92,0,0,1,.128-.213m.085-.043c-.043,0-.043,0-.085.043a.916.916,0,0,1,.128-.213Zm.043-.171c.042-.128.042-.256.128-.342a.937.937,0,0,1-.043.342Zm.128-10.8V88.5h-.086a.132.132,0,0,1,.043-.085Zm.128-.085v.085c-.043,0-.043-.043-.086-.043v-.042Zm1.109,11.054a.946.946,0,0,0,.128-.213v.043a.913.913,0,0,0-.128.213Zm.128-.213c0-.085.042-.213.042-.3.043,0,.086.043.128.043Zm.085-1.238c-.043.043-.043.043-.043.085.043-.042.086-.042.043-.085m.128-19.335c.043-.043.043-.085.085-.128l-.085.085Zm.385,8.28a.223.223,0,0,0,.171-.085l.128-.085H404.9a.133.133,0,0,0,.042-.086.15.15,0,0,0,.086-.042v.085c.042,0,.085-.043.128-.085.128-.085.213-.213.341-.3v-.128a1.1,1.1,0,0,0-.469.3l-.128.128a.914.914,0,0,0-.213.128c-.085.042-.128.085-.085.171Zm1.835-.726a1.105,1.105,0,0,0-.469.3,1.918,1.918,0,0,0-.6.427,2.347,2.347,0,0,0-.811.64v.043h.043a2.832,2.832,0,0,0,.811-.64,1.417,1.417,0,0,0,.6-.427.851.851,0,0,0,.427-.342m-1.835-9.006c0,.042,0,.085.042.085a.148.148,0,0,1,.085-.043h.043l.128-.128v.128c.042-.042.085-.085.085-.128h-.085c.042-.043.085-.043.128-.085v.085c0-.043.042-.043.085-.085l.128-.128a5.247,5.247,0,0,0,.811-.512c.043-.085.128-.128.086-.171-.086-.085-.128-.043-.171.043a1.765,1.765,0,0,0-.811.512l-.128.128a.973.973,0,0,0-.427.3m.427,9.433h-.128c.042-.043.042-.043.042-.085,0,.042.043.042.086.085m.128-9.732a.157.157,0,0,1-.043.128h-.085c0-.043,0-.085.042-.085a.132.132,0,0,0,.085-.043m0-.043a.15.15,0,0,1,.085.043h-.085Zm.256,9.347h.086v.128l.085-.128h-.085v-.085c.042,0,.085.043.128.085a1.293,1.293,0,0,1,.213-.3.584.584,0,0,0-.341.213c-.043.043-.086.043-.086.085m.6-.427a.5.5,0,0,0,.3-.213.758.758,0,0,0-.3.213m.9.128a.359.359,0,0,0-.3.171.432.432,0,0,0,.3-.171m.469-.341a.762.762,0,0,0-.3.213.5.5,0,0,0,.3-.213m.342-.213a.767.767,0,0,0-.3.213.768.768,0,0,0,.3-.213" transform="translate(-220.189 -42.315)" fill="#845252"/>
  </g>
</svg>
