<svg id="Component_107_1" data-name="Component 107 – 1" xmlns="http://www.w3.org/2000/svg" xmlns:xlink="http://www.w3.org/1999/xlink" width="114.106" height="45" viewBox="0 0 114.106 45">
  <defs>
    <clipPath id="clip-path">
      <rect id="Rectangle_8158" data-name="Rectangle 8158" width="114.106" height="45" transform="translate(0 0)" fill="none"/>
    </clipPath>
  </defs>
  <g id="Group_7160" data-name="Group 7160" clip-path="url(#clip-path)">
    <path id="Path_29573" data-name="Path 29573" d="M23.682,40.8h.912a1.488,1.488,0,0,1,1.495,1.6,1.45,1.45,0,0,1-1.434,1.586h-.973Zm-1.363-1.087h0v5.366h2.252a2.669,2.669,0,0,0,2.907-2.683,2.639,2.639,0,0,0-2.853-2.683Zm-1.885,1.1h0V39.7H15.851v1.1h1.6v4.27h1.363V40.8Zm-8.274-1.157h0c-1.29,0-2.139.629-2.139,1.617,0,1.9,2.835,1.332,2.835,2.285,0,.3-.268.468-.7.468a3.348,3.348,0,0,1-1.941-.806l-.53,1.051a4.01,4.01,0,0,0,2.454.858c1.194,0,2.147-.568,2.147-1.64,0-1.939-2.838-1.411-2.838-2.338,0-.261.238-.39.59-.39a4.024,4.024,0,0,1,1.718.559l.514-1.066a4.03,4.03,0,0,0-2.115-.6m-4.33,1.134h0V39.708h-4.2v5.366H7.913V44H4.993V42.92H7.553V41.845H4.993V40.781Z" transform="translate(0.56 -50.127)" fill="#333233" fill-rule="evenodd"/>
    <path id="Path_29574" data-name="Path 29574" d="M77.418,41.23a1.624,1.624,0,0,1-.514.92l-1.918,2.031v.882h4.02V43.982H76.742l1.089-1.158a2.876,2.876,0,0,0,1.012-1.786c0-.85-.767-1.4-1.832-1.4a3.645,3.645,0,0,0-2.178.8l.516.981a2.452,2.452,0,0,1,1.464-.682c.382,0,.6.185.6.491M93.608,42.4c0,1.755.853,2.728,2.383,2.728s2.371-.973,2.371-2.728-.851-2.723-2.371-2.723-2.383.976-2.383,2.723m2.383,1.731c-.689,0-.979-.506-.979-1.731s.29-1.725.979-1.725.977.5.977,1.725-.3,1.731-.977,1.731M80.749,42.4c0,1.755.852,2.728,2.383,2.728s2.37-.973,2.37-2.728-.85-2.723-2.37-2.723-2.383.976-2.383,2.723m2.383,1.731c-.689,0-.979-.506-.979-1.731s.29-1.725.979-1.725.975.5.975,1.725-.3,1.731-.975,1.731m6.855-2.9a1.63,1.63,0,0,1-.516.92l-1.916,2.031v.882h4.02V43.982H89.311L90.4,42.825a2.868,2.868,0,0,0,1.011-1.786c0-.85-.764-1.4-1.831-1.4a3.639,3.639,0,0,0-2.177.8l.515.981a2.458,2.458,0,0,1,1.465-.682c.382,0,.606.185.606.491" transform="translate(11.557 -50.129)" fill="#333233" fill-rule="evenodd"/>
    <path id="Path_29575" data-name="Path 29575" d="M19.039,82.153v6.465H20.5V86.771h1.284c1.644,0,2.586-.869,2.586-2.375,0-1.432-.942-2.243-2.586-2.243Zm1.459,1.21h1.21c.813,0,1.274.359,1.274,1.079,0,.739-.462,1.108-1.274,1.108H20.5Zm10.815.286H29.891v4.969h1.422V86.225c0-.839.628-1.385,1.644-1.293V83.593a1.808,1.808,0,0,0-1.644.951Zm9.171-.047a2.536,2.536,0,1,0,.037,5.07,2.772,2.772,0,0,0,2.124-.876l-.748-.758a1.763,1.763,0,0,1-1.256.528,1.268,1.268,0,0,1-1.283-1h3.564c.12-1.809-.693-2.965-2.438-2.965m-1.154,2.125a1.166,1.166,0,0,1,1.165-1.082,1.037,1.037,0,0,1,1.1,1.082Zm15.728-2.135a1.818,1.818,0,0,0-1.792,1.145,1.65,1.65,0,0,0-1.681-1.145,1.836,1.836,0,0,0-1.68.914v-.858H48.482v4.969h1.423V86.161A1.138,1.138,0,0,1,51.013,84.9a.91.91,0,0,1,.95,1.016v2.706h1.414V86.161a1.136,1.136,0,0,1,1.1-1.265.913.913,0,0,1,.959,1.016v2.706H56.85V85.5a1.725,1.725,0,0,0-1.793-1.9m8.35-2.151a.795.795,0,1,0,.767.793.749.749,0,0,0-.767-.793m.711,2.207H62.7v4.969h1.422Zm10.7,0H73.41v2.457a1.136,1.136,0,0,1-1.1,1.265.9.9,0,0,1-.933-1.008V83.649H69.955v3.122a1.718,1.718,0,0,0,1.792,1.9,1.761,1.761,0,0,0,1.662-.932v.877h1.413Zm12.57-.057A1.817,1.817,0,0,0,85.6,84.738a1.65,1.65,0,0,0-1.681-1.145,1.84,1.84,0,0,0-1.681.914v-.858H80.818v4.969h1.421V86.161A1.138,1.138,0,0,1,83.347,84.9a.911.911,0,0,1,.951,1.016v2.706h1.414V86.161a1.135,1.135,0,0,1,1.1-1.265.913.913,0,0,1,.96,1.016v2.706h1.414V85.5a1.725,1.725,0,0,0-1.793-1.9" transform="translate(2.94 -43.672)" fill="#333233" fill-rule="evenodd"/>
    <path id="Path_29576" data-name="Path 29576" d="M52.371,46.932c-.2-7.774-2.207-14.636-6.615-20.063-4.014-4.944-10.048-8.738-18.556-11,.419,8.616,2.363,15.591,6.352,20.788s10.087,8.669,18.82,10.276m-4.9-21.458c5.007,6.166,7.136,13.968,7.136,22.77h0a1.106,1.106,0,0,1-1.278,1.091C43.293,47.748,36.335,43.914,31.794,38c-4.5-5.863-6.569-13.726-6.856-23.44a1.109,1.109,0,0,1,1.356-1.2c9.762,2.329,16.637,6.531,21.176,12.119" transform="translate(3.85 -54.192)" fill="#333233" fill-rule="evenodd"/>
    <path id="Path_29577" data-name="Path 29577" d="M58.059,45.543a14.777,14.777,0,0,1,3.023-9.585,15.669,15.669,0,0,1,8.887-5.107,1.109,1.109,0,0,1,1.356,1.2c-.127,4.024-1,7.3-2.894,9.764-1.934,2.52-4.874,4.148-9.09,4.816a1.106,1.106,0,0,1-1.265-.918,1.118,1.118,0,0,1-.014-.173ZM62.8,37.352a11.948,11.948,0,0,0-2.474,6.842,10.614,10.614,0,0,0,6.351-3.718A13.218,13.218,0,0,0,69.037,33.4a12.667,12.667,0,0,0-6.24,3.948" transform="translate(8.967 -51.49)" fill="#333233" fill-rule="evenodd"/>
    <path id="Path_29578" data-name="Path 29578" d="M40.881,23.671a15.685,15.685,0,0,0-1.091,5.663,12.436,12.436,0,0,0,1.833,6.66A10.576,10.576,0,0,0,46.8,40.24a14.075,14.075,0,0,0,9.7-.047,10.336,10.336,0,0,0,5.036-4.23l.037-.057A12.573,12.573,0,0,0,63.3,29.37a16.453,16.453,0,0,0-1.213-6.1C59.9,17.8,55.85,10.8,53.037,5.94,52.494,5,52,4.143,51.562,3.378c-.434.763-.929,1.619-1.471,2.554-2.881,4.979-7.062,12.2-9.21,17.739m-3.307,5.663a17.884,17.884,0,0,1,1.248-6.459c2.215-5.712,6.443-13.016,9.357-18.05,1.029-1.778,1.894-3.275,2.409-4.239a1.1,1.1,0,0,1,1.948,0c.516.966,1.383,2.466,2.415,4.246,2.84,4.909,6.928,11.972,9.185,17.622a18.709,18.709,0,0,1,1.377,6.916,14.769,14.769,0,0,1-2.049,7.685l-.038.068a12.529,12.529,0,0,1-6.1,5.121A16.168,16.168,0,0,1,46,42.3a12.758,12.758,0,0,1-6.244-5.129,14.631,14.631,0,0,1-2.181-7.837" transform="translate(5.803 -56.25)" fill="#333233" fill-rule="evenodd"/>
    <path id="Path_29579" data-name="Path 29579" d="M40.323,22.375a15.375,15.375,0,0,0-.522,3.333,12.624,12.624,0,0,0,1.713,7.107A10.585,10.585,0,0,0,46.938,37.3a12.3,12.3,0,0,0,2.526.638,30.067,30.067,0,0,0-3.43-8.8,26.907,26.907,0,0,0-5.711-6.764m-2.73,3.238a17.975,17.975,0,0,1,1.115-5.436,1.075,1.075,0,0,1,.178-.344,1.106,1.106,0,0,1,1.549-.208,29.344,29.344,0,0,1,7.5,8.388,32.908,32.908,0,0,1,3.985,10.929,1.068,1.068,0,0,1,.024.279A1.107,1.107,0,0,1,50.8,40.278a15.1,15.1,0,0,1-4.628-.912,12.774,12.774,0,0,1-6.55-5.407,14.837,14.837,0,0,1-2.025-8.345" transform="translate(5.803 -53.254)" fill="#333233" fill-rule="evenodd"/>
    <path id="Path_29580" data-name="Path 29580" d="M7.795,68.833a3.817,3.817,0,0,1-1.142,2.782A3.729,3.729,0,0,1,3.9,72.769H0V56.312H3.9a3.731,3.731,0,0,1,2.761,1.154,3.812,3.812,0,0,1,1.136,2.772Zm-5.32,1.481h1.5a1.321,1.321,0,0,0,1-.428,1.408,1.408,0,0,0,.406-1V60.275a1.4,1.4,0,0,0-.413-1.012,1.341,1.341,0,0,0-.992-.419h-1.5ZM19.448,56.331a3.79,3.79,0,0,1,3.047,1.142,4.138,4.138,0,0,1,.853,2.78v2.39a3.83,3.83,0,0,1-1.332,2.951l1.837,7.176H21.184l-1.509-6.19c-.072,0-.145,0-.225,0H18.009v6.187H15.534V56.331Zm1.48,3.961a1.26,1.26,0,0,0-1.419-1.43h-1.5v5.264h1.5a1.349,1.349,0,0,0,1-.419,1.391,1.391,0,0,0,.416-1.014Zm14.114-4.164a3.932,3.932,0,0,1,3.932,3.934v8.977a3.925,3.925,0,1,1-7.85,0V60.062a3.93,3.93,0,0,1,3.918-3.934m1.346,3.89A1.409,1.409,0,0,0,34.971,58.6a1.4,1.4,0,0,0-1.01.412,1.357,1.357,0,0,0-.418,1v8.99a1.357,1.357,0,0,0,.418,1,1.392,1.392,0,0,0,1.01.413,1.411,1.411,0,0,0,1.416-1.416ZM50.65,56.331a3.781,3.781,0,0,1,2.887,1.142,3.955,3.955,0,0,1,1,2.782v2.389A3.83,3.83,0,0,1,53.4,65.428a3.718,3.718,0,0,1-2.752,1.154h-1.43v6.187H46.741V56.331Zm1.485,3.961a1.408,1.408,0,0,0-.388-1.037,1.387,1.387,0,0,0-1.032-.394h-1.5v5.264h1.5a1.353,1.353,0,0,0,1-.419,1.391,1.391,0,0,0,.416-1.014Zm16.7,12.477H62.076V56.331h2.476V70.294h4.282Zm7.272,0V56.312h7.058v2.494H78.58v4.488h3.344v2.494H78.58v4.49h4.584v2.492Zm17.522-3.785-.606,3.785H90.436l2.795-16.438h3.411L99.4,72.769h-2.6l-.58-3.785ZM94.921,60.1,94,66.564h1.837Zm14.6,12.671h-2.476V56.312h7.061v2.494h-4.584v4.488h3.342v2.494h-3.342Z" transform="translate(0 -47.582)" fill="#333233" fill-rule="evenodd"/>
  </g>
</svg>
