<svg id="Component_108_1" data-name="Component 108 – 1" xmlns="http://www.w3.org/2000/svg" xmlns:xlink="http://www.w3.org/1999/xlink" width="168.5" height="49.792" viewBox="0 0 168.5 49.792">
  <defs>
    <clipPath id="clip-path">
      <rect id="Rectangle_8156" data-name="Rectangle 8156" width="168.5" height="49.792" fill="none"/>
    </clipPath>
  </defs>
  <g id="Group_7156" data-name="Group 7156" clip-path="url(#clip-path)">
    <path id="Path_29550" data-name="Path 29550" d="M1036.988,322.391a.089.089,0,0,0-.126-.006,34.933,34.933,0,0,1-6.111,4.008,13.243,13.243,0,0,1-3.323,1.142,8.834,8.834,0,0,1-1.693.162,7.546,7.546,0,0,1-.791-.047,1.558,1.558,0,0,1-.555-.2c-.58-.338-.758-1.457-.687-2.567a20.728,20.728,0,0,1,.59-3.46,67.5,67.5,0,0,1,2.211-6.948l.009-.024a.789.789,0,0,0-1.4-.7c-.486.75-1.014,1.481-1.567,2.2a3.293,3.293,0,0,0-1.49-1.109,4.474,4.474,0,0,0-2.549-.136l-.618.16-.594.215a7.116,7.116,0,0,0-1.147.546,12.91,12.91,0,0,0-2.026,1.477,16.966,16.966,0,0,0-3.182,3.827,11.7,11.7,0,0,0-1.1,2.331,5.61,5.61,0,0,0-.274,1.385,2.782,2.782,0,0,0,.4,1.7,1.825,1.825,0,0,0,.391.42,2.266,2.266,0,0,0,.287.189c.1.039.2.075.3.107a1.926,1.926,0,0,0,.547.074,3.7,3.7,0,0,0,.454-.041,5.5,5.5,0,0,0,1.374-.487,15.4,15.4,0,0,0,2.13-1.389,35.507,35.507,0,0,0,3.646-3.245q1.648-1.646,3.158-3.413c-.266.793-.52,1.592-.737,2.409a17.724,17.724,0,0,0-.628,3.834,7.158,7.158,0,0,0,.209,2.1,3.753,3.753,0,0,0,.491,1.092,2.931,2.931,0,0,0,.95.9,3.22,3.22,0,0,0,1.191.377,7.794,7.794,0,0,0,1.058.015,10.331,10.331,0,0,0,1.971-.326,13.1,13.1,0,0,0,3.55-1.551,26.26,26.26,0,0,0,5.681-4.892.089.089,0,0,0,0-.123m-24.5,2.925,0,0c.023.038.01.013,0,0m6.477-4.513a42.544,42.544,0,0,1-3.595,2.97,13.894,13.894,0,0,1-1.89,1.176,3.819,3.819,0,0,1-.863.324.3.3,0,0,1-.253-.552,4.262,4.262,0,0,1,.163-.955,10.037,10.037,0,0,1,.842-2.021,17.2,17.2,0,0,1,2.678-3.673,9.4,9.4,0,0,1,3.679-2.527,3.953,3.953,0,0,1,2.159-.182,3.082,3.082,0,0,1,1.474.811q-.37.472-.755.935c-1.15,1.29-2.38,2.52-3.64,3.693" transform="translate(-920.858 -285.57)" fill="#56617c"/>
    <path id="Path_29551" data-name="Path 29551" d="M1626.719,322.391a.089.089,0,0,0-.126-.006,34.921,34.921,0,0,1-6.111,4.008,13.236,13.236,0,0,1-3.323,1.142,8.833,8.833,0,0,1-1.693.162,7.546,7.546,0,0,1-.791-.047,1.558,1.558,0,0,1-.555-.2c-.58-.338-.758-1.457-.687-2.567a20.678,20.678,0,0,1,.589-3.46,67.5,67.5,0,0,1,2.211-6.948l.009-.024a.789.789,0,0,0-1.4-.7c-.486.75-1.014,1.481-1.567,2.2a3.293,3.293,0,0,0-1.49-1.109,4.475,4.475,0,0,0-2.549-.136l-.618.16-.594.215a7.109,7.109,0,0,0-1.147.546,12.891,12.891,0,0,0-2.025,1.477,16.964,16.964,0,0,0-3.182,3.827,11.7,11.7,0,0,0-1.1,2.331,5.621,5.621,0,0,0-.274,1.385,2.781,2.781,0,0,0,.4,1.7,1.823,1.823,0,0,0,.391.42,2.257,2.257,0,0,0,.287.189c.1.039.2.075.3.107a1.928,1.928,0,0,0,.547.074,3.705,3.705,0,0,0,.454-.041,5.5,5.5,0,0,0,1.374-.487,15.4,15.4,0,0,0,2.13-1.389,35.481,35.481,0,0,0,3.646-3.245q1.648-1.646,3.158-3.413c-.267.793-.52,1.592-.737,2.409a17.709,17.709,0,0,0-.628,3.834,7.154,7.154,0,0,0,.209,2.1,3.75,3.75,0,0,0,.491,1.092,2.93,2.93,0,0,0,.95.9,3.218,3.218,0,0,0,1.191.377,7.794,7.794,0,0,0,1.058.015,10.334,10.334,0,0,0,1.971-.326,13.1,13.1,0,0,0,3.55-1.551,26.26,26.26,0,0,0,5.681-4.892.09.09,0,0,0,0-.123m-24.5,2.925,0,0c.023.038.01.013,0,0m6.477-4.513a42.505,42.505,0,0,1-3.595,2.97,13.886,13.886,0,0,1-1.89,1.176,3.815,3.815,0,0,1-.863.324.3.3,0,0,1-.253-.552,4.268,4.268,0,0,1,.163-.955,10.03,10.03,0,0,1,.842-2.021,17.206,17.206,0,0,1,2.678-3.673,9.4,9.4,0,0,1,3.679-2.527,3.952,3.952,0,0,1,2.159-.182,3.083,3.083,0,0,1,1.475.811q-.37.472-.755.935c-1.15,1.29-2.38,2.52-3.64,3.693" transform="translate(-1458.242 -285.57)" fill="#56617c"/>
    <path id="Path_29552" data-name="Path 29552" d="M1320.074,316.49c-1.06.625-2.1,1.272-3.182,1.823a15.462,15.462,0,0,1-3.268,1.355,4.3,4.3,0,0,1-1.573.122,2.279,2.279,0,0,1-.671-.2,1.882,1.882,0,0,1-.534-.37,4.3,4.3,0,0,1-.724-1.31,16.13,16.13,0,0,1-.517-1.665c-.3-1.153-.561-2.348-.879-3.552a15.416,15.416,0,0,0-1.351-3.656,4.647,4.647,0,0,0-.679-.915,2.556,2.556,0,0,0-1.169-.707,2.134,2.134,0,0,0-.766-.064,2.407,2.407,0,0,0-.679.185,4.46,4.46,0,0,0-.962.582,17.912,17.912,0,0,0-2.675,2.78c-.295.366-.578.738-.862,1.11-1.283,1.556-2.48,3.162-3.676,4.762l-1.507,2.043c.346-1.849.712-3.718,1.031-5.595.2-1.214.392-2.433.532-3.663.071-.615.118-1.235.149-1.857.014-.312.022-.625.012-.941a3.822,3.822,0,0,0-.052-.481,1.3,1.3,0,0,0-.071-.249.3.3,0,0,0-.244-.217l-.016.177c.029.006.062.178.051.312s-.028.292-.049.438c-.044.3-.105.592-.173.888-.134.592-.3,1.18-.46,1.769l-.984,3.534c-.643,2.368-1.317,4.71-1.826,7.164-.063.311-.119.623-.161.965a3.856,3.856,0,0,0-.034.615,1.418,1.418,0,0,0,.047.314,1.262,1.262,0,0,0,.061.166l.04.082a1.032,1.032,0,0,0,.148.195.981.981,0,0,0,.838.295,1.194,1.194,0,0,0,.361-.116c.052-.029.1-.06.153-.094a2.143,2.143,0,0,0,.178-.144,6.208,6.208,0,0,0,.706-.815l.559-.765c.722-1.014,1.4-2.031,2.082-3.05,1.1-1.651,2.229-3.285,3.422-4.848.288-.35.577-.7.874-1.039a15.872,15.872,0,0,1,2.511-2.414,2.838,2.838,0,0,1,.622-.342.426.426,0,0,1,.35-.019,1.774,1.774,0,0,1,.757.842,16.906,16.906,0,0,1,1.124,3.25c.314,1.165.611,2.36.989,3.563a17.726,17.726,0,0,0,.67,1.813,5.2,5.2,0,0,0,1.2,1.8,3.33,3.33,0,0,0,1.017.6,3.711,3.711,0,0,0,1.108.235,5.251,5.251,0,0,0,2.053-.341,13.983,13.983,0,0,0,3.329-1.853,34.346,34.346,0,0,0,2.873-2.349Z" transform="translate(-1177.414 -278.666)" fill="#56617c"/>
    <path id="Path_29553" data-name="Path 29553" d="M890.58,302.907a43.969,43.969,0,0,1-4.07,6.74l-2.248,3.217a28.017,28.017,0,0,1-2.415,3.062,8.958,8.958,0,0,1-1.443,1.125,1.247,1.247,0,0,1-.169.085.5.5,0,0,1-.079.031c-.031-.059-.065-.137-.1-.222a11.349,11.349,0,0,1-.432-1.735c-.116-.625-.224-1.265-.323-1.91-.419-2.586-.731-5.232-1.272-7.882l-.178,0a29.676,29.676,0,0,0-.391,4.033,36.064,36.064,0,0,0,.074,4.058,20.086,20.086,0,0,0,.271,2.047,9.1,9.1,0,0,0,.645,2.111,3.541,3.541,0,0,0,.373.593,2.308,2.308,0,0,0,.328.324,1.425,1.425,0,0,0,.568.253,2.22,2.22,0,0,0,.325.029,2.185,2.185,0,0,0,.239-.037,1.516,1.516,0,0,0,.393-.125,1.748,1.748,0,0,0,.306-.155c.088-.055.191-.107.265-.165a10.281,10.281,0,0,0,1.607-1.452,29.616,29.616,0,0,0,5.157-6.328,26.434,26.434,0,0,0,1.8-3.671,12.244,12.244,0,0,0,.945-3.992Zm-10.558,14.3h.01c-.005,0-.006,0-.01,0" transform="translate(-799.546 -276.02)" fill="#56617c"/>
    <path id="Path_29554" data-name="Path 29554" d="M44.292,28.816a11.432,11.432,0,0,1-4.006,2.846,15.768,15.768,0,0,1-4.781,1.128,33.273,33.273,0,0,1-4.643.1c.3-2.461.74-4.911,1.218-7.35.823-4.077,1.853-8.118,2.905-12.164q.778-3.038,1.51-6.1c.478-2.046.958-4.1,1.292-6.2L37.953.026,36.913,0a2.906,2.906,0,0,0-1.381.341A5.257,5.257,0,0,0,34.545,1,12,12,0,0,0,33.06,2.527a33.634,33.634,0,0,0-2.352,3.282c-1.43,2.241-2.726,4.53-4.018,6.816-1.766,3.13-3.506,6.265-5.336,9.337-.864,1.4-1.741,2.79-2.658,4.151-1.232,1.824-2.522,3.606-3.914,5.284a40,40,0,0,0-9.5.4l-.033.006-.029.008a8.616,8.616,0,0,0-3.855,2.03A4.581,4.581,0,0,0,.109,35.921a3.287,3.287,0,0,0-.065,1.355,3.067,3.067,0,0,0,.555,1.3,3.71,3.71,0,0,0,2.189,1.318,6.811,6.811,0,0,0,2.269.076,13.2,13.2,0,0,0,4.02-1.277,15.408,15.408,0,0,0,3.4-2.391,29.938,29.938,0,0,0,2.8-2.918c.1-.12.2-.245.3-.366,3.279.131,6.568.5,9.886.715,1.383.087,2.775.163,4.171.193-.069,1.312-.1,2.627-.065,3.945a26.006,26.006,0,0,0,.868,6.291,14.777,14.777,0,0,0,2.839,5.635l.14-.111a15.183,15.183,0,0,1-2.389-5.668,28.459,28.459,0,0,1-.51-6.155c.018-1.312.108-2.62.24-3.925a34.414,34.414,0,0,0,4.861-.312,16.259,16.259,0,0,0,4.9-1.479,11.15,11.15,0,0,0,3.922-3.214Zm-16.2-15.387c1.327-2.255,2.656-4.508,4.086-6.662a33.279,33.279,0,0,1,2.259-3.083A10.471,10.471,0,0,1,35.652,2.45c-.678,3.5-1.543,6.995-2.378,10.5-.95,4.076-1.884,8.172-2.611,12.319a72.49,72.49,0,0,0-.971,7.554c-1.375-.089-2.751-.225-4.124-.374-2.921-.324-5.857-.677-8.822-.915,1.139-1.491,2.2-3.03,3.213-4.591.905-1.4,1.77-2.823,2.622-4.251,1.893-3.064,3.7-6.174,5.509-9.263M3.2,38.1a1.971,1.971,0,0,1-1.126-.641,1.25,1.25,0,0,1-.186-1.085,2.783,2.783,0,0,1,.76-1.237,6.839,6.839,0,0,1,3.007-1.581,39.671,39.671,0,0,1,7.775-.6,18.422,18.422,0,0,1-5.138,4.138,11.472,11.472,0,0,1-3.45,1.067A5,5,0,0,1,3.2,38.1" transform="translate(0 -0.001)" fill="#56617c"/>
    <path id="Path_29555" data-name="Path 29555" d="M497.523,317.019a31.5,31.5,0,0,1-4.692,1.911,8.255,8.255,0,0,1-2.383.366,4.068,4.068,0,0,1-1.109-.169,2.9,2.9,0,0,1-.5-.2.84.84,0,0,1-.284-.254,7.276,7.276,0,0,1-.869-2.12l-.669-2.465a14.109,14.109,0,0,0-.93-2.54,4.966,4.966,0,0,0-.875-1.26,2.693,2.693,0,0,0-1.643-.816,2.223,2.223,0,0,0-1.039.177,4.1,4.1,0,0,0-.72.4,8.58,8.58,0,0,0-1.1.916,20.628,20.628,0,0,0-1.776,1.991c-1.1,1.36-2.056,2.79-3.028,4.194l-1.44,2.09c-.082.116-.166.229-.249.343-.075-.5-.138-1.03-.206-1.542-.109-.848-.224-1.7-.364-2.559-.09-.548-.2-1.1-.315-1.645-.058-.31-.115-.62-.186-.931a11.321,11.321,0,0,0-.882-2.591,4.3,4.3,0,0,0-.922-1.247,2.478,2.478,0,0,0-1.7-.657,3.12,3.12,0,0,0-1.617.556,7.1,7.1,0,0,0-1.119.919,23.138,23.138,0,0,0-3.178,4.253c-.7,1.13-1.34,2.288-1.951,3.454l.155-.838c.3-1.683.594-3.369.826-5.068.122-.849.21-1.7.284-2.563.035-.429.062-.861.07-1.295a6.309,6.309,0,0,0-.025-.657,1.083,1.083,0,0,0-.226-.676l-.111.138a1.066,1.066,0,0,1,.054.543c-.014.206-.046.414-.075.621-.063.415-.145.831-.235,1.245-.177.828-.4,1.651-.6,2.476l-1.287,4.944c-.416,1.657-.867,3.291-1.231,4.994-.045.217-.09.43-.128.669a2.663,2.663,0,0,0-.041.468,1.018,1.018,0,0,0,.018.165.733.733,0,0,0,.037.145.927.927,0,0,0,.3.414.9.9,0,0,0,.7.157.759.759,0,0,0,.282-.109,1.1,1.1,0,0,0,.156-.113l.048-.047a1.445,1.445,0,0,0,.13-.15l.073-.1c.3-.45.476-.8.691-1.189l1.2-2.263c.792-1.5,1.6-2.984,2.441-4.43a24.242,24.242,0,0,1,2.826-4.007,5.52,5.52,0,0,1,.827-.735,1.622,1.622,0,0,1,.748-.328.868.868,0,0,1,.636.236,2.8,2.8,0,0,1,.6.789,9.917,9.917,0,0,1,.819,2.221c.083.318.152.643.221.968.088.492.164.989.233,1.481.112.831.2,1.67.284,2.517s.144,1.675.313,2.621a2.99,2.99,0,0,0,.111.417,1.4,1.4,0,0,0,.172.341,1.289,1.289,0,0,0,.137.154.98.98,0,0,0,.329.193.953.953,0,0,0,.56.007,1.255,1.255,0,0,0,.4-.2,2.428,2.428,0,0,0,.194-.16c.111-.1.194-.19.28-.282.325-.358.59-.7.857-1.051.529-.694,1.026-1.389,1.52-2.084.984-1.389,1.986-2.753,3.012-4.064a23.736,23.736,0,0,1,1.607-1.844,6.9,6.9,0,0,1,.846-.739,1.671,1.671,0,0,1,.6-.3.949.949,0,0,1,.605.291,3.327,3.327,0,0,1,.6.816,14.4,14.4,0,0,1,.918,2.223l.808,2.435a7.638,7.638,0,0,0,1.271,2.495,2.037,2.037,0,0,0,.716.525,4.05,4.05,0,0,0,.707.228,4.746,4.746,0,0,0,1.425.1,8.888,8.888,0,0,0,2.613-.644,26.469,26.469,0,0,0,4.521-2.511Zm-36.609,5.492s0,.008,0,.006,0,0,0-.006" transform="translate(-418.453 -279.284)" fill="#56617c"/>
  </g>
</svg>
