<svg id="Component_1_1" data-name="Component 1 – 1" xmlns="http://www.w3.org/2000/svg" xmlns:xlink="http://www.w3.org/1999/xlink" width="142" height="90.902" viewBox="0 0 142 90.902">
  <defs>
    <clipPath id="clip-path">
      <rect id="Rectangle_8023" data-name="Rectangle 8023" width="142" height="90.902" fill="#845252"/>
    </clipPath>
  </defs>
  <g id="Group_7087" data-name="Group 7087" clip-path="url(#clip-path)">
    <path id="Path_28429" data-name="Path 28429" d="M78.776,1.989a3.177,3.177,0,0,1-.258.618l-.309.927h.051a9.1,9.1,0,0,0-.464,1.03L76.716,7.241a3.32,3.32,0,0,0-.206.67,3.065,3.065,0,0,0-.309.566c-1.442,3.3-2.832,6.539-4.222,9.835-1.39,3.347-2.729,6.694-4.068,9.99-.772,1.854-1.442,3.707-2.163,5.509-.154.412-.206.773-.36,1.185l.051-.052a3.491,3.491,0,0,0-.309.618c-.618,1.545-1.184,3.141-1.751,4.686l-1.545,4.325c-.515,1.545-1.03,3.038-1.545,4.583l-1.6,4.686c-.515,1.648-.979,3.3-1.494,4.943l-.772,2.472c-.309,1.03-.618,2.06-.875,3.09a3.787,3.787,0,0,0-.206.721l-.309,1.493c-.051.155-.206.309-.206.515-.309.979-.567,2.008-.824,2.987a10.1,10.1,0,0,0-.309,1.185,11.961,11.961,0,0,0-.257,1.441,2.509,2.509,0,0,0-.051.618c-.051-.051-.1-.051-.206-.1l-.464,1.854c-.257,1.082-.566,2.163-.824,3.244-.257,1.236-.567,2.472-.824,3.707-.309,1.236-.567,2.472-.824,3.707a2.6,2.6,0,0,1-.1.67,3.785,3.785,0,0,0,0,1.081,1.305,1.305,0,0,1,.1.618.56.56,0,0,1-.463.618.89.89,0,0,1-.875.051.189.189,0,0,0-.155-.051.8.8,0,0,1-.721-.978c.1-.67.1-1.339.257-2.009.309-1.8.669-3.656,1.081-5.509.464-2.06.875-4.119,1.39-6.231.566-2.06.979-4.119,1.493-6.231.309-1.236.618-2.471.979-3.656l1.9-7A9.386,9.386,0,0,1,55.552,56c0-.1.1-.257.1-.412.515-1.6,1.03-3.193,1.493-4.789.206-.669.464-1.39.721-2.06.669-1.956,1.339-3.965,2.06-5.921.412-1.288.875-2.523,1.339-3.811l1.081-3.038c.155-.412.361-.875.515-1.339l1.082-2.729c.309-.824.618-1.6.927-2.42l.618-1.6c.566-1.39,1.133-2.781,1.648-4.171.36-.772.721-1.6,1.03-2.369l2.008-4.84c.412-.979.876-1.957,1.287-2.884.412-1.03.875-2.059,1.287-3.089.669-1.493,1.339-2.987,1.957-4.531a1,1,0,0,0,.154-.669,1.11,1.11,0,0,0-.721.463c-.464.669-.927,1.39-1.442,2.008-.1.1-.1.309-.206.412-.515.515-.876,1.133-1.339,1.648a.05.05,0,0,0-.051.051h-.051c0,.155-.051.258-.051.361a5.026,5.026,0,0,0-1.082,1.493.1.1,0,0,0-.154,0,.733.733,0,0,0-.1.309c-.052,0-.1.052-.155.1-.515.772-1.236,1.441-1.7,2.266l-1.133,1.545c-.155.206-.258.412-.412.618a1.076,1.076,0,0,1-.206.309,2.9,2.9,0,0,0-.309.412c-.36.361-.463.927-1.03,1.236-.258.412-.515.927-.824,1.339-.206.309-.515.618-.773.926a.927.927,0,0,0-.257.361c-.567.772-1.133,1.545-1.751,2.317a.308.308,0,0,1-.051.206v.155h-.051a.18.18,0,0,1-.051.1,7.525,7.525,0,0,0-1.287,1.648A12.237,12.237,0,0,0,59,26.705l-.155.206a20.507,20.507,0,0,0-1.236,1.7,6.394,6.394,0,0,0-.721.926.92.92,0,0,1-.258.361,3.385,3.385,0,0,0-.618.876,4.862,4.862,0,0,1-.464.618,2.835,2.835,0,0,0-.669.875.867.867,0,0,1-.1.258c-.515.669-.979,1.287-1.442,1.957a10.347,10.347,0,0,1-1.133,1.493.923.923,0,0,0-.257.36c-.515.721-1.03,1.442-1.6,2.163a12.1,12.1,0,0,0-.979,1.287l-.412.618c-.36.515-.772,1.03-1.133,1.545a3.618,3.618,0,0,0-.412.515l-1.8,2.472c-.309.412-.669.772-.927,1.133-2.163,2.884-4.48,5.664-6.9,8.342a17.063,17.063,0,0,1-2.266,2.059,3.932,3.932,0,0,1-1.339.772,1.86,1.86,0,0,1-1.648.052c-.206-.1-.412-.154-.618-.258a1.751,1.751,0,0,1-1.082-1.6,13.813,13.813,0,0,1,.1-2.06,35.163,35.163,0,0,1,.927-3.862c.412-1.338.927-2.729,1.39-4.068l1.236-3.141c.051-.154.154-.36.206-.515.927-2.163,1.854-4.274,2.832-6.385.309-.669.618-1.339.978-2.06s.721-1.493,1.03-2.214c.463-.875.875-1.8,1.339-2.677.566-1.184,1.133-2.369,1.751-3.553.566-1.081,1.081-2.214,1.648-3.3.1-.309.309-.566.258-.875-.206,0-.309.154-.412.257a8.616,8.616,0,0,0-.669.721L39.59,26.294c-1.133,1.287-2.214,2.574-3.3,3.862-.412.515-.875.978-1.287,1.442-.772.978-1.545,1.905-2.266,2.832-.669.772-1.287,1.545-1.905,2.317-.978,1.184-1.9,2.317-2.884,3.45l-1.7,2.163c-1.133,1.442-2.266,2.832-3.4,4.274l-2.111,2.781c-1.9,2.317-3.656,4.737-5.509,7.106-1.287,1.7-2.523,3.347-3.759,5.046-.927,1.287-1.854,2.574-2.832,3.862-1.133,1.545-2.266,3.038-3.4,4.531-.669.927-1.339,1.8-2.06,2.678a2.35,2.35,0,0,1-.618.618,1.4,1.4,0,0,1-1.648.412l-.412-.154c-.515-.257-.566-.412-.463-.978a28.318,28.318,0,0,1,.824-2.781l.927-2.472c.257-.618.566-1.236.824-1.854l1.7-3.862C4.832,60.279,5.4,58.991,5.965,57.7c.721-1.648,1.493-3.3,2.214-4.944.257-.515.463-1.03.721-1.545.875-2.008,1.8-4.017,2.729-6.024.669-1.494,1.39-2.987,2.059-4.48L15.7,36.283c.721-1.648,1.339-3.3,1.957-4.943a1.275,1.275,0,0,1,.206-.464.368.368,0,0,1,.309-.154.189.189,0,0,1,.206.206,8.88,8.88,0,0,1-.824,3.347.05.05,0,0,1,.051.051l-.464,1.545c-.1.206-.257.412-.36.618v-.154c-.051,0-.051,0-.1.052v.1h.1a2.576,2.576,0,0,1-.464,1.236v-.361a1.334,1.334,0,0,0-.154.361l-.464.926c-.721,1.7-1.442,3.45-2.214,5.15-1.133,2.678-2.317,5.3-3.45,7.93-1.8,4.171-3.6,8.342-5.355,12.513C3.905,66.1,3.185,67.951,2.464,69.8c-.1.154-.206.361-.1.515a1.5,1.5,0,0,0,.36-.618c.412-1.082.824-2.163,1.287-3.3.772-1.854,1.545-3.708,2.369-5.561,1.184-2.832,2.369-5.613,3.6-8.393C10.7,50.7,11.423,49,12.2,47.251l.773-1.545c-.155.412-.309.875-.464,1.287l-1.7,3.965c-.515,1.236-1.082,2.472-1.648,3.707-.463,1.133-1.03,2.266-1.39,3.4-.412,1.184-1.081,2.266-1.493,3.45-.463,1.03-.875,2.111-1.287,3.193a1.556,1.556,0,0,1-.206.412c-.618,1.236-1.03,2.574-1.545,3.862a.389.389,0,0,1-.051.206A5.114,5.114,0,0,0,4.42,67.848C5.3,66.612,6.171,65.325,7.1,64.14c1.7-2.214,3.3-4.532,4.943-6.8,1.493-1.957,2.986-3.913,4.428-5.87l2.472-3.244c1.339-1.7,2.626-3.347,3.913-4.995,1.236-1.6,2.523-3.141,3.759-4.737l2.78-3.4c.772-.979,1.6-1.957,2.369-2.884L33.05,30.67c.618-.721,1.236-1.441,1.8-2.163l2.935-3.5c.566-.618,1.082-1.236,1.6-1.905L41.6,20.423a.515.515,0,0,1,.206-.257c.875-.875,1.648-1.905,2.523-2.832l1.39-1.39a1.662,1.662,0,0,1,1.7-.464c.1.051.258.051.412.1a1.714,1.714,0,0,1,1.082.566c.154.1.154.258.1.464-.309.772-.566,1.545-.927,2.266-.463,1.133-.978,2.214-1.493,3.3a8.556,8.556,0,0,0-.412,1.03c-.154.206-.309.464-.464.721-.412.875-.875,1.7-1.287,2.575a6.893,6.893,0,0,0-.36.926c-.051.155-.154.258-.206.412l-.1.1v.051l.1-.154h.1a.945.945,0,0,1-.412.721,1.137,1.137,0,0,0-.154.258l.051-.052c-.1.155-.257.309-.309.412a12.037,12.037,0,0,0-.979,2.214,1.805,1.805,0,0,1-.257.412c-.051.154-.206.309-.309.515l-1.081,2.317a3.575,3.575,0,0,0-.309.875,2.564,2.564,0,0,0-.515.978h.051a2.444,2.444,0,0,0-.464.979l-.515.927L37.53,41.329c-.051.1-.051.258-.1.412V41.69c-.1.257-.257.412-.361.669-.566,1.39-1.082,2.781-1.6,4.119l-.154.36a44.864,44.864,0,0,0-1.6,5.1,15.743,15.743,0,0,0-.361,2.163,2.72,2.72,0,0,0,.206,1.287c.155-.052.309-.1.361-.206.515-.464,1.03-.927,1.545-1.442l2.472-2.78c.721-.876,1.493-1.751,2.162-2.678.979-1.287,2.112-2.472,3.038-3.862a11.662,11.662,0,0,1,1.03-1.339l3.553-4.789c.618-.824,1.184-1.648,1.751-2.472l1.956-2.626c1.03-1.236,1.854-2.575,2.781-3.862.979-1.287,1.957-2.678,2.935-4.016l4.017-5.51c.824-1.184,1.7-2.317,2.523-3.5l2.575-3.553c.824-1.082,1.648-2.215,2.471-3.347,1.236-1.648,2.42-3.3,3.707-4.943.824-1.082,1.648-2.111,2.523-3.192a7.434,7.434,0,0,1,.927-.876,1.052,1.052,0,0,1,1.03-.361,3.676,3.676,0,0,1,1.648.721,1,1,0,0,1,.206,1.236M.97,71.555A.05.05,0,0,1,.919,71.5a.05.05,0,0,1-.051.051l.051.051c.051,0,.051,0,.051-.051m.978-2.266a1.594,1.594,0,0,0,.258-.618,1.37,1.37,0,0,0,.154-.618.389.389,0,0,1,.206-.361.543.543,0,0,0,.1-.257,1.231,1.231,0,0,0,.257-.721.979.979,0,0,0,.258-.515.774.774,0,0,0,.206-.566,6.089,6.089,0,0,0,.258-.567v.051a13.555,13.555,0,0,0,.978-2.369L4.575,62.7a4.782,4.782,0,0,0,.257-.515A2.05,2.05,0,0,0,5.3,61.1l.257-.567c.051-.155.154-.361.206-.515a13.3,13.3,0,0,0,1.184-2.626l-.051-.051a2.784,2.784,0,0,0,.515-1.03v-.052l-.051.052a.718.718,0,0,0,.154-.206l1.854-4.222c.154-.36.36-.721.515-1.082l.309-.721c.412-.875.772-1.8,1.184-2.677.464-.979.927-2.008,1.339-3.038a4.975,4.975,0,0,0,.515-1.545,1.537,1.537,0,0,0,.36-.824,1.615,1.615,0,0,0-.36.824,1.7,1.7,0,0,0-.361.669l-1.236,2.626c-1.905,4.325-3.862,8.6-5.767,12.925-1.442,3.244-2.832,6.54-4.068,9.784a5.824,5.824,0,0,0-.464,1.441.731.731,0,0,1-.1.309h.051c0-.1.051-.206.051-.309l.206.206a4.761,4.761,0,0,1,.154-.464H1.64c.1-.206.206-.463.309-.669H1.9v-.1c0,.051,0,.051.051.051m-.309.618v0Zm.515-1.339a.158.158,0,0,0,.052.1H2.154Zm2.42-5.87v0Zm2.317-5.355v0Zm3.6,4.789h-.051l-.154.36a1.071,1.071,0,0,1,.206-.309v-.051c.051-.052.051,0,0,0M13.226,45.14l-.257.566a2.731,2.731,0,0,1,.257-.566m.206-.515a.926.926,0,0,1-.206.464,1.83,1.83,0,0,0,.206-.464m0-.051a4.027,4.027,0,0,1,.464-1.082,1.717,1.717,0,0,1-.464,1.082m.412-3.193a4.486,4.486,0,0,0,.721-1.6,1.461,1.461,0,0,0,.515-1.133l-.155.155c-.1.309-.257.669-.36.978a5.472,5.472,0,0,0-.721,1.6m.051,2.111c.1-.154.154-.36.257-.515a1.21,1.21,0,0,1-.257.515m.257-.566.206-.515c-.051.206-.154.361-.206.567Zm.206-.515.258-.566a1.141,1.141,0,0,1-.258.566m.258-.566a2.466,2.466,0,0,1,.464-1.082,2.245,2.245,0,0,1-.464,1.082m.464-1.082a9.223,9.223,0,0,1,.978-2.317,8.931,8.931,0,0,1-.978,2.317m.36-2.832c.051-.052.1-.1.1-.155.051-.1.1-.206,0-.257-.1.1-.206.206-.1.412M16.573,54.1a1.092,1.092,0,0,0-.515.67,1.073,1.073,0,0,0-.412.515,1.214,1.214,0,0,0,.412-.515,1.681,1.681,0,0,0,.515-.67m-.876-.515.052-.051H15.7Zm.464-15.859h.154a2.029,2.029,0,0,1-.257.721,3.475,3.475,0,0,1,.1-.721m.361-1.03a.05.05,0,0,0,.051.051.189.189,0,0,0,.051-.154Zm.463-1.133.051.052v-.1Zm.566-1.39v.1c.051-.051.051-.051.051-.1a.05.05,0,0,1-.051-.051Zm3.6,14.006c0-.051,0-.051.051-.1-.051,0-.1,0-.1.051v.1a.05.05,0,0,1,.051-.051m.618-2.471a2.581,2.581,0,0,0-.361.412c.1-.154.258-.257.361-.412m0,1.6-.051.051c.051,0,.051,0,.051-.051m.875-1.03a2.36,2.36,0,0,0-.36.36Zm1.39-1.8a2.365,2.365,0,0,1-.361.361l-.154.361a1.2,1.2,0,0,0-.36.36,2.378,2.378,0,0,1,.36-.36l.154-.309c.1-.155.258-.258.361-.412m1.442-1.8h-.051v.051Zm1.184-3.141h-.051c-.052.051-.052.1-.1.1a.181.181,0,0,0,.1-.051.05.05,0,0,0,.051-.051m-.051,1.6c0,.051,0,.051-.052.051a.179.179,0,0,1-.051.1.182.182,0,0,0,.1-.051Zm1.133-1.39h0Zm1.905-2.266a2.546,2.546,0,0,1-.361.412v.052l.051-.052Zm1.956-2.317a.69.69,0,0,0-.36.412,1.4,1.4,0,0,1,.36-.412m1.133-2.986a.091.091,0,1,0-.1-.1Zm.618,15.55a.667.667,0,0,0-.257.618c.1-.206.154-.412.257-.618m.206,3.038a8,8,0,0,0-.206,1.081h.051c.206-.772.412-1.545.669-2.317.721-1.956,1.39-3.913,2.163-5.87,1.184-2.935,2.523-5.921,3.913-8.8,1.751-3.656,3.553-7.364,5.355-11.02l2.163-4.635a1.45,1.45,0,0,0,.206-.772,3.858,3.858,0,0,0-.36.618l-.618,1.39c-1.8,3.656-3.656,7.312-5.407,10.917-1.184,2.42-2.317,4.891-3.4,7.311-.824,1.8-1.545,3.656-2.317,5.459a55.787,55.787,0,0,0-2.214,6.642m.309-18.383c-.154.154-.258.309-.361.412l-.051.051h.051a2.94,2.94,0,0,1,.361-.412Zm-.309,14.469h.051a.653.653,0,0,0,.051-.309l.412-.773a.465.465,0,0,1,.051-.257,2.073,2.073,0,0,0-.464,1.03.731.731,0,0,1-.1.309m.051,6.694v-.154h.051a.189.189,0,0,0-.051.154m.412-23.12v.051l.051-.051c.051-.051,0,0-.051,0m.154,20.7v-.154c0-.051.051-.051.051-.1v.1a.189.189,0,0,1-.051.154m.154-6.385a.159.159,0,0,1,.1-.051.309.309,0,0,1,.052-.206c.051-.051.051-.1.1-.206h-.052c0,.052-.051.155-.051.206l-.155.155Zm.206,5.046a.178.178,0,0,0,.052-.1v.052a.051.051,0,0,1-.052.051m.309-6.334H34.9c0-.051.051-.154.051-.206a.71.71,0,0,1,.154-.206c-.051-.051-.051-.051-.1-.051a.464.464,0,0,1-.051.257.39.39,0,0,0-.1.206m.566-1.184.257-.464c.206-.464.412-.824.618-1.287h-.051a3.223,3.223,0,0,1,.515-1.133v.412c.051-.257.1-.309.1-.412a2.852,2.852,0,0,0,.257-.412v-.1a3.1,3.1,0,0,1,.206-.412v-.051a4.3,4.3,0,0,0,.669-1.493c.1-.154.155-.36.258-.515a3.04,3.04,0,0,1,.206-.412v-.1a1.836,1.836,0,0,0,.206-.464L38.92,35v-.052a2.146,2.146,0,0,0,.412-.927h-.154a4.223,4.223,0,0,1,.464-.979c-.051.206-.051.412-.1.567.1-.154.154-.36.257-.515l.154-.412H40v-.052a1.114,1.114,0,0,0,.257-.412L41.34,29.95a1.638,1.638,0,0,0,.154-.464,1.029,1.029,0,0,0,.206-.412,1.03,1.03,0,0,0,.206-.412,2.878,2.878,0,0,0,.257-.412,3.059,3.059,0,0,1,.206-.412v-.052a3.682,3.682,0,0,0,.618-1.287,3.058,3.058,0,0,0,.206-.412h-.1v-.051a.051.051,0,0,1-.052.051,1.816,1.816,0,0,0,.1-.515l-.412.618c-1.6,3.244-3.192,6.437-4.686,9.732-.927,1.957-1.751,4.017-2.626,6.025-.051.1-.154.206,0,.309M36.14,29.64a1.83,1.83,0,0,0-.721.824,1.405,1.405,0,0,0,.721-.824m.154,11.225c.051-.206.1-.309.1-.361h-.1Zm.876-2.472c0,.155-.052.309-.052.463,0,.052-.051.052-.051.1a1.032,1.032,0,0,1-.206.412h-.1a2.661,2.661,0,0,1,.412-.978m.36-10.4a2.951,2.951,0,0,0-.36.412,1.4,1.4,0,0,0,.36-.412m-.1,9.887c-.051.155-.051.309-.1.515v.051H37.17a5.994,5.994,0,0,1,.257-.566m0,3.862h.154c-.1.1-.154.051-.154,0m.463-15.808.052-.051H37.89c-.051.1-.1.154-.051.1Zm.206,10.4c-.051.206-.051.412-.1.566h-.154a1.891,1.891,0,0,0,.258-.566m.463-.927a3.275,3.275,0,0,0-.1.464v.051a1.833,1.833,0,0,0-.206.464H38.1a2.446,2.446,0,0,1,.463-.979m.412-.978c0,.206-.051.309-.051.515L38.869,35a3,3,0,0,1-.206.412h-.1a2.345,2.345,0,0,1,.412-.978m.875-1.8c0,.154-.051.309-.051.464h-.154c.051-.154.154-.309.206-.464m-.1,3.862a.179.179,0,0,1,.1.052.16.16,0,0,0,.051-.1v.1h-.051c-.051.1-.1.051-.1-.052m.36-4.376a1.829,1.829,0,0,0-.1.515.051.051,0,0,1-.051.052h-.1Zm.206-.361-.206.361a1.288,1.288,0,0,1,.206-.361m.1-7.261a.051.051,0,0,1-.051.052.189.189,0,0,0-.051.154c0-.051.051-.051.1-.1Zm.1,6.8c-.051.154-.154.309-.206.464V31.7a3.063,3.063,0,0,0,.206-.412m.051-.1a.159.159,0,0,0-.051.1c0-.051,0-.051.051-.1m.36-.824a2.907,2.907,0,0,1,.258-.412,1.034,1.034,0,0,0-.206.412c-.052,0-.052.051-.1.1a.16.16,0,0,0,.051-.1m1.288-7.878c-.052,0-.052,0-.052-.051a.705.705,0,0,1-.154.206,2.625,2.625,0,0,0-.669.824c-.154.1-.36.206-.309.515a4.569,4.569,0,0,1,.309-.515,2.064,2.064,0,0,0,.669-.824Zm-.876,7h.051a1.83,1.83,0,0,0-.206.464ZM41.8,47.251a1.2,1.2,0,0,0-.515.618,1.2,1.2,0,0,0,.515-.618M41.6,29.074c-.051.155-.051.309-.1.412h-.1a3.058,3.058,0,0,1,.206-.412m.206-.412c-.051.154-.051.309-.1.412h-.1a3.044,3.044,0,0,1,.206-.412m0,20.288h-.051V49Zm.669-21.678a1.829,1.829,0,0,0-.1.515l-.051.052a1.038,1.038,0,0,1-.206.412,1.036,1.036,0,0,1-.206.412h-.1a4.294,4.294,0,0,1,.669-1.39m-.309,19.516a1.317,1.317,0,0,0,.515-.669,1.321,1.321,0,0,0-.515.669m.1-26.055c.052-.051.1-.1.1-.155l-.154.1Zm.927,26.415a3.139,3.139,0,0,0-.721,1.03c-.051,0-.051.051-.1.051,0,.051-.051.051-.051.1a.159.159,0,0,1,.1-.051.18.18,0,0,1,.051-.1,2.105,2.105,0,0,0,.721-1.03m-.669-26.724a.051.051,0,0,1-.051.052c-.051.051-.051.051-.051.1.051-.051.051-.051.051-.1.051,0,.051,0,.051-.052m.309,6.076a1.537,1.537,0,0,0,.206-.412h.052c-.052.154-.052.257-.1.412Zm.412,18.949-.36.36a.813.813,0,0,0,.36-.36M43.4,25.109l.618-1.082a9.5,9.5,0,0,1,.567-.978c0,.051,0,.154.1,0h-.154a4.961,4.961,0,0,0,.36-.927,1.374,1.374,0,0,0-.257.309c-.361.669-.721,1.39-1.03,2.059a2.907,2.907,0,0,0-.206.618m.361,19.618a1.38,1.38,0,0,0-.361.412.5.5,0,0,0,.361-.412M75.686,3.173c-.206.206-.309.258-.361.36-.463.566-.978,1.133-1.39,1.751-1.8,2.42-3.6,4.789-5.355,7.209L59.517,24.851c-1.6,2.266-3.244,4.532-4.891,6.746-2.369,3.3-4.789,6.591-7.209,9.938l-.875,1.236a3.2,3.2,0,0,0-.721.978c-.463.618-.978,1.236-1.493,1.854-.206.258-.36.567-.566.824-.052.052-.052.052-.052.1a.16.16,0,0,1,.1.051c.515-.669.978-1.287,1.493-1.9.206-.309.36-.618.566-.875a3.018,3.018,0,0,0,.721-.927,7.7,7.7,0,0,0,.566-.669c1.082-1.442,2.214-2.935,3.3-4.429l8.754-12.049c3.141-4.274,6.282-8.6,9.423-12.874,2.214-3.038,4.429-6.076,6.746-9.011l.206-.309c.051-.051.051-.154.1-.36M43.864,20.629l.206-.309c-.154.1-.257.155-.206.309m.1,7.209.051-.052v.052Zm0,16.632a1.319,1.319,0,0,0,.515-.669,1.316,1.316,0,0,0-.515.669m.051-16.683.051-.361a.453.453,0,0,1-.051.361m.669,15.705a.451.451,0,0,0,.309-.36.545.545,0,0,0-.309.36M45.1,21.659c.1-.154.309-.309.206-.515-.206.154-.154.361-.206.515M75.841,1.628c-.052-.1-.1-.206-.206-.1a4.859,4.859,0,0,0-.515.515c-.618.772-1.236,1.493-1.8,2.265L67.6,11.927c-3.914,5.406-7.878,10.813-11.792,16.22-2.884,3.965-5.767,7.93-8.651,11.946l-.566.772a4.363,4.363,0,0,0-.721.978,3.3,3.3,0,0,0-.669.979,2.27,2.27,0,0,0,.772-.927,2.555,2.555,0,0,0,.669-.978l.618-.721a6.518,6.518,0,0,0,.566-.669h.051l.155-.309a3.218,3.218,0,0,1,.772-.926l.154-.258-.1.258c.1-.1.154-.155.154-.258h.051v-.051l.36-.361.155-.309h.051v-.051a.7.7,0,0,0,.154-.206.515.515,0,0,1,.206-.257,1.117,1.117,0,0,1,.257-.412l.258-.309c.051-.051.1-.155.206-.257l.155-.258c0-.051.051-.1.051-.154.052-.051.052-.154.1-.258h.155a1.363,1.363,0,0,1,.257-.308l.154-.258c.052-.1.155-.206.206-.309a1.322,1.322,0,0,0,.515-.67c.051-.051.1-.154.206-.257a1.125,1.125,0,0,1,.154-.257c.1-.1.154-.206.206-.258a1.708,1.708,0,0,0,.515-.721,1.125,1.125,0,0,1,.206-.258,1.085,1.085,0,0,1,.206-.309,1.958,1.958,0,0,0,.669-.927c.1-.1.155-.206.206-.257.1-.1.154-.206.206-.258a3.577,3.577,0,0,0,.875-1.287,3.721,3.721,0,0,0,.927-1.236,1.142,1.142,0,0,0,.206-.257,4.157,4.157,0,0,0,.875-1.236h-.051a.867.867,0,0,0,.1-.258c0,.1-.051.155-.051.206a3.516,3.516,0,0,0,.927-1.184.512.512,0,0,1,.206-.257,3.711,3.711,0,0,0,.824-1.236,5.178,5.178,0,0,0,1.133-1.545H60.8c.051-.1.051-.207.1-.309a.559.559,0,0,0-.051.257,1.641,1.641,0,0,0,.721-.927l.155-.257h.051v-.051c.051-.1.1-.154.154-.257a1.836,1.836,0,0,0,.721-.927.515.515,0,0,0,.206-.258,3.439,3.439,0,0,0,.721-.978.91.91,0,0,1,.206-.258,2.91,2.91,0,0,0,.824-1.236,3.554,3.554,0,0,0,.927-1.236,3.015,3.015,0,0,0,.927-1.236,2.207,2.207,0,0,0,.721-.978c.051-.1.155-.154.206-.257a2.1,2.1,0,0,0,.669-.978A2.661,2.661,0,0,0,68.837,11a1.093,1.093,0,0,1,.206-.309,2.745,2.745,0,0,0,.669-.978v.051a2.215,2.215,0,0,0,.721-.978.9.9,0,0,0,.206-.257,2.387,2.387,0,0,0,.669-.979,1.7,1.7,0,0,0,.721-.978,2.073,2.073,0,0,0,.721-.927,1.881,1.881,0,0,0,.721-.978,1.136,1.136,0,0,0,.566-.721V4a3.73,3.73,0,0,0,.875-1.133,1.4,1.4,0,0,0,.361-.412,2.854,2.854,0,0,1,.309-.412c.154-.1.309-.258.258-.412M49.116,37.776c0,.051-.051.1-.051.206a.05.05,0,0,1-.051.051h-.051v0H48.91a1.126,1.126,0,0,1,.206-.258m.361-.464c0,.1-.052.206-.052.309h-.206a1.366,1.366,0,0,1,.258-.309m.206-.257a.31.31,0,0,0-.051.206l-.051.051h-.1a.914.914,0,0,1,.206-.257m.154-.257c0,.1-.051.155-.051.257h-.154c.051-.1.154-.154.206-.257M74.5,11.412a.851.851,0,0,0-.258.669l-.361.67C72.8,15.274,71.67,17.8,70.64,20.269c-1.545,3.759-3.089,7.466-4.531,11.277-.979,2.523-1.957,5.046-2.884,7.569-1.133,3.192-2.214,6.334-3.3,9.526-.824,2.471-1.648,4.891-2.42,7.312l-1.03,3.5c-.412,1.339-.824,2.678-1.184,4.016-.618,2.163-1.184,4.326-1.751,6.488-.566,2.214-1.133,4.48-1.648,6.694-.309,1.133-.515,2.215-.772,3.3a18.417,18.417,0,0,0-.566,2.73,3.791,3.791,0,0,1-.206.721,25.883,25.883,0,0,0-.566,2.884.161.161,0,0,0,.051.1.875.875,0,0,0,.1-.258c.464-2.06.875-4.119,1.339-6.179.412-1.648.772-3.3,1.184-4.943s.824-3.3,1.287-4.891c.772-2.884,1.545-5.767,2.369-8.651.257-.927.515-1.9.824-2.832.463-1.545.927-3.038,1.442-4.531.567-1.905,1.184-3.759,1.8-5.613l2.163-6.127c.824-2.317,1.7-4.686,2.523-7l1.545-3.965,1.545-4.017,2.163-5.355c1.133-2.678,2.266-5.3,3.347-7.93.309-.67.515-1.339.772-2.009a.854.854,0,0,0,.258-.669M50.558,35.82c0,.1-.051.154-.051.257h-.154c.051-.1.154-.155.206-.257m.206-.258a.465.465,0,0,0-.051.258h-.154c.051-.1.1-.155.154-.258Zm.154-.257v.1c0,.051-.051.051-.051.1v.051h-.1V35.51l-.051.051c.1-.1.155-.206.206-.257m.566-.721a.465.465,0,0,0-.051.258h-.154a.9.9,0,0,1,.206-.258m.155-.258a.557.557,0,0,1-.052.258h-.154c.1-.1.154-.206.206-.258m.875-1.236v.257H52.36Zm.206-.258a.465.465,0,0,1-.051.258.179.179,0,0,0-.1-.052.7.7,0,0,0,.154-.206m.051,35.994h.051v-.1h-.051Zm.876-37.281c0,.1-.052.206-.052.309h-.154Zm.412,32.08.051.051v-.1Zm.361-1.081h.051a.385.385,0,0,1,.052-.258h-.052a.39.39,0,0,0-.051.258m.154-32.234c.051-.051.1-.154.154-.206a.311.311,0,0,0-.051.206h-.1Zm.309,37.075.154-.824c0,.258-.051.515-.051.772-.051,0-.051,0-.1.052m.464-1.751.051-.052v.052l-.051.051Zm.463-7.982h.051V57.6Zm.309-1.133.051.051c0-.051.051-.051.051-.1a.05.05,0,0,0-.051-.051c0,.051,0,.1-.051.1m.412-1.339a.051.051,0,0,1,.052.051.468.468,0,0,0,.051-.257c-.051.051-.051.154-.1.206m.155-.412a3.6,3.6,0,0,0,.463-1.236,3.245,3.245,0,0,0-.463,1.236m.1-27.549.051.052h-.1Zm.618,25.386h.052c.051-.154.051-.309.1-.464a.944.944,0,0,0,.154-.721,5.463,5.463,0,0,1-.154.721Zm.566-1.9h.1a.73.73,0,0,0,.1-.309c.051-.051.051-.154.154-.309-.154.1-.206.155-.206.206Zm.1,5.767h.052v.052ZM58.642,49a2.4,2.4,0,0,1,.1-.412A1.531,1.531,0,0,0,59,47.817a6.709,6.709,0,0,0-.258.772.373.373,0,0,0-.1.412m.515-1.8a2.388,2.388,0,0,1-.154.464.346.346,0,0,0,.154-.464m.36-.721a16.255,16.255,0,0,0,.618-1.905,4.139,4.139,0,0,0-.618,1.905M59.775,23a.766.766,0,0,1-.051.361A.878.878,0,0,0,59.775,23m.464,21.163a.309.309,0,0,0-.052.206c.052-.051.052-.155.1-.206Zm.309-1.03c.051,0,.051,0,.1.051,0-.1.051-.154.1-.258,0-.051.1-.1-.051-.154Zm.567-1.6c.051,0,.1,0,.1-.051a.39.39,0,0,1,.051-.206,1.8,1.8,0,0,0,.257-.669,2.944,2.944,0,0,1,.412-.669h-.051a6.565,6.565,0,0,1,.566-1.39c0,.1-.051.206-.051.36a.178.178,0,0,1,.1-.052.647.647,0,0,1-.052-.308l.515-1.905-.309.618c-.257.721-.566,1.442-.824,2.215l-.309,1.133a3.586,3.586,0,0,0-.257.669.713.713,0,0,1-.154.206Zm.669-21.009-.051.051h-.1a1.074,1.074,0,0,1,.206-.309.464.464,0,0,0-.051.257M61.937,40.3a2.009,2.009,0,0,0,.1-.309c-.051-.051-.051-.051-.1-.051Zm.154-.464v.052l.051-.052v-.051a.05.05,0,0,0-.051.051m1.133-3.965a1.549,1.549,0,0,0,.412-.979l.258-.721.154-.309L64,33.811a3.263,3.263,0,0,1-.1.361,2.035,2.035,0,0,0-.258.721,1.889,1.889,0,0,0-.412.979m1.287-3.4h.051v-.051Zm.515-1.39a.178.178,0,0,0,.1-.051.189.189,0,0,1,.052-.155c.051-.051.051-.154.1-.206h-.052a.312.312,0,0,0-.051.206l-.1.155Zm.618-1.493a.051.051,0,0,1,.051-.052.189.189,0,0,1,.051-.154,1725.079,1725.079,0,0,0-.1.206m.618-1.7h.051c.051-.051.051-.051.051-.1Zm.154-.309a2.07,2.07,0,0,0,.464-1.03,3.029,3.029,0,0,0-.464,1.03m.824-1.957a.05.05,0,0,0,.051-.051v-.051l-.051.051ZM76.252.959H76.2c0,.051,0,.051-.051.051.051,0,.051.051.051,0,.051,0,.051,0,.051-.051" transform="translate(0 0)" fill="#845252"/>
    <path id="Path_28430" data-name="Path 28430" d="M168.3,129.654h-.1a2.105,2.105,0,0,0-1.391.154,9.678,9.678,0,0,0-1.287.567,55.124,55.124,0,0,0-5.613,3.3,7.478,7.478,0,0,0-.669.412,2.242,2.242,0,0,0-.824.875l-.1.258v-.052a2.241,2.241,0,0,1-.051.258c-.155.051-.155.154-.155.309,0,.051.051.051.1.051a.189.189,0,0,0-.051.154c-.051-.051-.051-.1-.051-.206v0l-.1.258a1.815,1.815,0,0,1-.257.412c-.1.257-.258.515-.361.772-.051.1-.051.257-.1.36a1.535,1.535,0,0,0-.412.927.367.367,0,0,0-.155.309,1.842,1.842,0,0,0-.566,1.133.977.977,0,0,0-.412.772h-.051a1.352,1.352,0,0,0-.309.669c.155.1.1.154.052.257a.387.387,0,0,1-.052-.206c-.1.1-.154.258-.257.36h.051l-.309.464a1.3,1.3,0,0,1-.206.361.467.467,0,0,0-.155.36l-.154.309a9.533,9.533,0,0,0-.566.978,3.963,3.963,0,0,0-.721,1.287l-.309.463a1.826,1.826,0,0,1-.206.464.707.707,0,0,0-.258.412.836.836,0,0,0-.257.463.7.7,0,0,0-.258.464l-.36.515a2.5,2.5,0,0,0-.154.36h.154c-.051.1-.051.155-.1.257,0-.1-.051-.154-.051-.206a.383.383,0,0,0-.154.515l-.412.463h.051v.206c0-.051-.051-.1-.051-.155l-.1.155a2.216,2.216,0,0,1-.206.36v.206a.307.307,0,0,1-.052-.206.312.312,0,0,0-.051.206,1.24,1.24,0,0,0-.309.412,4.461,4.461,0,0,1-.36.876c-.258.36-.464.772-.721,1.133-.463.669-.875,1.39-1.338,2.06L146.1,157c-.206.257-.361.463-.567.721-.051.1-.154.154-.206.257a30.725,30.725,0,0,1-3.244,4.017,14.482,14.482,0,0,1-1.751,1.8c-.515.515-1.03.979-1.6,1.494a17.447,17.447,0,0,1-2.42,1.8,5.544,5.544,0,0,1-2.575.927,2.87,2.87,0,0,1-2.008-.412l-.309-.154a2.918,2.918,0,0,1-1.6-2.627,8.321,8.321,0,0,1,.1-1.6,13.914,13.914,0,0,1,1.133-3.5,27.078,27.078,0,0,1,1.39-2.729c.463-.824,1.03-1.648,1.545-2.472.875-1.287,1.854-2.472,2.832-3.707.772-.978,1.6-1.905,2.42-2.832.978-1.081,2.06-2.111,3.089-3.192A45.429,45.429,0,0,1,146,141.446c.721-.618,1.39-1.236,2.111-1.8,1.082-.875,2.163-1.751,3.244-2.574,1.184-.875,2.369-1.751,3.656-2.523l1.133-.772a3.084,3.084,0,0,0,.412-.412l.1-.257a18.084,18.084,0,0,0,1.081-3.707c.051-.412.051-.772.1-1.185V127.8a.343.343,0,0,0-.361-.257l-.412.154a5.947,5.947,0,0,0-1.648,1.03l-2.008,1.6a7.641,7.641,0,0,0-.669.566,12.965,12.965,0,0,1-1.8,1.545l-1.236.927a9.535,9.535,0,0,1-1.905.978,5.575,5.575,0,0,1-1.287.206,2.658,2.658,0,0,1-1.956-.721,2.894,2.894,0,0,1-1.133-2.729,7.5,7.5,0,0,1,.927-2.986,10.7,10.7,0,0,1,1.236-1.751,1.26,1.26,0,0,1,.566-.464l.257.154c.154.1.309.155.361.361a.861.861,0,0,1,.051.618l-.464,1.03a6.78,6.78,0,0,0-.412.875l-.257.721a.734.734,0,0,1-.1.309c0,.051-.1.154-.1.206,0,.721-.257,1.391-.206,2.163,0,.206-.051.412.155.566.206.206.412.051.618,0a11.377,11.377,0,0,0,2.832-1.751c.464-.412.876-.824,1.391-1.236.927-.721,1.751-1.6,2.677-2.317a14.963,14.963,0,0,1,2.111-1.39,3.55,3.55,0,0,1,.669-.257,2.593,2.593,0,0,1,2.317.463,5.206,5.206,0,0,1,1.184.978,1.81,1.81,0,0,1,.515.979,3.605,3.605,0,0,1,.155,1.648,5.851,5.851,0,0,1-.309,1.287c-.052.051.051.206.1.258,0,.051.154.051.206.051l.721-.412a39.607,39.607,0,0,1,4.171-2.111,11.536,11.536,0,0,1,1.236-.412,2.178,2.178,0,0,1,2.163.566.4.4,0,0,1,.206.206.14.14,0,0,1-.1.206m-37.59,33.11a.87.87,0,0,1-.1.257h.1Zm.824-1.751c.051-.052.051-.155.1-.206a.7.7,0,0,0,.206-.566c.155-.052.155-.206.155-.309.051-.1.1-.155.1-.206a2.509,2.509,0,0,0,.515-1.133.579.579,0,0,0,.257-.412.05.05,0,0,1,.051-.051c0-.1.051-.155.1-.258a.16.16,0,0,1,.051-.1l-.051.051c.154-.155.257-.257.206-.464h.051a2.982,2.982,0,0,0,.206-.36h.051c.051-.1.1-.155.154-.257.051-.052.051-.1.1-.206a1.144,1.144,0,0,1,.051-.412,6.157,6.157,0,0,0,.824-1.287c-.155.1-.206.1-.206.154l-.721,1.081c-.1.155-.257.309-.36.464-.309.618-.669,1.184-.979,1.751a24.564,24.564,0,0,0-1.545,3.6l-.1.567a1.123,1.123,0,0,0,.258-.412.1.1,0,0,0,.154,0l.051-.206c0-.1.051-.155.051-.257.206-.1.257-.309.257-.566m1.7-1.494c.721-1.39,1.493-2.678,2.317-3.965a1.117,1.117,0,0,0,.154-.257c-.1-.051-.154,0-.206.051a29.885,29.885,0,0,0-2.369,3.862,19.619,19.619,0,0,0-1.391,3.4,6.6,6.6,0,0,0-.309,1.8.159.159,0,0,1,.1-.051v-.154a19.474,19.474,0,0,1,1.7-4.686m21.318-21.884c-.258,0-.258,0-.309.051l-.618.515c-.721.515-1.442,1.081-2.111,1.6l-2.987,2.523c-.618.515-1.184,1.03-1.8,1.545-.309.257-.618.515-.875.772-.515.515-1.03,1.03-1.6,1.545-1.133,1.133-2.214,2.214-3.3,3.4a3.059,3.059,0,0,0-.412.412l-2.06,2.368c-.361.412-.721.876-1.081,1.339l-.464.669-.464.618-1.133,1.545a13.746,13.746,0,0,1-1.133,1.854c-.361.824-.824,1.6-1.184,2.471a2.076,2.076,0,0,1-.412.824c-.051.1-.1.155-.1.257v.258a.735.735,0,0,0-.309.618,1.908,1.908,0,0,0-.206.772.878.878,0,0,1-.051.361,1.149,1.149,0,0,0-.154.72c-.052.154.051.309.154.464v-.051l.1,1.03a1.035,1.035,0,0,0,.206.412c.1.206.206.309.412.206a2.894,2.894,0,0,0,.618-.206,8.74,8.74,0,0,0,2.111-1.236,36.625,36.625,0,0,0,3.038-2.678c1.339-1.442,2.626-2.884,3.862-4.48.669-.876,1.339-1.854,2.008-2.781.566-.824,1.184-1.648,1.7-2.523,1.03-1.6,2.059-3.192,2.935-4.84l.154-.257c.515-.875,1.081-1.8,1.6-2.678l2.935-5.355c.309-.566.618-1.236.927-1.854Zm-19.465,16.838c-.051-.206.155-.206,0-.412,0,.154-.154.154,0,.412m.721-1.184a.689.689,0,0,0,.154-.258c-.1.052-.206.1-.154.258m.515,1.236a2.086,2.086,0,0,0,.257-.463.179.179,0,0,0-.1-.052c-.051.155-.257.206-.154.515m1.9-2.626a1.385,1.385,0,0,0,.515-.669,1.673,1.673,0,0,0-.515.669m.052-1.854c.206,0,.309-.1.257-.309a1.365,1.365,0,0,1-.257.309m.927-.978a.05.05,0,0,0,.051.051l.051-.051-.051-.051a.05.05,0,0,0-.051.051m.515-.515a1.407,1.407,0,0,0,.669-.772,1.6,1.6,0,0,0-.669.772m1.493-.1a2.469,2.469,0,0,0-.464.567,3.286,3.286,0,0,0-.978,1.081.528.528,0,0,0,.309-.257c.258-.257.464-.515.721-.824a3.34,3.34,0,0,0,.464-.412c.36-.36.721-.772,1.03-1.133a1.518,1.518,0,0,0,.669-.721c.206,0,.309-.154.412-.36-.257.1-.361.206-.412.36a2.253,2.253,0,0,0-.721.669c-.36.361-.721.669-1.03,1.03m-.515-.978a.82.82,0,0,0,.464-.464.82.82,0,0,0-.464.464m.772-.876c.051,0,.051.052.1.1a1.349,1.349,0,0,1,.258-.309.159.159,0,0,0-.051-.1Zm.618-.566a1.356,1.356,0,0,0,.566-.463c.206-.155.206-.155.257-.361a.464.464,0,0,0-.309.309.992.992,0,0,0-.515.515m1.493,11.689a1.1,1.1,0,0,0-.463.618c.154-.258.36-.361.463-.618m-.257-12.822a1808.785,1808.785,0,0,0,.927-.926c.206-.1.206-.1.206-.258,0,.052-.1.052-.1.1-.051,0-.051.1-.1.155a.73.73,0,0,0-.463.412c-.412.257-.412.257-.464.515m1.287.309a2.228,2.228,0,0,0-1.03.927,2.919,2.919,0,0,0,1.03-.927l.155-.1,1.854-1.7c.052,0,0-.052.052-.206a1.368,1.368,0,0,0-.258.206l-1.648,1.493Zm-.309,11.535a.708.708,0,0,1,.154-.206c-.154,0-.257.051-.154.206m.258,1.545h-.1a.05.05,0,0,0,.051.051Zm5.561-10.556a2.212,2.212,0,0,1,.051-.257c0-.052.051-.052.051-.1v-.051h-.051c-.051.051-.051.051-.051.1-.154.258-.36.515-.567.824-1.133,1.853-2.317,3.759-3.45,5.664l-.824,1.236c-.412.515-.412.515-.463.876a2.956,2.956,0,0,0,.566-.824c.257-.309.515-.67.772-1.03.154.1.206.051.206-.1l.154-.206a.954.954,0,0,1,.1-.361.461.461,0,0,0,.052.257.467.467,0,0,1,.051-.257l.155-.1a.371.371,0,0,1,.051-.412l.051.206c.154-.154.36-.309.206-.567h.1a.682.682,0,0,0,.412-.566.741.741,0,0,0,.36-.566.541.541,0,0,0,.257-.464v-.051a.656.656,0,0,0,.361-.464c.155-.154.258-.257.206-.463a.159.159,0,0,0,.052-.1.569.569,0,0,0,.36-.463l.257-.412c.1-.155.155-.309.258-.464a.9.9,0,0,0,.309-.618c.155-.1.155-.154,0-.257m-5.252-4.325c.206,0,.206-.1.257-.206a.263.263,0,0,0-.257.206m.361-.412-.1.154a.263.263,0,0,0,.258-.206.4.4,0,0,1-.154.052m6.951,3.243c-.154.052-.206.258-.257.413a.54.54,0,0,0-.258.463,1.939,1.939,0,0,0-.515.618c-.206.36-.361.669-.567.978-1.493,2.523-2.986,5.046-4.635,7.415-.1.155-.154.361-.257.515-.36.309-.36.309-.412.669a.85.85,0,0,0,.412-.669,3.8,3.8,0,0,0,.618-.669c.927-1.391,1.854-2.781,2.729-4.171.824-1.39,1.648-2.78,2.42-4.171a2.153,2.153,0,0,0,.206-.515.54.54,0,0,0,.258-.463.459.459,0,0,0,.257-.413m-5.561-4.428h.052v-.052a.051.051,0,0,0-.052.052m.361,1.184c.257-.1.36-.206.412-.361a.577.577,0,0,0,.412-.361c.361-.206.361-.206.464-.463a1.326,1.326,0,0,0-.464.463.715.715,0,0,0-.412.361.555.555,0,0,0-.412.361m.412-1.8h.051v-.051h-.051Zm.258,10.659c0,.052.051.155.051.206h-.1Zm.154-11.019v-.051c-.051,0,0,.051,0,.051m.154,10.659c0-.1,0-.154.051-.206v.155Zm.618-11.328h.051l-.051-.051Zm0,10.092a.39.39,0,0,1,.051.206h-.051Zm.1-8.805a.05.05,0,0,1,.051.051l.1-.1a.159.159,0,0,1,.1-.051v-.051h-.052a.16.16,0,0,1-.051.1c-.052,0-.1.051-.155.051m.361-1.648a.694.694,0,0,0,.36-.309.385.385,0,0,0-.36.309m.154,9.475c0,.051.051.1.051.154h-.051Zm.206-9.835a.283.283,0,0,0,.309-.206c.206-.051.36-.1.412-.309a.638.638,0,0,0-.412.309.473.473,0,0,0-.309.206m0,1.442c.257-.051.464-.154.515-.412a2.017,2.017,0,0,0-.515.412m.051,7.93c.052.051.052.1.052.206h-.052Zm.258-.464a.391.391,0,0,1,.051.206h-.1c.052-.051.052-.1.052-.206m.927-8.444a1.065,1.065,0,0,0-.669.567,33012.889,33012.889,0,0,1,1.339-1.133c.154,0,.206-.1.309-.206.154,0,.206-.1.309-.206a1.553,1.553,0,0,0,.721-.566l.257-.258a.349.349,0,0,0,.309-.206.514.514,0,0,0,.257-.206.263.263,0,0,0-.257.206.348.348,0,0,0-.309.206.826.826,0,0,1-.36.206,1.206,1.206,0,0,0-.618.618.282.282,0,0,0-.309.206l-.309.206a1.216,1.216,0,0,0-.669.566m-.515,7.878v.206c-.051.052-.1.1-.154.1Zm.566-17.147a.815.815,0,0,0,.361-.361,2.858,2.858,0,0,0,.412-.309c.154-.1.258-.206.361-.257.309-.206.566-.412.824-.618l.206-.051h-.206l.309-.258a1.078,1.078,0,0,1,.206-.309l.361-.309c.1-.1.206-.154.309-.257.1-.051.155-.154.258-.206.154-.052.257-.1.257-.258a.343.343,0,0,0-.257.206l-.361.206c-.051.1-.154.154-.257.258l-.412.308a11.049,11.049,0,0,0-1.648,1.442,2.4,2.4,0,0,1-.36.361.712.712,0,0,0-.412.36.508.508,0,0,0-.36.36h-.1v.1a17.5,17.5,0,0,0,.1-.1.639.639,0,0,0,.412-.309m4.48-2.42a1.025,1.025,0,0,1-.412.206l-.618.515c-.979.876-2.008,1.751-2.987,2.575a2.948,2.948,0,0,1-.361.412c-.051.051-.051,0-.1.051v.051h.051c.051,0,.051-.051.051-.1a.693.693,0,0,0,.464-.258c1.236-1.081,2.471-2.111,3.707-3.141a1.078,1.078,0,0,0,.206-.309m-4.428,10.144v.1l.051-.051h.051c-.051-.051-.051-.051-.1-.051m.721,10.2a.464.464,0,0,0-.051-.257l.257-.1Zm.361-.566c0-.051-.052-.154-.052-.206.1-.051.155-.1.206-.1Zm.257-.464c0-.051-.051-.1-.051-.206.1-.051.154-.051.206-.1Zm1.545-3.862a1.484,1.484,0,0,0-.515.876.311.311,0,0,0-.154.309,1.925,1.925,0,0,0-.618,1.03,1.69,1.69,0,0,0-.154.309.367.367,0,0,0,.154-.309,1.658,1.658,0,0,0,.618-1.03.312.312,0,0,0,.154-.309,1.391,1.391,0,0,0,.515-.876m-1.287,3.244a.159.159,0,0,0,.1-.051l-.1.257Zm.258-.257a.31.31,0,0,0-.051-.206c.154.051.1.154.051.206m.927-9.011c.154,0,.206-.051.257-.206a.906.906,0,0,1-.257.206m.206,5.87a.05.05,0,0,1-.051-.051.189.189,0,0,1-.051.154c.051,0,.051-.051.1-.1m.051.772v-.051l.051.051Zm.927-7.57c-.309.206-.566.309-.669.566l.618-.412c.051,0,.051-.051.051-.155m-.257-9.32a.164.164,0,0,0,.154-.154Zm.1,15.551h.1a.387.387,0,0,0-.052.206c-.051-.051-.051-.1-.051-.206m.154-.309h.1c0,.051-.051.1-.051.154a.188.188,0,0,0-.052-.154m.155-1.184a.05.05,0,0,0-.051-.051v.051Zm.051,1.03a.386.386,0,0,0-.051-.257c.051,0,.1.051.154.051a.391.391,0,0,0-.1.206m.257-.412v-.309c.052.052.052.052.1.052Zm.258-1.8-.052.051h.052Zm2.677-4.274a.051.051,0,0,1,.051-.052v.052Zm.155-.566h.1a.389.389,0,0,1-.051.206c0-.1-.051-.154-.051-.206m.051-.206h.154c-.051.051-.051.1-.1.206a.387.387,0,0,0-.051-.206m.1-.052v-.206a.466.466,0,0,0,.051.258Z" transform="translate(-79.585 -77.151)" fill="#845252"/>
    <path id="Path_28431" data-name="Path 28431" d="M235.115,81.889v.051c-.36.309-.875.413-1.236.721a.83.83,0,0,1-.463.154v-.1c-.1,0-.206,0-.258.1a.387.387,0,0,0-.36.257c-.258,0-.412.206-.567.361a.657.657,0,0,0-.36.257c-.154.052-.309.1-.361.258-.154.051-.309.1-.36.257a.925.925,0,0,0-.361.257.53.53,0,0,0-.309.258c.155,0,.258-.051.309-.258h.257a1.506,1.506,0,0,1-.824.669,1.271,1.271,0,0,0,.206-.36.655.655,0,0,0-.463.36.387.387,0,0,0-.36.257c-.155,0-.258.1-.361.258a.614.614,0,0,0-.463.412.348.348,0,0,0-.309.206v.051h-.051a.111.111,0,0,0-.1.1.387.387,0,0,0-.36.257c-.154,0-.257.1-.36.257a.615.615,0,0,0-.464.412.655.655,0,0,0-.463.361.548.548,0,0,0-.464.412,1.425,1.425,0,0,0-.824.618,1.177,1.177,0,0,0-.515.36,2.846,2.846,0,0,0-.464.36,15.392,15.392,0,0,0-1.39,1.184,3.356,3.356,0,0,0-.824.669c-.154.051-.257.1-.309.257a.432.432,0,0,0,.36-.206,2.69,2.69,0,0,0,.875-.618,7.69,7.69,0,0,0,1.391-1.184.909.909,0,0,0,.463-.412.82.82,0,0,0,.463-.36L226,88.48a1.777,1.777,0,0,1-.412.464l-2.42,2.111A12.211,12.211,0,0,1,220.8,92.7a3.713,3.713,0,0,1-1.8.567,3.5,3.5,0,0,1-2.471-.979,7.634,7.634,0,0,1-1.8-2.471A7.3,7.3,0,0,1,214,87.965a1.278,1.278,0,0,0-.412-.772v-.207a.16.16,0,0,0-.1-.051c-.1.1-.154.154-.154.258-.1.051-.155.051-.206.1-.567.515-1.082,1.082-1.6,1.648a.445.445,0,0,0-.154.309c.154,0,.206-.154.309-.206a2.245,2.245,0,0,0,.361-.309,6.267,6.267,0,0,1,.772-.876c.206-.206.464-.36.515-.669h.257a1.161,1.161,0,0,1-.412.566,6.774,6.774,0,0,1-1.081,1.03c-.051.051-.051.1-.1.206-.309.309-.618.721-.875,1.03a12.1,12.1,0,0,0-1.184,1.648c-.515.669-.927,1.39-1.39,2.059l-.36.464a.927.927,0,0,1-.464.309.188.188,0,0,1-.206-.206v-.1c-.1.051-.155.1-.258.154s-.206.1-.309,0a.347.347,0,0,1-.206-.309.972.972,0,0,0,.1-.412.111.111,0,0,0,.1-.1h-.1v-.257a.4.4,0,0,0,.1-.155h.1a.11.11,0,0,0,.1-.1c-.154-.1-.206-.052-.206.1-.051.051-.1.1-.1.155-.154.051-.258.206-.361.309-.051.1-.1.206-.257.154a.693.693,0,0,1-.258-.463,1.3,1.3,0,0,1,.206-.361c.875-1.339,1.545-2.729,2.369-4.119l2.935-5.15c1.082-1.8,2.06-3.707,3.038-5.561.927-1.648,1.854-3.3,2.729-4.943l2.163-4.171c1.184-2.317,2.42-4.583,3.656-6.9,1.133-2.008,2.215-4.119,3.4-6.128a56.113,56.113,0,0,1,3.759-6.024c.309-.361.618-.721.927-1.03a.311.311,0,0,1,.412-.051.391.391,0,0,1,.155.463.309.309,0,0,1-.051.206c-.361.618-.67,1.236-.979,1.854a11.923,11.923,0,0,0-1.133,2.112,2.379,2.379,0,0,1-.361.823,27.578,27.578,0,0,0-1.339,2.781l-.618,1.184A11.134,11.134,0,0,0,226.361,60c-.052.1-.052.258-.155.361a14.243,14.243,0,0,0-.721,1.545c-.258.464-.515.978-.824,1.442a4.509,4.509,0,0,0-.515,1.133l-.1.155c-.052.1-.1.154-.1.258a.706.706,0,0,0-.257.412,5.567,5.567,0,0,0-.618,1.236.19.19,0,0,0,.051.155h-.051c0,.1-.051.154-.051.257h-.154c-.051.1-.051.154-.1.257-.1.206-.309.412-.309.669v-.051a4.27,4.27,0,0,0-.36.669h.154l-.1.1v.051a.394.394,0,0,0-.1.257v-.051c-.051.1-.051.206-.1.309h-.155a.389.389,0,0,1-.1.206c0,.051.052.1.052.154h-.052a2.253,2.253,0,0,1-.051.258h-.155a.707.707,0,0,0-.257.412c0,.1-.052.154-.052.257a.521.521,0,0,0-.206.36c-.052.1-.1.155-.1.257a.709.709,0,0,0-.257.412,1.732,1.732,0,0,0-.412.875,1.968,1.968,0,0,0-.515,1.03.58.58,0,0,0-.257.412c-.052.052-.052.154-.1.258,0,.051-.051.051-.1.1a.4.4,0,0,1-.1.258,1.961,1.961,0,0,0-.515,1.03,1.233,1.233,0,0,0-.361.669.833.833,0,0,0-.206.361c-.051.1-.1.154-.1.258a1.121,1.121,0,0,0-.257.412h.051a.707.707,0,0,0-.257.412.4.4,0,0,0-.155.361c-.051.1-.1.154-.1.257a.6.6,0,0,0-.257.36,1.039,1.039,0,0,0-.206.412.9.9,0,0,0-.309.618.159.159,0,0,1-.1.052.111.111,0,0,0,.1.1v-.1h.155v-.052a.188.188,0,0,0,.257.1c.206-.1.463-.154.669-.258,1.854-.875,3.759-1.7,5.561-2.677.721-.361,1.442-.721,2.163-1.133l.309-.154a.341.341,0,0,1,.36.1c.1.1,0,.206,0,.309a.95.95,0,0,1,.361.1c.206.1.206.154.1.412,0,.051-.052.051-.052.1-.154.052-.257.1-.309.258a.837.837,0,0,0,.361-.206h.1c.155.051.206.154.155.257a1.823,1.823,0,0,1-.412.257c-.772.515-1.6.978-2.369,1.493a12.475,12.475,0,0,0-1.03.721.521.521,0,0,1-.361.206l.1-.258a.387.387,0,0,0-.361.258,1.42,1.42,0,0,0-.824.618c-.206.1-.412.206-.464.412a.57.57,0,0,0-.463.36c-.154.051-.309.1-.361.258a.909.909,0,0,0-.463.412.57.57,0,0,0-.464.361,2.384,2.384,0,0,0-1.082.927.655.655,0,0,0-.463.361c-.051.051-.1.051-.1.154a.655.655,0,0,0-.464.36c-.051.052-.1.1-.1.154-.257.052-.412.155-.464.361a3.056,3.056,0,0,0-1.236,1.184c.154.052.206-.1.257-.154.206-.154.309-.309.515-.36a1.968,1.968,0,0,1-.567.721.951.951,0,0,0-.309.927,19.388,19.388,0,0,0,1.03,3.759,10.132,10.132,0,0,0,.618,1.082,1.091,1.091,0,0,0,.927.515,3,3,0,0,0,1.184-.154,10.08,10.08,0,0,0,1.648-.876c1.03-.772,2.111-1.493,3.141-2.266.978-.721,1.905-1.545,2.884-2.266,1.287-.978,2.575-1.957,3.913-2.884a18.962,18.962,0,0,1,2.73-1.751c.309-.154.618-.257.926-.412a.9.9,0,0,1,.876.1c.206.154.051.257.051.412-.051.051-.051.1.051.1M206.588,93.784c.051-.052.1-.1.1-.155,0,.051-.052.1-.052.155Zm.258-.258v.1h-.1a.111.111,0,0,1,.1-.1m.463-.515h-.1v.1c0-.051.051-.051.1-.1m1.7-1.03a1.114,1.114,0,0,0-.412.464.737.737,0,0,0-.257.566,1.61,1.61,0,0,0,.36-.464,1.171,1.171,0,0,0,.309-.566m1.081-4.377a6.294,6.294,0,0,0-.875,1.493c-.051.051-.1.1-.051.154s.051-.051.1-.1a3.117,3.117,0,0,0,.361-.515,1.855,1.855,0,0,1,.36-.515,2.269,2.269,0,0,1,.1-.515m.773-1.287a.345.345,0,0,0-.206.361.417.417,0,0,0-.206.412c-.257.051-.309.257-.361.463l.361-.206c0,.052.051.155.051.206l.051-.206h-.1v-.257c.051-.051.154-.1.206-.154,0,.1.051.154.051.258,0-.1.051-.155.051-.258h-.1v-.257a.391.391,0,0,1,.206-.1Zm.566-.515h-.1a.386.386,0,0,0-.051-.257c-.154.051-.154.206-.206.361a.387.387,0,0,0-.206.36c.1,0,.154-.051.257-.1v.258c.051-.1.051-.155.1-.258h-.1a.465.465,0,0,1-.051-.257c.1-.051.154-.1.257-.1v.206a.389.389,0,0,0,.1-.206m-.412.772h-.1v.206c.052-.051.052-.154.1-.206m.515-1.442.206-.154v-.206a.52.52,0,0,0-.206.36M212.149,84c-.1.051-.154.206-.206.36a1.286,1.286,0,0,0-.206.361.831.831,0,0,0,.206-.361.388.388,0,0,0,.206-.36m-.257,1.03h-.154a.31.31,0,0,1,.051.206.391.391,0,0,1,.1-.206m.309-1.081a2.245,2.245,0,0,0,.206-.361.446.446,0,0,0-.206.361m1.082.515c0-.154-.206.052-.721.979-.051.154-.155.309-.206.464a.071.071,0,0,0,0,.1h.1c.1-.154.206-.257.309-.412a4.513,4.513,0,0,0,.515-1.133m.1,1.7c0-.051,0-.1-.1-.155a.181.181,0,0,0-.051.1c0,.051.051.051.154.051m1.648-2.678a.18.18,0,0,1,.051.1h.155c.669-.463,1.184-1.03,1.8-1.545a.1.1,0,0,0,0-.154.18.18,0,0,0-.1-.051,2.726,2.726,0,0,0-.876.412c-.206.1-.36.309-.618.361-.412.154-.412.515-.412.875m.1,1.133.1-.1h-.155c.051,0,.051.051.051.1m.154-2.369a.1.1,0,0,0,.155,0,5.094,5.094,0,0,0,.875-.566,1.462,1.462,0,0,0-.978.464c-.052,0-.052.1-.052.1m.309-2.163a.73.73,0,0,0,.412-.721,1.127,1.127,0,0,0-.412.721M215.7,84a.189.189,0,0,1-.052-.155.18.18,0,0,1-.051.1.16.16,0,0,1,.1.051m.1-.155c0-.051-.051-.1-.051-.154,0,.052-.051.1-.051.154Zm2.317-1.03h.206a.922.922,0,0,1-.258.361l-1.751,1.545-.309.154a.916.916,0,0,1,.257-.36.911.911,0,0,0,.206-.258.731.731,0,0,0,.464-.412.111.111,0,0,0,.1-.1.733.733,0,0,0,.464-.412.111.111,0,0,0,.1-.1.554.554,0,0,0,.463-.412Zm-2.06-3.5c.1-.051.155-.206.206-.36a.389.389,0,0,0,.206-.361c.154-.1.154-.257.206-.361a.53.53,0,0,0-.258.309.507.507,0,0,0-.154.412.389.389,0,0,0-.206.36m.309,2.317a.559.559,0,0,0,.464-.206.416.416,0,0,0-.464.206m.515-2.678h-.155a.1.1,0,0,1,.155,0m.154,3.759c-.051.051-.1.051-.206.1l-.1.1h.1v-.1c.051.051.1.1.154.1Zm-.257-4.84c.1-.1.206-.154.206-.309-.1.051-.154.206-.206.309m.052,3.5a.268.268,0,0,0,.206-.1.388.388,0,0,0-.206.1m.154-2.575-.1.155c0-.051.051-.1.1-.155m0-1.287a.522.522,0,0,0,.206-.361.831.831,0,0,0-.206.361m.1,1.03c-.052.1-.052.155-.1.257v-.257Zm0,2.729a.266.266,0,0,0,.206-.1.205.205,0,0,0-.206.1m.051-1.03.154-.1c-.051,0-.1.051-.154.1m.154-2.06v-.257h.1c-.051.051-.051.154-.1.257m.052,2.935a1.328,1.328,0,0,0,.824-.361c.1,0,.154-.051.206-.154-.1.051-.155.051-.206.154a1.359,1.359,0,0,0-.824.361m.258-3.553h-.154c.051,0,.1-.051.154-.051Zm.257-.412h-.154a.1.1,0,0,1,.154,0m0-1.339a.05.05,0,0,0,.051-.051c.051,0,.051-.052,0-.052-.051.052-.051.052-.051.1m.1,4.017c.051,0,.154-.051.154-.1Zm.1-3.089a.561.561,0,0,0-.052-.258h.155c-.052.1-.052.206-.1.258m.361-.618h-.206c.052-.051.1-.051.206,0m.154,5.253a.524.524,0,0,0-.309.257c.154.051.257-.051.309-.257h.154a.181.181,0,0,1-.051-.1c0,.051-.052.051-.1.1m-.154,1.287h.051l-.154.154c.051-.051.1-.1.1-.154m0-2.06a.205.205,0,0,0,.206-.1c-.1.051-.154.051-.206.1m.36,1.8a.326.326,0,0,1-.309.257.526.526,0,0,1,.309-.257m-.206-6.694v-.257h.1c0,.1-.052.154-.1.257m.154,5.561a.111.111,0,0,0,.1.1c.051-.052.051-.155.1-.207-.1.052-.155.052-.206.1m.052,1.133.155-.1c-.052.052-.1.1-.155.1m.824-.876h.257a1.534,1.534,0,0,1-.927.772c.051-.154.206-.206.206-.412a.5.5,0,0,0,.464-.361m-.566-.515h.154a.19.19,0,0,1-.051-.155Zm.206-6.591a.464.464,0,0,0-.052-.258h.154c-.051.1-.1.154-.1.258m.051,4.789a.738.738,0,0,0,.567-.257c.1-.051.154-.1.257-.1a.283.283,0,0,0-.257.1.827.827,0,0,0-.567.257m.051-5.046v-.1h.1a.111.111,0,0,0-.1.1m.206-.361c-.051.052-.051.154-.1.206V73.8Zm.876,7.055h.257a1.318,1.318,0,0,1-.824.669c.051-.154.154-.257.206-.412a.387.387,0,0,0,.361-.258m.206-9.371h-.051l.051-.052Zm0,.206v-.206h.1c-.051.051-.051.154-.1.206m0,6.848a.393.393,0,0,0,.257-.1c-.051.051-.154.051-.257.1m.154,2.214-.1.1a.111.111,0,0,1,.1-.1m.1-.257h.258a.6.6,0,0,1-.361.257c.052-.1.052-.206.1-.257m.052-9.423v-.257h.1Zm6.333,15.242c-.257.051-.463.309-.669.515-.052.051-.1.051-.1.1a3.518,3.518,0,0,0-1.184.927.57.57,0,0,0-.464.361,1.35,1.35,0,0,0-.824.669,1.989,1.989,0,0,0-.875.567,3.366,3.366,0,0,0-.824.67.915.915,0,0,0-.36.257.6.6,0,0,0-.309.309c-.154,0-.257.1-.36.258-.051.051-.154.051-.206.1.1-.051.154-.051.206-.1.154-.051.309-.1.36-.258a.468.468,0,0,0,.361-.154v-.1l.1.1h.051a.9.9,0,0,1,.206-.258v-.1c.051.051.1.051.1.1a2.153,2.153,0,0,0,.36-.257,1.12,1.12,0,0,0,.464-.361,2.249,2.249,0,0,0,.721-.669v-.1c.051,0,.051.052.1.1.309-.206.566-.412.824-.618a1.4,1.4,0,0,0,.361-.412v-.1c.051,0,.051.051.1.1l1.185-.876c-.052-.051-.1-.1-.1-.154h.1v.1a.111.111,0,0,0,.1-.1c.257-.155.567-.309.567-.618m-5.922-6.231h.258a.732.732,0,0,1-.464.412c.052-.155.206-.257.206-.412m-.154-1.8c.1,0,.206,0,.257-.1a1.223,1.223,0,0,0,.618-.257c-.36,0-.515.051-.618.257a.391.391,0,0,0-.257.1m.772,1.545a.6.6,0,0,1-.36.257.6.6,0,0,1,.36-.257m-.1,11.792c-.1,0-.154.052-.206.052a.308.308,0,0,0,.206-.052m.309-12.152h.257a.655.655,0,0,1-.463.36Zm1.648-14.212a.188.188,0,0,1-.154.052c.051,0,.1-.052.154-.052m1.339,12c.1-.051.257-.1.309-.257.1,0,.206,0,.257-.1a.392.392,0,0,0-.257.1c-.154.051-.258.1-.309.257m.567-.412c.1,0,.154-.051.206-.051a.309.309,0,0,0-.206.051m.463,11.277h.258a.821.821,0,0,1-.464.361,2.3,2.3,0,0,1,.206-.361m.361-.154c0,.051-.051.1-.1.154v-.051c.051,0,.051-.051.1-.1m.1-.258h.257c-.051.154-.206.206-.361.258.052-.1.1-.155.1-.258m.051-.772h-.1v-.1a.11.11,0,0,1,.1.1m.206.772c.051-.155.206-.206.206-.361h.258a.571.571,0,0,1-.464.361m.721-1.648a.348.348,0,0,0-.309.206c.206,0,.258,0,.309-.206m0,.875h.206c-.051.206-.206.309-.463.36.052-.1.206-.206.257-.36m.361-1.133a.283.283,0,0,0-.309.206c.206,0,.257,0,.309-.206m.772.258h.257a2.074,2.074,0,0,1-1.185.875c.051-.1.1-.155.1-.257a.343.343,0,0,0,.36-.257c.1,0,.1-.052.155-.1.154-.051.257-.1.309-.257m.206-.927a.181.181,0,0,0-.051-.1l-.1.1c-.154.051-.257.1-.309.257.206,0,.258-.051.309-.257Zm.927-.772a1.968,1.968,0,0,0-.927.618c0,.051.052.1.1.154.309-.206.67-.36.824-.772m-.618,1.287h.206c-.1.206-.206.36-.463.36a1.285,1.285,0,0,0,.206-.36Zm.309-.258h.257c-.052.155-.206.206-.361.258.052-.1.1-.154.1-.258m.36-.257h.257a.386.386,0,0,1-.36.257c.051-.1.1-.154.1-.257m.361-1.184a1.376,1.376,0,0,1-.309.257c.257,0,.257,0,.309-.257m.412-.206a2.193,2.193,0,0,0-.36.206c.257,0,.257,0,.36-.206m1.287-.927a.6.6,0,0,0-.36.257,2.266,2.266,0,0,0-.927.618.943.943,0,0,0,.927-.618c.206-.051.309-.1.36-.257m-.875,1.39h.257c-.1.154-.206.257-.361.257.052-.051.052-.154.1-.257m1.081-.772h.206a1.56,1.56,0,0,1-1.03.772c.052-.051.052-.155.1-.257a.329.329,0,0,0,.361-.258c.154,0,.257-.051.36-.257m1.39-1.545a.18.18,0,0,1,.051-.1,4.733,4.733,0,0,0-1.6,1.03,3.206,3.206,0,0,0,1.545-.927m-1.133,1.545h-.051c.1-.051.154-.051.257-.1a.391.391,0,0,1-.206.1m.669-.618h.258a.715.715,0,0,1-.618.361v-.1c.154-.051.309-.1.36-.257m.566-.412c-.1.051-.257.1-.309.257.154,0,.257-.051.309-.257m.258-.1c-.052.052-.154.052-.206.1a.268.268,0,0,0,.206-.1m1.081-.515h.051v.1a.18.18,0,0,1-.051-.1" transform="translate(-126.269 -29.901)" fill="#845252"/>
    <path id="Path_28432" data-name="Path 28432" d="M292.121,124.534l-.927.875a.814.814,0,0,1-.412.258v-.1a.111.111,0,0,1-.1.1l-.1.154a.111.111,0,0,0-.1.1.11.11,0,0,0-.1.1l-.309.155c-.721.772-1.493,1.493-2.265,2.266a1.105,1.105,0,0,0-.154.257.111.111,0,0,0-.1.1c-.051.051-.1.051-.1.1.051,0,.051-.051.1-.1.052,0,.052-.051.1-.1.206-.051.308-.257.463-.36a1.368,1.368,0,0,1,.566-.515.715.715,0,0,1-.361.412c-.824.927-1.7,1.854-2.574,2.78-.515.618-1.03,1.184-1.6,1.751a23.354,23.354,0,0,1-2.523,2.523,3.64,3.64,0,0,1-.721.515,1.17,1.17,0,0,1-1.339-.154l-.257-.154a1.227,1.227,0,0,1-.464-1.03,4.674,4.674,0,0,1,.154-1.184,38.387,38.387,0,0,1,1.545-4.686c.155-.566.361-1.082.567-1.648a.954.954,0,0,0,.1-.361c.051-.1,0-.154-.052-.206-.206-.051-.206-.206-.206-.412v-.618c0-.155-.154-.155-.257-.155v.051c-.052,0-.052.052-.1.1v-.1a.111.111,0,0,0-.1.1h-.051a1.094,1.094,0,0,1-.206.309.111.111,0,0,1-.1.1l-.1.155h.1c-.051,0-.051.051-.1.1a14.967,14.967,0,0,1-4.222,3.6,4.728,4.728,0,0,1-1.184.463,1.685,1.685,0,0,1-.876-.051,2.093,2.093,0,0,1-1.236-1.236.708.708,0,0,1-.051-.566,3.971,3.971,0,0,1,.309-1.184,10.146,10.146,0,0,1,.618-1.082,9.578,9.578,0,0,1,2.163-2.162,4.786,4.786,0,0,1,2.987-.927,3.018,3.018,0,0,1,.927.206c.309.1.36.1.618-.206.361-.566.772-1.081,1.133-1.648l.206.1v-.051c.824-.875,1.545-1.905,2.42-2.729a2.967,2.967,0,0,1,.566-.567.485.485,0,0,1,.669-.051,2.158,2.158,0,0,1,.36.257.926.926,0,0,1,.412,1.184,12.266,12.266,0,0,1-.824,2.06,1.567,1.567,0,0,0-.206.412l.155-.206a.627.627,0,0,1-.206.463v-.206a4,4,0,0,1-.257.721l-.051.206.258.155a.393.393,0,0,1-.1.206,3.3,3.3,0,0,1-.1.361,1.677,1.677,0,0,0-.412.978,1.323,1.323,0,0,0-.361.824.266.266,0,0,0-.1.206v-.051a3.98,3.98,0,0,0-.361.824,1.081,1.081,0,0,0-.206.567c-.1.1-.1.206-.155.361h.052a1.147,1.147,0,0,0-.258.566c-.051.051-.051.155-.1.206a.705.705,0,0,0-.258.412l-.772,2.111a1.675,1.675,0,0,0-.206.721,6.051,6.051,0,0,0-.669,2.06,1.69,1.69,0,0,0-.206.875h-.051c.257.206.257.206.36.1l.464-.361c.823-.875,1.7-1.8,2.574-2.677.772-.772,1.545-1.545,2.317-2.266.824-.876,1.7-1.7,2.574-2.523.824-.772,1.6-1.6,2.472-2.317a.7.7,0,0,0,.206-.154c.309-.257.361-.257.67,0,.257.206.257.309.051.515m-14.264,1.184.979-1.236a5.4,5.4,0,0,0,.412-.566c.052-.052,0-.154-.1-.206h-.258a2.955,2.955,0,0,0-1.287.309,7.219,7.219,0,0,0-1.339.824.98.98,0,0,1-.515.258c.1-.206.361-.309.464-.515.154-.051.257-.1.308-.257a.821.821,0,0,0-.36.206,4.025,4.025,0,0,0-1.442,1.493c-.154.052-.257.258-.309.412a.535.535,0,0,0,.309-.412,1.468,1.468,0,0,0,.412-.36,2.212,2.212,0,0,1,.515-.464.983.983,0,0,1-.257.515,4.583,4.583,0,0,0-1.081,1.339,4.209,4.209,0,0,0-.515,1.545c-.051.206.1.308.309.257a4.8,4.8,0,0,0,.979-.566,18.93,18.93,0,0,0,2.78-2.575m-3.707,1.03a.423.423,0,0,0,.258-.258c-.1.051-.154.155-.258.258m.155-1.287h.1v-.1h.1v.1l.1-.1c.051-.051.051-.1.1-.1h-.1v.1h-.1v-.1c-.051,0-.051.052-.1.1a.111.111,0,0,0-.1.1m.206-.258h.1v-.051c-.052,0-.052.051-.1.051m.1-.1h.1v.1a.111.111,0,0,0,.1-.1h-.1V125a.111.111,0,0,1-.1.1m.154-.1h.052v-.1c0,.051-.052.051-.052.1m.1.1.1-.1a1.639,1.639,0,0,0,.669-.772c.051,0,.051-.051.1-.1a.268.268,0,0,0,.206-.1.206.206,0,0,0-.206.1l-.154.1a1.309,1.309,0,0,0-.721.669c0,.051.051.051.1.1h-.1Zm2.677,1.956v.051c.052,0,.052-.051.1-.051h-.1c0-.051.052-.1.1-.154v.1c.052,0,.052-.052.1-.1s.1-.051.1-.1h-.1c.051-.051.1-.051.1-.1,0,.051,0,.051.052.1,0-.051.051-.051.051-.1h-.1c.052-.051.1-.1.155-.1v.1a.111.111,0,0,1,.1-.1.914.914,0,0,0,.412-.566h-.1c.052-.051.1-.1.155-.1v.1c.051,0,.051-.051.1-.1l.1-.1h-.1c0-.051.051-.1.1-.154v.1c.051,0,.051-.051.1-.1a.425.425,0,0,0,.206-.309l.1-.1h-.1v.1h-.1c.052-.051.1-.1.1-.155.051,0,.1-.051.154-.1v.1l.1-.1h-.1v-.206c.052,0,.052-.051.1-.1h.1V125c.1-.1.206-.206.206-.309h-.1c.051-.052.051-.1.1-.1v.051c.051,0,.1-.051.154-.051h-.154v-.257a.747.747,0,0,0-.309.463c-.051,0-.1.051-.155.1a1.394,1.394,0,0,0-.36.412.111.111,0,0,1-.1.1,9.078,9.078,0,0,0-.669.772,11.755,11.755,0,0,0-1.081,1.184c.154,0,.308-.154.463-.206a.111.111,0,0,1,.1-.1m-.051,1.03a.282.282,0,0,0-.258.155c.1,0,.206-.1.258-.155m3.089-3.3a.1.1,0,0,0,0-.155s-.1,0-.1.052l-.206.206a29.456,29.456,0,0,1-2.06,2.369l-.257.308c0,.052-.051.052-.1.1a.365.365,0,0,0-.206.257.515.515,0,0,0,.258-.206l.1-.1a1.6,1.6,0,0,0,.464-.36,30.956,30.956,0,0,0,2.059-2.369c.052-.051.052-.051.052-.1m-2.832,2.008v.1h-.1c.052,0,.052-.051.1-.1m.927-.978v.1h-.1a.111.111,0,0,1,.1-.1m.206-.36v.206h-.1a.189.189,0,0,1,.051-.155Zm.052-.1h.051c0,.051-.051.051-.1.1,0-.051,0-.051.052-.1m.875-1.133h.1a.11.11,0,0,1,.1-.1c-.154-.1-.206-.1-.206.1m.309,1.6h.1a.179.179,0,0,1-.1.052Zm1.493-2.471a6.9,6.9,0,0,0,.721-.978h-.051l-.155.154c.052-.051.052-.051.1-.051a.516.516,0,0,1-.257.206l-.1.154a.161.161,0,0,1-.052.1v-.052l-.154.154c-.051.1-.051.206-.1.257l-.206.206a.051.051,0,0,1-.052.052c-.1.1-.154.257-.257.36v.1a.071.071,0,0,0,.1,0,1.961,1.961,0,0,0,.464-.669m-.464,7.466a.912.912,0,0,0,.206-.515.912.912,0,0,0-.206.515m1.442-8.393-1.184,1.648a1.02,1.02,0,0,0-.052.875c.052.206.052.412.1.618,0,.051-.051.154.1.154.052-.051.1-.1.1-.154.154-.309,1.236-2.935.927-3.141m-.67,6.334v.051c.052,0,.052-.051,0-.051m.361-6.385c0,.051-.051.051-.051.1,0-.051,0-.051.051-.1m.154-1.545c.1-.052.257-.1.309-.258l.1-.154a.347.347,0,0,0,.309-.206c0-.051.051-.1.1-.154v.1c.052-.051.052-.1.1-.154a.463.463,0,0,0,.308-.309l.1-.154a.182.182,0,0,0-.1.051.189.189,0,0,1-.051-.154h.1v-.1c-.052,0-.052.051-.1.1a1.011,1.011,0,0,0-.464.464.821.821,0,0,0-.36.464c-.051.051-.1.1-.1.154Zm.618,5.2a.98.98,0,0,0-.257.515.98.98,0,0,0,.257-.515m.206-6.076c.052.051.052.051.1.051-.051,0-.051,0-.1.052Zm0,6.437v-.051h.052a.051.051,0,0,0-.052.051m.361-1.7a.378.378,0,0,0-.1.309c.052-.1.052-.206.1-.309m.1-5.407a.465.465,0,0,0,.309-.309.179.179,0,0,0,.1-.051l.052-.051c-.052-.052-.052-.052-.1,0,0,.051-.052.051-.052.1a1.733,1.733,0,0,0-.309.309m.309,4.428c0,.051-.052.051-.1.1,0,.051,0,.1.051.1l.052-.052Zm1.339,6.488a9.763,9.763,0,0,0-1.236,1.287c-.1.051-.1.154-.155.257a10.62,10.62,0,0,0,1.287-1.339.267.267,0,0,0,.1-.206m-.206,1.133c-.051,0-.051.051-.1.1a3.231,3.231,0,0,0-.978,1.082,3.908,3.908,0,0,0,.978-1.082c.051-.051.1-.051.1-.1m-.772-8.445a.66.66,0,0,0-.206.515.915.915,0,0,0,.206-.515m.36.309a.312.312,0,0,1-.051-.206h.051Zm.515,7.981-.1.1a.111.111,0,0,0,.1-.1m.1-.1c-.052.051-.052.051-.052.1,0-.051.052-.051.052-.1m1.957-2.008c-.1,0-.1.051-.155.1l-.1.1c-.051,0-.051.051-.1.1s-.1.051-.1.1l-.1.1a7.827,7.827,0,0,0-1.287,1.339.188.188,0,0,0-.052.154,5.955,5.955,0,0,0,1.339-1.442c.052-.051.1-.051.1-.1l.1-.1.154-.154.1-.1c.051,0,.051-.051.1-.1m-1.339.515c.052,0,.052,0,.052-.051Zm.206-.206a1.419,1.419,0,0,0,.772-.772,2.754,2.754,0,0,0-.772.772m2.008-2.009a5.876,5.876,0,0,0-.978.979,2.008,2.008,0,0,0,.978-.979m.464.464c0-.051.051-.1.1-.154v.051c-.052,0-.052.052-.1.1m.1-.154a8.753,8.753,0,0,1,.979-.978,2.009,2.009,0,0,1-.979.978m1.236-1.957a3.147,3.147,0,0,0-1.081.927,1.073,1.073,0,0,0,.515-.309Zm-.1.875c-.052.052-.1.052-.1.1a.111.111,0,0,1,.1-.1m.463-.566h.1a1.1,1.1,0,0,1-.566.515Zm.1,0v-.1h.1a.111.111,0,0,0-.1.1m.1-.154v-.052h.1c-.052,0-.052.052-.1.052m.1-.206h.1c-.052.051-.052.1-.1.1Zm.824-1.442a2.819,2.819,0,0,0-.567.515c.361-.154.361-.154.567-.515" transform="translate(-167.004 -72.237)" fill="#845252"/>
    <path id="Path_28433" data-name="Path 28433" d="M335.369,124.534l-.927.875a.813.813,0,0,1-.412.258v-.1a.111.111,0,0,1-.1.1l-.1.154a40.912,40.912,0,0,1-.206.206l-.309.155c-.72.772-1.493,1.493-2.265,2.266a1.1,1.1,0,0,0-.154.257.111.111,0,0,0-.1.1c-.052.051-.1.051-.1.1.051,0,.051-.051.1-.1.052,0,.052-.051.1-.1.206-.051.308-.257.463-.36a1.368,1.368,0,0,1,.566-.515.715.715,0,0,1-.361.412c-.824.927-1.7,1.854-2.574,2.78-.515.618-1.03,1.184-1.6,1.751a23.37,23.37,0,0,1-2.523,2.523,3.643,3.643,0,0,1-.721.515,1.17,1.17,0,0,1-1.339-.154l-.257-.154a1.227,1.227,0,0,1-.464-1.03,4.674,4.674,0,0,1,.154-1.184,38.377,38.377,0,0,1,1.545-4.686c.155-.566.361-1.082.567-1.648a.955.955,0,0,0,.1-.361c.051-.1,0-.154-.052-.206-.206-.051-.206-.206-.206-.412v-.618c0-.155-.154-.155-.257-.155v.051c-.052,0-.052.052-.1.1v-.1a.111.111,0,0,0-.1.1h-.051a1.093,1.093,0,0,1-.206.309.111.111,0,0,1-.1.1l-.1.155h.1c-.051,0-.051.051-.1.1a14.968,14.968,0,0,1-4.222,3.6,4.73,4.73,0,0,1-1.184.463,1.685,1.685,0,0,1-.876-.051,2.093,2.093,0,0,1-1.236-1.236.707.707,0,0,1-.051-.566,3.975,3.975,0,0,1,.309-1.184,10.157,10.157,0,0,1,.618-1.082,9.579,9.579,0,0,1,2.163-2.162,4.787,4.787,0,0,1,2.987-.927,3.018,3.018,0,0,1,.927.206c.309.1.36.1.618-.206.361-.566.772-1.081,1.133-1.648l.206.1v-.051c.824-.875,1.545-1.905,2.42-2.729a2.965,2.965,0,0,1,.566-.567.485.485,0,0,1,.669-.051,2.155,2.155,0,0,1,.36.257.926.926,0,0,1,.412,1.184,12.266,12.266,0,0,1-.824,2.06,1.565,1.565,0,0,0-.206.412l.155-.206a.627.627,0,0,1-.206.463v-.206a4,4,0,0,1-.257.721l-.051.206.258.155a.392.392,0,0,1-.1.206,3.345,3.345,0,0,1-.1.361,1.676,1.676,0,0,0-.412.978,1.324,1.324,0,0,0-.361.824.266.266,0,0,0-.1.206v-.051a3.977,3.977,0,0,0-.361.824,1.081,1.081,0,0,0-.206.567c-.1.1-.1.206-.155.361h.052a1.146,1.146,0,0,0-.258.566c-.051.051-.051.155-.1.206a.705.705,0,0,0-.258.412l-.772,2.111a1.675,1.675,0,0,0-.206.721,6.052,6.052,0,0,0-.669,2.06,1.69,1.69,0,0,0-.206.875h-.051c.257.206.257.206.36.1l.464-.361c.823-.875,1.7-1.8,2.574-2.677.772-.772,1.545-1.545,2.317-2.266.824-.876,1.7-1.7,2.574-2.523.824-.772,1.6-1.6,2.472-2.317a.7.7,0,0,0,.206-.154c.309-.257.361-.257.67,0,.257.206.257.309.051.515m-14.264,1.184.979-1.236a5.4,5.4,0,0,0,.412-.566c.052-.052,0-.154-.1-.206h-.258a2.956,2.956,0,0,0-1.287.309,7.222,7.222,0,0,0-1.339.824.981.981,0,0,1-.515.258c.1-.206.361-.309.464-.515.154-.051.257-.1.308-.257a.821.821,0,0,0-.36.206,4.025,4.025,0,0,0-1.442,1.493c-.154.052-.257.258-.309.412a.535.535,0,0,0,.309-.412,1.47,1.47,0,0,0,.412-.36,2.213,2.213,0,0,1,.515-.464.983.983,0,0,1-.257.515,4.583,4.583,0,0,0-1.081,1.339,4.208,4.208,0,0,0-.515,1.545c-.051.206.1.308.309.257a4.8,4.8,0,0,0,.979-.566,18.929,18.929,0,0,0,2.78-2.575m-3.707,1.03a.423.423,0,0,0,.258-.258c-.1.051-.154.155-.258.258m.155-1.287h.1v-.1h.1v.1l.1-.1c.051-.051.051-.1.1-.1h-.1v.1h-.1v-.1c-.051,0-.051.052-.1.1a.111.111,0,0,0-.1.1m.206-.258h.1v-.051c-.052,0-.052.051-.1.051m.1-.1h.1v.1a.111.111,0,0,0,.1-.1h-.1V125a.111.111,0,0,1-.1.1m.154-.1h.052v-.1c0,.051-.052.051-.052.1m.1.1.1-.1a1.64,1.64,0,0,0,.669-.772c.051,0,.051-.051.1-.1a.268.268,0,0,0,.206-.1.206.206,0,0,0-.206.1l-.154.1a1.308,1.308,0,0,0-.721.669c0,.051.051.051.1.1h-.1Zm2.677,1.956v.051c.051,0,.051-.051.1-.051h-.1c0-.051.051-.1.1-.154v.1c.052,0,.052-.052.1-.1s.1-.051.1-.1H321c.051-.051.1-.051.1-.1,0,.051,0,.051.052.1,0-.051.051-.051.051-.1h-.1c.052-.051.1-.1.155-.1v.1a.111.111,0,0,1,.1-.1.914.914,0,0,0,.412-.566h-.1c.052-.051.1-.1.155-.1v.1c.051,0,.051-.051.1-.1l.1-.1h-.1c0-.051.051-.1.1-.154v.1c.051,0,.051-.051.1-.1a.425.425,0,0,0,.206-.309l.1-.1h-.1v.1h-.1c.052-.051.1-.1.1-.155.052,0,.1-.051.154-.1v.1l.1-.1h-.1v-.206c.052,0,.052-.051.1-.1h.1V125c.1-.1.206-.206.206-.309h-.1c.051-.052.051-.1.1-.1v.051c.051,0,.1-.051.154-.051h-.154v-.257a.747.747,0,0,0-.309.463c-.051,0-.1.051-.155.1a1.4,1.4,0,0,0-.36.412.111.111,0,0,1-.1.1,9.067,9.067,0,0,0-.669.772,11.748,11.748,0,0,0-1.081,1.184c.154,0,.308-.154.463-.206a.111.111,0,0,1,.1-.1m-.051,1.03a.282.282,0,0,0-.258.155c.1,0,.206-.1.258-.155m3.089-3.3a.1.1,0,0,0,0-.155s-.1,0-.1.052l-.206.206a29.48,29.48,0,0,1-2.06,2.369l-.257.308c0,.052-.051.052-.1.1a.365.365,0,0,0-.206.257.515.515,0,0,0,.258-.206l.1-.1a1.6,1.6,0,0,0,.464-.36,30.943,30.943,0,0,0,2.059-2.369c.052-.051.052-.051.052-.1M321,126.8v.1h-.1c.052,0,.052-.051.1-.1m.927-.978v.1h-.1a.111.111,0,0,1,.1-.1m.206-.36v.206h-.1a.189.189,0,0,1,.051-.155Zm.052-.1h.051c0,.051-.051.051-.1.1,0-.051,0-.051.052-.1m.875-1.133h.1a.11.11,0,0,1,.1-.1c-.154-.1-.206-.1-.206.1m.309,1.6h.1a.179.179,0,0,1-.1.052Zm1.493-2.471a6.9,6.9,0,0,0,.721-.978h-.051l-.155.154c.052-.051.052-.051.1-.051a.515.515,0,0,1-.257.206l-.1.154a.161.161,0,0,1-.052.1v-.052l-.154.154c-.051.1-.051.206-.1.257l-.206.206a.05.05,0,0,1-.051.052c-.1.1-.154.257-.257.36v.1a.071.071,0,0,0,.1,0,1.962,1.962,0,0,0,.464-.669m-.464,7.466a.911.911,0,0,0,.206-.515.911.911,0,0,0-.206.515m1.442-8.393-1.184,1.648a1.021,1.021,0,0,0-.052.875c.052.206.052.412.1.618,0,.051-.051.154.1.154.052-.051.1-.1.1-.154.154-.309,1.236-2.935.927-3.141m-.67,6.334v.051c.052,0,.052-.051,0-.051m.361-6.385c0,.051-.052.051-.052.1,0-.051,0-.051.052-.1m.154-1.545c.1-.052.257-.1.309-.258l.1-.154a.347.347,0,0,0,.309-.206c0-.051.051-.1.1-.154v.1c.052-.051.052-.1.1-.154a.462.462,0,0,0,.308-.309l.1-.154a.182.182,0,0,0-.1.051.189.189,0,0,1-.051-.154h.1v-.1c-.052,0-.052.051-.1.1a1.011,1.011,0,0,0-.464.464.821.821,0,0,0-.36.464c-.051.051-.1.1-.1.154Zm.618,5.2a.98.98,0,0,0-.257.515.98.98,0,0,0,.257-.515m.206-6.076c.052.051.052.051.1.051-.051,0-.051,0-.1.052Zm0,6.437v-.051h.052a.051.051,0,0,0-.052.051m.361-1.7a.378.378,0,0,0-.1.309c.051-.1.051-.206.1-.309m.1-5.407a.465.465,0,0,0,.309-.309.18.18,0,0,0,.1-.051l.052-.051c-.052-.052-.052-.052-.1,0,0,.051-.052.051-.052.1a1.738,1.738,0,0,0-.309.309m.309,4.428c0,.051-.051.051-.1.1,0,.051,0,.1.051.1l.051-.052Zm1.339,6.488a9.752,9.752,0,0,0-1.236,1.287c-.1.051-.1.154-.155.257a10.62,10.62,0,0,0,1.287-1.339.267.267,0,0,0,.1-.206m-.206,1.133c-.051,0-.051.051-.1.1a3.23,3.23,0,0,0-.978,1.082,3.908,3.908,0,0,0,.978-1.082c.051-.051.1-.051.1-.1m-.772-8.445a.66.66,0,0,0-.206.515.916.916,0,0,0,.206-.515m.36.309a.312.312,0,0,1-.051-.206h.051Zm.515,7.981-.1.1a.111.111,0,0,0,.1-.1m.1-.1c-.052.051-.052.051-.052.1,0-.051.052-.051.052-.1m1.957-2.008c-.1,0-.1.051-.155.1l-.1.1c-.051,0-.051.051-.1.1s-.1.051-.1.1l-.1.1a7.83,7.83,0,0,0-1.287,1.339.188.188,0,0,0-.052.154,5.954,5.954,0,0,0,1.339-1.442c.052-.051.1-.051.1-.1l.1-.1.154-.154.1-.1c.052,0,.052-.051.1-.1m-1.339.515c.052,0,.052,0,.052-.051Zm.206-.206a1.419,1.419,0,0,0,.772-.772,2.754,2.754,0,0,0-.772.772m2.008-2.009a5.877,5.877,0,0,0-.978.979,2.008,2.008,0,0,0,.978-.979m.464.464c0-.051.051-.1.1-.154v.051c-.052,0-.052.052-.1.1m.1-.154A8.753,8.753,0,0,1,333,126.7a2.009,2.009,0,0,1-.979.978m1.236-1.957a3.148,3.148,0,0,0-1.082.927,1.073,1.073,0,0,0,.515-.309Zm-.1.875c-.052.052-.1.052-.1.1a.111.111,0,0,1,.1-.1m.463-.566h.1a1.1,1.1,0,0,1-.566.515Zm.1,0v-.1h.1a.111.111,0,0,0-.1.1m.1-.154v-.052h.1c-.052,0-.052.052-.1.052m.1-.206h.1c-.052.051-.052.1-.1.1Zm.824-1.442a2.817,2.817,0,0,0-.567.515c.361-.154.361-.154.567-.515" transform="translate(-193.517 -72.237)" fill="#845252"/>
  </g>
</svg>
