<svg id="Component_106_1" data-name="Component 106 – 1" xmlns="http://www.w3.org/2000/svg" xmlns:xlink="http://www.w3.org/1999/xlink" width="179.882" height="44.768" viewBox="0 0 179.882 44.768">
  <defs>
    <clipPath id="clip-path">
      <rect id="Rectangle_8155" data-name="Rectangle 8155" width="179.882" height="44.768" fill="none"/>
    </clipPath>
  </defs>
  <g id="Group_7154" data-name="Group 7154" clip-path="url(#clip-path)">
    <path id="Path_29528" data-name="Path 29528" d="M0,23.185V.22H4.763a24.334,24.334,0,0,1,7.477.827,10,10,0,0,1,5.222,4.06,12.331,12.331,0,0,1,1.882,6.883,12.078,12.078,0,0,1-1.491,6.075,9.569,9.569,0,0,1-3.871,3.871,14.6,14.6,0,0,1-6.676,1.249Zm2.2-2.17H4.855a24.7,24.7,0,0,0,6.605-.593,7.6,7.6,0,0,0,4.073-3.034,9.34,9.34,0,0,0,1.485-5.359A9.83,9.83,0,0,0,15.41,6.353a8.1,8.1,0,0,0-4.48-3.23,27.151,27.151,0,0,0-7.1-.656H2.2Z" transform="translate(0 0.357)" fill="#3f3f3f"/>
    <path id="Path_29529" data-name="Path 29529" d="M19.706.22l10.71,22.965h-2.48L24.322,15.63H14.431l-3.58,7.555H8.293L19.142.22ZM19.415,5.1l-3.936,8.314H23.33Z" transform="translate(13.47 0.357)" fill="#3f3f3f"/>
    <path id="Path_29530" data-name="Path 29530" d="M18.085,23.185V.22h.5l15.284,17.6V.22h2.265V23.185h-.514L20.458,5.8V23.185Z" transform="translate(29.376 0.357)" fill="#3f3f3f"/>
    <path id="Path_29531" data-name="Path 29531" d="M27.092,23.185V.22h4.763a24.334,24.334,0,0,1,7.477.827,10,10,0,0,1,5.222,4.06,12.331,12.331,0,0,1,1.882,6.883,12.078,12.078,0,0,1-1.491,6.075,9.569,9.569,0,0,1-3.871,3.871A14.6,14.6,0,0,1,34.4,23.185Zm2.2-2.17h2.653a24.7,24.7,0,0,0,6.605-.593,7.62,7.62,0,0,0,4.076-3.034,9.359,9.359,0,0,0,1.483-5.359A9.83,9.83,0,0,0,42.5,6.353a8.1,8.1,0,0,0-4.48-3.23,27.151,27.151,0,0,0-7.1-.656H29.294Z" transform="translate(44.005 0.357)" fill="#3f3f3f"/>
    <path id="Path_29532" data-name="Path 29532" d="M36.164.22H49.325V2.469H38.458v7.2H49.231v2.249H38.458v9.022H49.231v2.249H36.164Z" transform="translate(58.741 0.357)" fill="#3f3f3f"/>
    <path id="Path_29533" data-name="Path 29533" d="M42.691.22h2.3V20.968h8.836v2.218H42.691Z" transform="translate(69.341 0.357)" fill="#3f3f3f"/>
    <rect id="Rectangle_8154" data-name="Rectangle 8154" width="2.296" height="22.965" transform="translate(126.472 0.577)" fill="#3f3f3f"/>
    <path id="Path_29534" data-name="Path 29534" d="M62.637,0a11.91,11.91,0,0,1,8.734,3.482,11.588,11.588,0,0,1,3.514,8.571,11.649,11.649,0,0,1-3.506,8.555,11.632,11.632,0,0,1-8.553,3.514,11.76,11.76,0,0,1-8.623-3.5,11.494,11.494,0,0,1-3.517-8.461,12.225,12.225,0,0,1,1.6-6.136A11.821,11.821,0,0,1,62.637,0m.1,2.233a9.447,9.447,0,0,0-4.831,1.328,9.579,9.579,0,0,0-3.566,3.577,9.949,9.949,0,0,0-1.281,5.018A9.364,9.364,0,0,0,55.9,19.068a9.349,9.349,0,0,0,6.842,2.821,9.839,9.839,0,0,0,4.949-1.3,9.273,9.273,0,0,0,3.548-3.548,9.958,9.958,0,0,0,1.275-5A9.705,9.705,0,0,0,71.237,7.1a9.505,9.505,0,0,0-3.587-3.54,9.7,9.7,0,0,0-4.91-1.328" transform="translate(82.328 -0.001)" fill="#3f3f3f"/>
    <path id="Path_29535" data-name="Path 29535" d="M61.668,23.185V.22h.5l15.286,17.6V.22h2.262V23.185H79.2L64.04,5.8V23.185Z" transform="translate(100.167 0.357)" fill="#3f3f3f"/>
    <path id="Path_29536" data-name="Path 29536" d="M19.727,12.017a.9.9,0,0,1,.727.483v.163l-.244.244-.079-.081c-.8.066-1.226.228-1.294.483A9.807,9.807,0,0,0,21.1,15.4a1.929,1.929,0,0,1,.323.89v.241c0,.7-.541,1.157-1.614,1.373h-.244c-.646-.134-.968-.459-.968-.968v-.163l.241-.241h.081c.055.375.352.564.89.564.538-.147.806-.417.806-.806q0-.283-1.937-1.777a2.524,2.524,0,0,1-.727-1.289q0-.85,1.777-1.212" transform="translate(29.156 19.518)" fill="#dbc68a"/>
    <path id="Path_29537" data-name="Path 29537" d="M21.1,9.258q.181,0,.323.646A84.055,84.055,0,0,0,20.3,20.311c.173,1.832.577,2.742,1.21,2.742l.079.081v.081l-.646.16q-1.126,0-1.451-2.5v-.567A62.51,62.51,0,0,1,20.778,9.339l.081-.081Z" transform="translate(31.652 15.037)" fill="#dbc68a"/>
    <path id="Path_29538" data-name="Path 29538" d="M23.525,12.248c.593.039.887.283.887.727l-.323.241-.079-.081h-.081v.081a2.54,2.54,0,0,1,.727,1.291v.564a2.931,2.931,0,0,1-2.824,2.178h-.485q-1.13-.264-1.128-1.128v-.244q0-1.512,2.5-3.388Zm-.887,1.291-.727.806v.646h-.16v-.4q-.3,0-.727,1.37c0,.323.189.485.564.485h.323q1.937-.646,1.937-1.614v-.081q-.342-1.208-1.21-1.21" transform="translate(32.84 19.894)" fill="#dbc68a"/>
    <path id="Path_29539" data-name="Path 29539" d="M29.71,11.678c.255,0,.443.3.564.89a6.966,6.966,0,0,1-.727,2.5v.323l.244,5.808,2.9-.724v.16a12.769,12.769,0,0,0-2.9.887l.241,4.115-.241.163h-.244A20.73,20.73,0,0,0,22.2,24.267c-1.344-.215-2.018-.457-2.018-.727v-.323c0-.241,1.16-.4,3.469-.483L28.9,21.362V21.12L28.739,16.2H28.66a3,3,0,0,1-1.777,1.05h-.16q-1.13-.283-1.128-1.05v-.646q.622-2.417,2.1-2.42h.081a1.4,1.4,0,0,1,.966.4h.081c.094-1.239.362-1.858.808-1.858ZM23.5,23.458v.081q5.082.626,5.083,1.05l.564.16v-.079l-.16-2.905H28.9A55.012,55.012,0,0,1,23.5,23.458m2.905-7.5a.5.5,0,0,0,.4.483q.787,0,1.855-1.855v-.16c0-.173-.323-.336-.968-.483A2.072,2.072,0,0,0,26.4,15.956" transform="translate(32.788 18.968)" fill="#dbc68a"/>
    <path id="Path_29540" data-name="Path 29540" d="M28.318,12.34h.241c.108,0,.215.16.323.483a2.683,2.683,0,0,0-.16,1.05v.16c0,1.076.669,1.614,2.015,1.614h.485a4.72,4.72,0,0,0,1.37-.323h.081a4.6,4.6,0,0,1-2.661,1.05h-.244a1.8,1.8,0,0,1-1.7-1.291q-1.189,1.693-2.178,1.7h-.4c-.593-.108-.887-.4-.887-.89v-.483q.441-2.181,2.178-2.178l.079-.081.968.241v-.079a1.028,1.028,0,0,1,.485-.968m-2.905,3.307v.081l.241.241h.081q1.027,0,1.855-2.018h-.081a1.841,1.841,0,0,0-2.015,1.212Z" transform="translate(39.969 20.043)" fill="#dbc68a"/>
    <path id="Path_29541" data-name="Path 29541" d="M27.635,11.587h.241c.163.055.241.215.241.485v.4l-.32,3.873v.081h.079q.787-3.311,1.372-3.309h.081q.968,0,.968,3.147.665,3.472,1.533,3.469c.16,0,.457-.186.887-.564v.081c-.391.646-.793.968-1.21.968h-.163q-1.531,0-2.015-5.647h-.081A33.19,33.19,0,0,1,27.8,19.413l-.244.163h-.241c-.323-.147-.483-.5-.483-1.05q.421-6.936.806-6.939" transform="translate(43.578 18.82)" fill="#dbc68a"/>
    <path id="Path_29542" data-name="Path 29542" d="M39.173,11.678c.255,0,.444.3.564.89a6.965,6.965,0,0,1-.727,2.5v.323l.241,5.808,2.905-.724v.16a12.871,12.871,0,0,0-2.905.887l.244,4.115-.244.163H39.01a20.729,20.729,0,0,0-7.343-1.533c-1.344-.215-2.018-.457-2.018-.727v-.323q0-.362,3.469-.483l5.246-1.372V21.12L38.2,16.2h-.079a3,3,0,0,1-1.777,1.05h-.16q-1.13-.283-1.128-1.05v-.646q.622-2.417,2.1-2.42h.079a1.4,1.4,0,0,1,.968.4h.081c.094-1.239.362-1.858.808-1.858Zm-6.214,11.78v.081q5.082.626,5.083,1.05l.564.16v-.079l-.16-2.905h-.081a55.012,55.012,0,0,1-5.406,1.693m2.905-7.5a.5.5,0,0,0,.4.483q.787,0,1.855-1.855v-.16c0-.173-.323-.336-.968-.483a2.072,2.072,0,0,0-1.291,2.015" transform="translate(48.158 18.968)" fill="#dbc68a"/>
    <path id="Path_29543" data-name="Path 29543" d="M37.253,12.248c.593.039.887.283.887.727l-.323.241-.079-.081h-.081v.081a2.54,2.54,0,0,1,.727,1.291v.564A2.931,2.931,0,0,1,35.56,17.25h-.485q-1.13-.264-1.128-1.128v-.244q0-1.512,2.5-3.388Zm-.887,1.291-.727.806v.646h-.16v-.4q-.3,0-.727,1.37c0,.323.189.485.564.485h.323q1.937-.646,1.937-1.614v-.081q-.342-1.208-1.21-1.21" transform="translate(55.138 19.894)" fill="#dbc68a"/>
    <path id="Path_29544" data-name="Path 29544" d="M39.021,12.194h.4c.538.108.808.375.808.808v.241q0,1.453-2.664,2.664l-.483.079H36.52c0,.378.244.567.727.567h.485a23.958,23.958,0,0,0,4.679-.89,8.42,8.42,0,0,1-4.842,1.777q-1.854,0-1.855-1.131v-.323q0-1.268,2.1-3.307a2.36,2.36,0,0,1,1.21-.485M37.005,15.18a4.055,4.055,0,0,0,2.42-1.777v-.241l-.16-.16q-1.252,0-2.341,2.178Z" transform="translate(58.01 19.806)" fill="#dbc68a"/>
    <path id="Path_29545" data-name="Path 29545" d="M39.888,12.017a.9.9,0,0,1,.727.483v.163l-.244.244-.079-.081c-.8.066-1.226.228-1.294.483a9.808,9.808,0,0,0,2.262,2.1,1.919,1.919,0,0,1,.32.89v.241c0,.7-.538,1.157-1.611,1.373h-.244c-.646-.134-.968-.459-.968-.968v-.163L39,16.536h.081c.055.375.352.564.89.564.535-.147.806-.417.806-.806q0-.283-1.937-1.777a2.524,2.524,0,0,1-.727-1.289q0-.85,1.777-1.212" transform="translate(61.903 19.518)" fill="#dbc68a"/>
    <path id="Path_29546" data-name="Path 29546" d="M43.745,11.11c.213.081.32.16.32.241a48.058,48.058,0,0,0-.564,5.487v.727h.084q.441-2.582,1.37-2.582L45.2,14.9q1.208,0,1.212,3.551L46,18.694q-.563,0-.646-2.5l-.076-.323-.084-.081h-.081a6.02,6.02,0,0,0-.966,2.986.732.732,0,0,1-.648.483q-.787,0-.884-2.015.3-6.133,1.128-6.133" transform="translate(69.222 18.045)" fill="#dbc68a"/>
    <path id="Path_29547" data-name="Path 29547" d="M47.56,12.194h.4c.538.108.808.375.808.808v.241q0,1.453-2.664,2.664l-.483.079h-.564q0,.567.724.567h.485a23.958,23.958,0,0,0,4.679-.89,8.414,8.414,0,0,1-4.842,1.777q-1.854,0-1.855-1.131v-.323q0-1.268,2.1-3.307a2.36,2.36,0,0,1,1.21-.485M45.544,15.18a4.055,4.055,0,0,0,2.42-1.777v-.241L47.8,13q-1.252,0-2.341,2.178Z" transform="translate(71.879 19.806)" fill="#dbc68a"/>
    <path id="Path_29548" data-name="Path 29548" d="M49.939,12.12c.7,0,1.037.228,1.008.688s-.415.5-1.168.121q-2.141.7-2.139,1.955l-.081,2.22v.079l.16.244v.646l-.323.323c-.483,0-.724-.567-.724-1.7l.16-1.735c-.16,0-.241-.055-.241-.16v-.163a11.583,11.583,0,0,0,.646-2.582l.081-.081h.16c.163,0,.241.378.241,1.131a3.418,3.418,0,0,1,2.22-.989" transform="translate(75.675 19.455)" fill="#dbc68a"/>
    <path id="Path_29549" data-name="Path 29549" d="M51.35,12.194h.4c.538.108.808.375.808.808v.241q0,1.453-2.664,2.664l-.483.079h-.564q0,.567.724.567h.485a23.958,23.958,0,0,0,4.679-.89A8.414,8.414,0,0,1,49.9,17.44q-1.854,0-1.855-1.131v-.323q0-1.268,2.1-3.307a2.36,2.36,0,0,1,1.21-.485M49.334,15.18a4.055,4.055,0,0,0,2.42-1.777v-.241l-.16-.16q-1.252,0-2.341,2.178Z" transform="translate(78.035 19.806)" fill="#dbc68a"/>
  </g>
</svg>
