<svg id="Component_109_1" data-name="Component 109 – 1" xmlns="http://www.w3.org/2000/svg" xmlns:xlink="http://www.w3.org/1999/xlink" width="170.328" height="35" viewBox="0 0 170.328 35">
  <defs>
    <clipPath id="clip-path">
      <rect id="Rectangle_8152" data-name="Rectangle 8152" width="170.328" height="35" fill="none"/>
    </clipPath>
  </defs>
  <g id="Group_7150" data-name="Group 7150" clip-path="url(#clip-path)">
    <path id="Path_29522" data-name="Path 29522" d="M434.786,2.264a10.128,10.128,0,0,0-1.869,2c-2.271,3.174-2.882,7.346-2.882,11.162a27.746,27.746,0,0,0,1.7,10,16.818,16.818,0,0,0,4.753,7,10.906,10.906,0,0,0,4.278,2.24l.147.038-.045.3-.151-.007a16.813,16.813,0,0,1-8.031-2.326,16.067,16.067,0,0,1-6.035-6.358,18.532,18.532,0,0,1-2.138-8.8,16.1,16.1,0,0,1,2.793-9.514,17.633,17.633,0,0,1,7.219-5.976l.082-.037.135-.062.156.253Zm14.79,30.747a12.613,12.613,0,0,0,4.1-5.612,23.406,23.406,0,0,0,1.454-8.657,26.3,26.3,0,0,0-1.619-9.492,15.134,15.134,0,0,0-4.774-6.676A11.474,11.474,0,0,0,443.72.335l-.152-.028L443.6,0h.155a16.785,16.785,0,0,1,8.859,2.4,16.274,16.274,0,0,1,5.958,6.333,17.75,17.75,0,0,1,2.082,8.383,16.541,16.541,0,0,1-2.589,9.011,18.724,18.724,0,0,1-6.964,6.5q-.664.362-1.354.674l-.138.062-.153-.261Z" transform="translate(-376.716 0.001)" fill-rule="evenodd"/>
    <path id="Path_29523" data-name="Path 29523" d="M821.141,33.52a8.242,8.242,0,0,0,1.344,4.374,5.134,5.134,0,0,0,.865.95l.362.306h-5.828l.413-.311a5.511,5.511,0,0,0,.939-.905,7.527,7.527,0,0,0,1.568-4.415l.01-.159h.318ZM850.383,5.891a5.269,5.269,0,0,0-.871.94,7.893,7.893,0,0,0-1.375,3.995l-.014.154h-.309l-.013-.154a8.042,8.042,0,0,0-1.317-4.014,5.18,5.18,0,0,0-.823-.914l-.371-.32,5.478-.007Zm-2.3,26.38v7.507L820.871,8.789l-.227-.25a16.664,16.664,0,0,0-2.889-2.631l-.468-.315.564.007c.292,0,.584,0,.874,0L823,5.548c.636-.044,1.27-.056,1.908-.056a.555.555,0,0,1,.178.022l.039.015.028.03c.237.259.451.563.667.845.443.6.883,1.207,1.372,1.771Z" transform="translate(-725.263 -4.874)" fill-rule="evenodd"/>
    <path id="Path_29524" data-name="Path 29524" d="M3.068,29.842a7.38,7.38,0,0,0,1.3,3.739,5.051,5.051,0,0,0,.854.906l.374.307L0,34.8l.386-.308a5.457,5.457,0,0,0,.9-.924,7.66,7.66,0,0,0,1.444-3.73l.02-.149.3.006ZM37.184,1.522a2.552,2.552,0,0,0-.492.859,8.835,8.835,0,0,0-.319,2.726V31a8.822,8.822,0,0,0,.322,2.762,2.45,2.45,0,0,0,.419.746l.233.281H30.431l.243-.283a2.551,2.551,0,0,0,.444-.76A8.186,8.186,0,0,0,31.472,31V4.995a7.974,7.974,0,0,0-.357-2.726,2.551,2.551,0,0,0-.45-.748l-.255-.294,7.032,0ZM3.143,4.665A10.316,10.316,0,0,0,.7,1.533L.3,1.214C3.232.5,6.077-.44,8.391,3.708L21.47,28.246l-2.661,6.24L3.346,5.089Z" transform="translate(0 -0.521)" fill-rule="evenodd"/>
    <path id="Path_29525" data-name="Path 29525" d="M1206.145,247.937a7.174,7.174,0,0,0-.284,1.944,4.471,4.471,0,0,0,1.7,3.693c.032.025.064.051.1.074l.436.325-6.438.036.391-.323a9.134,9.134,0,0,0,1.781-2.109,31.715,31.715,0,0,0,2-3.758l.066-.141.291.109Z" transform="translate(-1066.352 -219.791)" fill-rule="evenodd"/>
    <path id="Path_29526" data-name="Path 29526" d="M1333.6,19.337l-5.758-11.37,2.61-5.739,13.924,27.4a28.2,28.2,0,0,0,3.347,5.639l.655.675.281.25h-8.141l.15-.263a2,2,0,0,0,.247-1,9.441,9.441,0,0,0-1.2-3.517l-6.129-12.079Z" transform="translate(-1178.331 -1.977)" fill-rule="evenodd"/>
  </g>
</svg>
