<svg id="Component_110_1" data-name="Component 110 – 1" xmlns="http://www.w3.org/2000/svg" xmlns:xlink="http://www.w3.org/1999/xlink" width="116.028" height="57.19" viewBox="0 0 116.028 57.19">
  <defs>
    <clipPath id="clip-path">
      <rect id="Rectangle_8157" data-name="Rectangle 8157" width="116.028" height="57.19" fill="#6e5252"/>
    </clipPath>
  </defs>
  <g id="Group_7158" data-name="Group 7158" clip-path="url(#clip-path)">
    <path id="Path_29556" data-name="Path 29556" d="M33.29,54.473c.072-.039.126-.01.164.088a.864.864,0,0,1,.028.383,4.41,4.41,0,0,1-.08.473.77.77,0,0,1-.107.3,3.329,3.329,0,0,1-1.032.8q-.706.388-1.549.746a11.353,11.353,0,0,1-1.687.569,10.459,10.459,0,0,1-1.442.272c-.146,0-.218.041-.218.119a21.6,21.6,0,0,1-5.378,9.327,11.391,11.391,0,0,1-8.241,3.317,10.644,10.644,0,0,1-4.554-.983,11.277,11.277,0,0,1-3.8-2.877,14.792,14.792,0,0,1-2.665-4.623,18.85,18.85,0,0,1-1.092-6.226q0-1,.015-2.716a29.127,29.127,0,0,1,.309-3.752A29.507,29.507,0,0,1,2.922,45.4a17.662,17.662,0,0,1,1.942-4.29,16.346,16.346,0,0,1,3.224-3.736,14.045,14.045,0,0,1,4.838-2.651.361.361,0,0,0,.326-.179.509.509,0,0,0,.053-.3l.159-.886a8.139,8.139,0,0,1,1.24-2.9,5.5,5.5,0,0,1,1.818-1.573,4.952,4.952,0,0,1,2.2-.6,5.684,5.684,0,0,1,2.263.4,5.915,5.915,0,0,1,2.05,1.379A15.562,15.562,0,0,1,26.057,34.4a25.3,25.3,0,0,1,1.768,5.071,30.953,30.953,0,0,1,.761,5.282q.148,2.657.05,4.961t-.363,4.135q-.264,1.833-.477,2.778a11.229,11.229,0,0,0,2.885-.662,8.721,8.721,0,0,0,2.609-1.489M2.984,52.9q.046-1.829-.011-2.362a.7.7,0,0,0-.029-.206.541.541,0,0,1-.028-.147v-.059c-.036,0-.054.021-.054.059a1.818,1.818,0,0,1-.107.355c-.035.2-.072.472-.105.827s-.069.868-.1,1.536-.04,1.2-.019,1.595a7.066,7.066,0,0,0,.085.886,1.314,1.314,0,0,0,.029.295.852.852,0,0,1,.027.177c0,.079.019.118.056.118s.054-.039.054-.118a2.087,2.087,0,0,1,.052-.473A22.286,22.286,0,0,0,2.984,52.9m-.253,4.077q.163,0,.162-.355c0-.2-.056-.295-.165-.294l-.054.059a.286.286,0,0,0-.053.3.36.36,0,0,0,.056.235c0,.039.018.059.055.059m1.595,3.064c0-.038-.01-.059-.028-.059s-.027-.039-.027-.118A2.042,2.042,0,0,1,4.1,59.1a16.439,16.439,0,0,1-.172-1.919q-.062-1.269.038-3.337.049-1.063.073-1.86c.015-.533.022-1.014.021-1.448q.05-.65.077-1.093c.016-.3.024-.541.023-.738,0-.433,0-.7,0-.8s-.02-.148-.055-.148a.254.254,0,0,0-.053.177A.623.623,0,0,0,4,48.2a2.849,2.849,0,0,1-.052.443c-.036.2-.072.444-.106.739s-.07.66-.1,1.092-.069.917-.1,1.448-.068,1.153-.1,1.862A32.554,32.554,0,0,0,3.6,57.211a13.135,13.135,0,0,0,.281,1.948c.074.2.129.353.166.472a2.347,2.347,0,0,0,.111.295.172.172,0,0,0,.055.118h.055c0,.04.018.059.054.059Zm9.3,8.461a6.072,6.072,0,0,0,3.754-1.4A14.011,14.011,0,0,0,20.2,63.955a20.5,20.5,0,0,0,1.945-3.7,30.012,30.012,0,0,0,1.076-3.076,13.99,13.99,0,0,1-3.854-2.609,15.523,15.523,0,0,1-2.933-3.737q-.441-.825-.8-1.68c-.24-.569-.45-1.129-.635-1.68q-.33-.885-.58-1.8t-.472-1.858q-.446-1.888-.7-3.776a20.188,20.188,0,0,1-.154-3.779,14.616,14.616,0,0,0-2.146,1.368,12.653,12.653,0,0,0-1.872,1.78A12.248,12.248,0,0,0,7.563,41.63a15.96,15.96,0,0,0-1.078,2.515A25.4,25.4,0,0,0,5.03,53.276,26.061,26.061,0,0,0,6.4,61.1a14.793,14.793,0,0,0,3.187,5.449A5.424,5.424,0,0,0,13.629,68.5m.787,1.473c0-.079-.184-.137-.546-.174l-.764-.174a4.212,4.212,0,0,0-.6-.2,4.565,4.565,0,0,1-.709-.263,5.185,5.185,0,0,1-1.228-.585,6.252,6.252,0,0,0-.629-.411l-.273-.176a.065.065,0,0,0-.109,0v.059l.221.353a3.558,3.558,0,0,0,.574.588,4.717,4.717,0,0,0,1.284.7A13.678,13.678,0,0,0,13,70.042a2.369,2.369,0,0,0,.491.056h.382a.846.846,0,0,0,.217-.031.818.818,0,0,1,.218-.03c.072,0,.109-.022.109-.06m.746-.062c0-.118-.11-.177-.327-.176-.145.04-.217.119-.217.237a.172.172,0,0,0,.056.118.3.3,0,0,0,.218.058.3.3,0,0,0,.217-.119.174.174,0,0,0,.054-.118m9.181-16.876a38.555,38.555,0,0,0,.731-7.563q0-.944-.036-2.126t-.12-2.362q-.087-1.18-.256-2.331t-.389-2.1a15.508,15.508,0,0,0-1.266-3.36,5.888,5.888,0,0,0-.821-1.3,10.315,10.315,0,0,0-1.091-1.117,5.856,5.856,0,0,0-1.227-.762,2.4,2.4,0,0,0-1.521-.2,2.587,2.587,0,0,0-1.489,1.041,6.868,6.868,0,0,0-1.073,2.959c.4-.081.8-.171,1.2-.272a3.835,3.835,0,0,1,1.253-.094c.181.039.354.078.518.116a1.691,1.691,0,0,1,.518.234.444.444,0,0,1,.247.353.334.334,0,0,1-.243.356,2.162,2.162,0,0,1-.708.239l-.762.122L16.962,35a7.352,7.352,0,0,0-.844.182,1.646,1.646,0,0,1-.515.12.223.223,0,0,1-.158.059.222.222,0,0,0-.156.06.227.227,0,0,0-.062.177c0,.08,0,.139,0,.178a1.432,1.432,0,0,0-.061.473,11.911,11.911,0,0,0-.154,1.89,27.378,27.378,0,0,0,.966,7.437,27.66,27.66,0,0,0,1.084,3.3,12.9,12.9,0,0,0,6.581,6.938q.215-.65.4-1.36a13.2,13.2,0,0,0,.295-1.42M16.9,69.02a.123.123,0,0,1,.027-.088.135.135,0,0,0,.027-.09v-.059H16.9c-.036,0-.054.009-.053.03s-.019.029-.054.029c-.074.079-.154.158-.244.238a1.7,1.7,0,0,1-.408.238l-.217.178c-.074,0-.118.01-.137.03a.108.108,0,0,1-.082.03l-.217.178a.154.154,0,0,1-.108.059v.118h.436l.218-.12a.958.958,0,0,0,.271-.119,1.668,1.668,0,0,0,.408-.357,1.771,1.771,0,0,0,.188-.3m9.7-22.962q.043-2.658-.1-4.281a15.486,15.486,0,0,0-.366-2.45,3.9,3.9,0,0,0-.221-.707c-.074-.157-.129-.274-.165-.354l-.219-.235a.175.175,0,0,0,.055.118c0,.039.008.059.027.059s.027.04.028.118a.121.121,0,0,0,.027.088.128.128,0,0,1,.028.089.121.121,0,0,0,.027.088.129.129,0,0,1,.028.088.251.251,0,0,0,.055.177v.119a1.09,1.09,0,0,1,.057.412,21.076,21.076,0,0,1,.284,2.42q.116,1.6.074,4.253.005,1.3-.016,2.333t-.074,1.8c-.033.552-.05,1-.048,1.359s0,.669,0,.945a2.742,2.742,0,0,0-.025.649c.019.158.028.276.029.354v.178c.036,0,.063-.059.081-.178s.061-.452.131-1l.152-2.245q.157-1.6.144-4.194m1.041,1.117q.049-1.24.018-1.979t-.087-1.211c-.038-.471-.1-.708-.167-.707a.258.258,0,0,0-.053.177,1.078,1.078,0,0,1-.026.236,1.274,1.274,0,0,0-.026.295q0,.474-.022,1.211t-.073,1.98l.014,2.953a2.056,2.056,0,0,0,.029.443c.018.059.046.088.082.088s.055-.019.055-.059a2.115,2.115,0,0,1,.052-.473q.052-.354.1-1.063t.1-1.891m-.3-5.2a.177.177,0,0,1-.054.118.662.662,0,0,0-.053.355c0,.2.019.3.056.324a.214.214,0,0,0,.109.03l.054-.06a.5.5,0,0,0,.054-.295.667.667,0,0,0-.056-.354c-.036-.039-.074-.078-.109-.117" transform="translate(-1.345 -23.251)" fill="#6e5252"/>
    <path id="Path_29557" data-name="Path 29557" d="M183.886,147.272c.037.434-.142.631-.543.593a3.939,3.939,0,0,1-1.364-.437,10.347,10.347,0,0,1-1.421-.849q-.656-.469-.657-.588l-.007-1.712a11,11,0,0,0-.229-2.3,2.869,2.869,0,0,0-.193-.531c-.092-.2-.211-.274-.355-.235q-.274.061-.623.83t-.754,1.8q-.4,1.036-.753,2.1t-.51,1.655a10.494,10.494,0,0,0-.292,1.774c-.051.63-.085,1.231-.1,1.8s-.014,1.073.007,1.506.03.708.03.826a4.718,4.718,0,0,0,.033,1.122q.084.591-.677.83a2.283,2.283,0,0,1-1.662-.022,1.806,1.806,0,0,1-1.013-1.146,4.37,4.37,0,0,1-.086-.827q-.03-.649-.061-1.536t-.01-1.948c.016-.709.02-1.418.017-2.127q.045-2.48.083-5.552.158-1.064.593-1.273t1.31.377a3.7,3.7,0,0,1,1.478,1.411,4.551,4.551,0,0,1,.065,2.185,7.278,7.278,0,0,1,.322-.888q.163-.355.324-.769c.108-.276.224-.582.35-.918s.3-.758.512-1.272a1.591,1.591,0,0,1,.677-.859,2.862,2.862,0,0,1,1.007-.271,3.529,3.529,0,0,1,1.336.142,4.218,4.218,0,0,1,1.284.643,3.76,3.76,0,0,1,.985,1.059,3.53,3.53,0,0,1,.5,1.326q.113,1,.2,2.037c.058.689.124,1.368.2,2.037M173.6,149.564c0-.039.008-.059.026-.059s.027-.039.027-.118a.256.256,0,0,0-.055-.177l-.056-.058h-.054v.059h-.054v.059h-.055v.118c0,.158.056.235.164.235Zm.258-2.835a5.263,5.263,0,0,0,.047-1.655.648.648,0,0,0-.028-.265.123.123,0,0,1-.028-.088l-.162.3c-.036.158-.071.365-.106.62s-.07.621-.1,1.094a7.99,7.99,0,0,0-.019,1.742,4.1,4.1,0,0,1,.084.443,1.357,1.357,0,0,0,.134-.443q.079-.384.182-1.743m1.185-2.959q0-.473,0-.561c0-.059-.019-.089-.055-.089a.18.18,0,0,0-.053.119c0,.04-.036.217-.107.532a10.9,10.9,0,0,0-.185,1.3q-.077.828-.18,2.364t-.124,2.451a5.761,5.761,0,0,0,.088,1.388.99.99,0,0,0,.111.59v.118h.054v-.118a3.191,3.191,0,0,1,.053-.591c0-.315.014-.777.048-1.389s.083-1.426.151-2.451.119-1.811.152-2.363.05-.984.048-1.3" transform="translate(-141.91 -115.094)" fill="#6e5252"/>
    <path id="Path_29558" data-name="Path 29558" d="M262.481,164.274a3.354,3.354,0,0,1,2.248,3,4.2,4.2,0,0,0-.818-.056,2.478,2.478,0,0,0-.194-.59.852.852,0,0,0-.356-.411q-.711-.411-1.448-.761a5.331,5.331,0,0,0-1.5-.466,22.694,22.694,0,0,0-8.61-.313h-.109l-.315,2.659a13.739,13.739,0,0,1-.345,1.743,10.343,10.343,0,0,1-.645,1.775,7.894,7.894,0,0,1-.92,1.51,3.656,3.656,0,0,1-1.221,1.009,2.83,2.83,0,0,1-1.226.242,3.191,3.191,0,0,1-1.445-.348,4.146,4.146,0,0,1-1.312-1.057,3.633,3.633,0,0,1-.773-1.887,5.478,5.478,0,0,1,.02-1.624,4.257,4.257,0,0,1,.645-1.656,5.124,5.124,0,0,1,1.492-1.454,8.571,8.571,0,0,1,2.557-1.076l.781-7.681-.819.83a9.138,9.138,0,0,1-1.588,1.1,3.108,3.108,0,0,1-1.864.334q-2.637-.283-2.874-3.826a19.625,19.625,0,0,1,2.468-11.351,4.119,4.119,0,0,1,2.293-2.077,3,3,0,0,1,3.568,1.046,8.223,8.223,0,0,1,1.551,4.363.931.931,0,0,1-.107.444,1.818,1.818,0,0,0-.161.443.329.329,0,0,1-.164-.029.376.376,0,0,0-.163-.028q-.113-.707-.172-1.417a5.6,5.6,0,0,0-.282-1.356,3.947,3.947,0,0,0-.473-1.062q-.305-.47-.581-1a10.157,10.157,0,0,1-.823.683,2.609,2.609,0,0,0-.712.8,13.782,13.782,0,0,0-1.743,4.054,25.21,25.21,0,0,0-.695,4.4,12.179,12.179,0,0,0-.1,1.6q0,.769.062,1.594.174,1.832,1.54.7a6.178,6.178,0,0,0,2.181-3.672q.16-.65.322-1.242t.38-1.183a.909.909,0,0,1,.573-.564.805.805,0,0,1,.744.262,4.036,4.036,0,0,1,.966,1.206,2.994,2.994,0,0,1,.2,1.624,3.445,3.445,0,0,1-.105.709,2.781,2.781,0,0,0,.2,1.3.478.478,0,0,0,.464.264,1.1,1.1,0,0,0,.544-.238,3.136,3.136,0,0,0,.38-.328,12.564,12.564,0,0,0,2.355-3.288q.891-1.805,1.644-3.7c.251-.592.5-.818.732-.682s.32.559.252,1.268a21.434,21.434,0,0,1-1.429,3.255,31.631,31.631,0,0,1-1.92,3.08,4.692,4.692,0,0,1-2.116,1.841,1.273,1.273,0,0,1-1.309-.348q.008,1.713-.093,3.455t-.256,3.456l1.851-.245a26.2,26.2,0,0,1,4.468-.109,12.619,12.619,0,0,1,4.31,1.073m-18.962-11.369a.255.255,0,0,0-.028-.148.126.126,0,0,1-.028-.088l-.055-.059H243.3v.118h-.055v.177a.284.284,0,0,0,.056.295l.054.059c.109,0,.163-.119.162-.355m.1-1.3a4.629,4.629,0,0,0,.186-.916q.078-.621.292-1.625t.347-1.567c.088-.374.151-.66.187-.858a1.033,1.033,0,0,1,.026-.236.885.885,0,0,0,.027-.177v-.059a.212.212,0,0,0-.109.031.813.813,0,0,0-.162.325q-.108.3-.3.858a14.7,14.7,0,0,0-.4,1.567,13.56,13.56,0,0,0-.265,1.655c-.033.434-.051.768-.05,1l0,.649h.055a5.1,5.1,0,0,0,.161-.65m.935,2q.051-.65.129-1.507a18.242,18.242,0,0,1,.291-1.922q.211-1.064.4-1.862t.348-1.449q.376-1,.646-1.656l.27-.591a.186.186,0,0,0,.054-.12h-.055c0,.04-.019.059-.054.059q-.055.059-.433.534c-.108.2-.226.424-.351.68a10.221,10.221,0,0,0-.4.977,25.779,25.779,0,0,0-.8,3.311,15.643,15.643,0,0,0-.262,1.98q-.052.858-.1,1.566,0,.651.033,1.152t.085.855a2.972,2.972,0,0,0,.276.945c0,.04.037.1.11.176a2,2,0,0,0-.056-.295,6.891,6.891,0,0,1-.113-.827c0-.236-.012-.521-.031-.856a8.419,8.419,0,0,1,.022-1.152m2.856,16.168a37.841,37.841,0,0,0,.58-3.9,12.255,12.255,0,0,0-2.609,1.488,2.206,2.206,0,0,0-1.027,1.894,4.719,4.719,0,0,0,.336,1.8,2.077,2.077,0,0,0,.8,1.06q.464.263.98-.242a4.9,4.9,0,0,0,.944-2.1" transform="translate(-198.744 -116.429)" fill="#6e5252"/>
    <path id="Path_29559" data-name="Path 29559" d="M339.938,148.217a1.36,1.36,0,0,1,.352-.622.274.274,0,0,1,.354-.031.766.766,0,0,1,.247.441,2,2,0,0,1-.023.856q-.214.887-.617,2.07t-.942,2.4q-.539,1.214-1.106,2.339a12,12,0,0,1-1.108,1.836,5.212,5.212,0,0,1-1.193,1.246,3.29,3.29,0,0,1-1.142.536,2.869,2.869,0,0,1-2.507-.283,2.376,2.376,0,0,1-1.153-1.707c-.036,0-.054-.019-.054-.059q-.058-.354-.113-.856a4.784,4.784,0,0,0-.168-.856q-.326.3-.814.831l-.7.77a9.156,9.156,0,0,1-1.576,1.1,3.066,3.066,0,0,1-1.851.334q-2.669-.283-2.851-3.826a19.7,19.7,0,0,1,2.453-11.351,4.1,4.1,0,0,1,2.279-2.077,3.934,3.934,0,0,1,1.988-.187,2.68,2.68,0,0,1,1.613,1.115,5.5,5.5,0,0,1,1.072,2.121,15.448,15.448,0,0,1,.421,2.361q0,.236-.326.267c-.218.022-.345-.027-.382-.146q-.057-.532-.114-1.062a4.463,4.463,0,0,0-.222-1,7.42,7.42,0,0,0-.58-1.415,2.3,2.3,0,0,0-.466-.647q-.436-.117-.842.446a11.63,11.63,0,0,0-.677,1.037,13.813,13.813,0,0,0-1.725,4.053,29.542,29.542,0,0,0-.742,4.4,23.061,23.061,0,0,0,.015,3.19q.172,1.83,1.529.7a13.23,13.23,0,0,0,1.655-1.631,4.839,4.839,0,0,0,1.053-2.043,12.432,12.432,0,0,1,.267-1.241,7.763,7.763,0,0,1,.431-1.183q.486-1.006,1.307-.3a5.026,5.026,0,0,1,.932,1.207,2.819,2.819,0,0,1,.225,1.623q-.158,1.183-.369,2.453a4.949,4.949,0,0,0,.065,2.214.531.531,0,0,0,.41.412,1.046,1.046,0,0,0,.6-.062,2.5,2.5,0,0,0,.544-.3,2.46,2.46,0,0,0,.353-.3,8.476,8.476,0,0,0,1.353-1.9,23.887,23.887,0,0,0,1.187-2.516q.538-1.33.968-2.6t.7-2.159m-14.877.07q.321-1.418.723-2.72a5.646,5.646,0,0,1,1.487-2.37,4.229,4.229,0,0,0-1.706,2.223,8.46,8.46,0,0,0-.5,2.867m.784,4.486c0-.473,0-.856.022-1.153a3.174,3.174,0,0,0-.03-.738,1.318,1.318,0,0,0-.028-.325.465.465,0,0,1-.028-.148l-.271.415a4.49,4.49,0,0,0-.187.739,6.965,6.965,0,0,0-.076,1.211,4.437,4.437,0,0,0,.033,1.151,2.879,2.879,0,0,0,.194.619l.054.059v.059c.036,0,.054.019.054.058s.018.059.055.059h.054c.073,0,.109-.1.108-.3a2.186,2.186,0,0,0,.024-.62,7.863,7.863,0,0,1,.022-1.092m.147-3.427a.261.261,0,0,0-.055-.177,7.785,7.785,0,0,1,.585-2.955,10.988,10.988,0,0,1,1.513-2.665,2.586,2.586,0,0,1,.434-.474,3.545,3.545,0,0,0,.379-.357l.543-.416h-.163a1.836,1.836,0,0,0-.544.238l-.922.831a6.244,6.244,0,0,0-1.082,1.511,7.713,7.713,0,0,0-.7,1.805q-.107.473-.266,1.27a1.6,1.6,0,0,0,.114,1.211h.055l.054.118v.059Zm.112.649a.207.207,0,0,0-.082-.177.157.157,0,0,1-.082-.117h-.109c-.036,0-.054.02-.054.059h-.054v.059h-.055v.059q-.053.3.165.294H326v-.059h.055v-.059Zm1.167-6.8c.035,0,.054-.019.054-.059Zm2.121-.9c.036,0,.054-.019.054-.059Z" transform="translate(-265.431 -115.955)" fill="#6e5252"/>
    <path id="Path_29560" data-name="Path 29560" d="M433.094,150.554l-.323.888q-.535,2.187-1.179,4.317a19.135,19.135,0,0,1-1.778,4.083,9.122,9.122,0,0,1-2.168,2.609,1.767,1.767,0,0,1-1.6.6,2.751,2.751,0,0,1-1.5-1.056,8.192,8.192,0,0,1-1.458-2.946q-.415-1.593-.7-3.3a26.3,26.3,0,0,1-.3-6.524,63.727,63.727,0,0,1,.842-6.413,8.663,8.663,0,0,0,.131-1.153q.025-.56.022-1.151a1.1,1.1,0,0,0-.44-.884c-.074-.039-.191-.008-.354.09a1.025,1.025,0,0,0-.353.327q-.7,1.066-1.408,2.132a21.932,21.932,0,0,0-1.3,2.251,23.915,23.915,0,0,0-1.294,3.018q-.538,1.539-1.13,3.077a2.005,2.005,0,0,0-.078.739c.019.256.03.521.031.8a4.683,4.683,0,0,0,.033,1.122q.084.591-.677.83a2.282,2.282,0,0,1-1.662-.022,1.8,1.8,0,0,1-1.013-1.146,4.367,4.367,0,0,1-.086-.827q-.03-.65-.061-1.536t-.01-1.948c.016-.709.02-1.418.017-2.127q.045-2.48.083-5.552.208-2.008,1.9-.9a3.691,3.691,0,0,1,1.477,1.411,4.541,4.541,0,0,1,.065,2.186q-.106,1-.182,1.95t-.181,1.949l.165.354,1.078-2.722a22.6,22.6,0,0,1,1.484-3.019,20.607,20.607,0,0,1,1.922-2.725,2.176,2.176,0,0,1,2.012-.837,3.365,3.365,0,0,1,1.309.408,4.116,4.116,0,0,1,1.149.909,4.926,4.926,0,0,1,.8,1.237,2.876,2.876,0,0,1,.251,1.388q-.1,2.422-.3,4.755t-.414,4.7q-.156,1.714-.2,3.4a13.535,13.535,0,0,0,.343,3.395l.167.767q.331.883.9,1.029t1.168-.566a10.589,10.589,0,0,0,.813-1.156,9.523,9.523,0,0,0,.648-1.273q1.075-2.957,1.961-5.945a40.28,40.28,0,0,0,1.306-6.179ZM414.336,148.1c.073-.08.108-.138.108-.178,0-.157-.056-.236-.165-.235h-.055v.059h-.054v.118c-.036,0-.054.02-.053.059,0,.158.055.236.164.236Zm.8-2.957c.033-.433.05-.787.049-1.064s0-.472,0-.591a.553.553,0,0,1-.056-.236.05.05,0,0,0-.055-.058c-.073,0-.108.08-.108.237a10.89,10.89,0,0,0-.265,1.714,8.02,8.02,0,0,0-.019,1.742,4.081,4.081,0,0,1,.084.443,1.613,1.613,0,0,0,.161-.444,11.771,11.771,0,0,0,.21-1.743m1.128-3.49v-.118h-.054a.181.181,0,0,0-.054.118c0,.04-.036.217-.106.533a10.537,10.537,0,0,0-.184,1.3q-.078.828-.18,2.363t-.1,2.451a13.056,13.056,0,0,0,.061,1.387.988.988,0,0,0,.112.591l.054.117.054-.118,0-.591c0-.315.014-.777.048-1.388s.083-1.427.152-2.451.118-1.812.152-2.364.049-.984.047-1.3Zm7.452,8.706c0-.079-.009-.118-.027-.117s-.027-.019-.028-.059c-.036,0-.054-.019-.054-.059H423.5v.059h-.054v.177c-.036.2,0,.3.11.295l.055-.059a.352.352,0,0,0,.107-.237m.312-3.309q.156-1.652.154-2.067a.728.728,0,0,0-.028-.207.5.5,0,0,1-.028-.147v-.059c-.036,0-.054.02-.054.059a.177.177,0,0,0-.053.119.5.5,0,0,1-.054.178,3.323,3.323,0,0,0-.16.769c-.035.316-.088.767-.158,1.359a19.188,19.188,0,0,0-.125,2.216c.019.334.047.5.084.5s.089-.168.161-.5.158-1.073.261-2.217m1.4-3.609a1.994,1.994,0,0,1,.025-.413,1.075,1.075,0,0,0,.026-.236l0-.178h-.054l-.053.119a2.288,2.288,0,0,0-.161.651q-.107.532-.293,1.6t-.34,2.954q-.21,1.892-.231,3.013a17.125,17.125,0,0,0,.036,1.771,2.059,2.059,0,0,0,.167.767l.055.059.054-.06v-.059a2,2,0,0,0-.029-.236,1.482,1.482,0,0,1,.025-.473q0-.648.046-1.742t.258-2.984Z" transform="translate(-339.711 -113.834)" fill="#6e5252"/>
    <path id="Path_29561" data-name="Path 29561" d="M525.36,115.276a1.6,1.6,0,0,1-.16.827,6.265,6.265,0,0,0-.487.8q-.379.681-.838,1.51t-.918,1.688q-.46.859-.675,1.332a11.341,11.341,0,0,1-1.244,1.836q-.813,1.009-1.355,1.72a2.569,2.569,0,0,1-.624.564,3.641,3.641,0,0,1-1.06.507,2.167,2.167,0,0,1-1.226.005,2.074,2.074,0,0,1-1.121-.88,5.692,5.692,0,0,1-1.044-1.708,6.263,6.263,0,0,1-.359-.973q-.138-.5-.25-.973a7.264,7.264,0,0,1-.14-1.062q-.03-.531-.087-1.063a19.648,19.648,0,0,1,.252-4.342q.371-2.216.96-4.464a1.588,1.588,0,0,1,.867-1.126,1.656,1.656,0,0,1,1.2.112,2.89,2.89,0,0,1,1.066.733,1.25,1.25,0,0,1,.414.973L518,115.132q-.159.947-.264,1.891t-.209,1.832q-.051.887-.02,1.713a12.745,12.745,0,0,0,.144,1.535q.172,1.77.717,1.857a1.328,1.328,0,0,0,1.142-.567A9.605,9.605,0,0,0,520.7,121.7q.593-1.034.919-1.569l1.621-2.842a8.2,8.2,0,0,1,.513-.977,4.112,4.112,0,0,1,.352-.5q.539-.889,1.03-.832a.276.276,0,0,1,.22.295m-9.948,5.3a.5.5,0,0,0,.053-.3.25.25,0,0,0-.028-.146.121.121,0,0,1-.027-.089l-.055-.059c-.108,0-.163.1-.162.3a.5.5,0,0,0,.056.3.152.152,0,0,0,.109.058Zm.623-6.677a1.075,1.075,0,0,0-.057-.472c-.037,0-.055.021-.054.059l-.107.414c-.036.2-.08.484-.132.857s-.114.9-.184,1.566a11.3,11.3,0,0,0-.074,1.655,9.719,9.719,0,0,0,.086,1q0,.591.112.59c.036,0,.055-.039.054-.118a2.083,2.083,0,0,1,.052-.473c.035-.237.07-.551.1-.945s.05-.945.047-1.653a12.242,12.242,0,0,1,.074-1.6,7.224,7.224,0,0,0,.077-.886m1.186-2.663h-.054l-.054.119c-.036.08-.072.168-.107.266s-.091.247-.162.444a18.129,18.129,0,0,0-.319,1.832,18.9,18.9,0,0,0-.311,3.427,33,33,0,0,0-.011,3.514,8.279,8.279,0,0,0,.31,1.977l.22.471.164.177c0-.039.018-.059.054-.059v-.059l-.056-.118-.166-.472a16.933,16.933,0,0,1-.172-1.947q-.061-1.3.039-3.427.049-1.121.1-1.949a14.608,14.608,0,0,1,.157-1.477l.209-1.832.16-.709Zm-.4-3.247a1.054,1.054,0,0,1-.329-.5,3.866,3.866,0,0,1-.167-.708,5.549,5.549,0,0,1-.058-.767c0-.256,0-.444,0-.562a4.03,4.03,0,0,1,.778-2.454,1.947,1.947,0,0,1,2.095-.63,1.3,1.3,0,0,1,.82.5,1.893,1.893,0,0,1,.331.914,4.2,4.2,0,0,1-.022,1.064,6.4,6.4,0,0,1-.187.887,3.823,3.823,0,0,1-1.136,1.659c-.074.04-.19.11-.354.208a3.171,3.171,0,0,1-.571.269,3.863,3.863,0,0,1-.653.18.811.811,0,0,1-.545-.057m.1-2.776a.443.443,0,0,0,.028.177.271.271,0,0,1,.028.117.208.208,0,0,0,.163.058l.108-.059c.073,0,.109-.06.108-.178.035-.2-.02-.295-.165-.294h-.163v.059h-.054v.059c0,.039-.019.059-.055.059m.108-.414q0,.177.218.176h.218l-.11-.117-.054-.059a.4.4,0,0,1-.137-.029.118.118,0,0,0-.135.03m.377-.946a1.1,1.1,0,0,0-.189.384,1.387,1.387,0,0,0-.026.266c0,.08.009.118.028.118s.027.021.027.059.018.059.055.058h.164c0-.039.018-.059.054-.059a1.755,1.755,0,0,0,.38-.474,1.7,1.7,0,0,0,.215-.533v-.236h-.054v-.059h-.163q-.274,0-.489.475" transform="translate(-422.304 -84.093)" fill="#6e5252"/>
    <path id="Path_29562" data-name="Path 29562" d="M579.289,142.817q.325-.356.462-.268a.531.531,0,0,1,.192.354,3.027,3.027,0,0,1,.058.591.751.751,0,0,1-.053.384,16.447,16.447,0,0,1-1.646,3.256,21.026,21.026,0,0,1-1.95,2.519,15.841,15.841,0,0,1-2.009,1.87q-1,.772-1.818,1.366a6.515,6.515,0,0,1-3.182,1.255,7.145,7.145,0,0,1-2.971-.222,2.459,2.459,0,0,1-1.2-1.264,7.041,7.041,0,0,1-.694-2.684,14.62,14.62,0,0,1,.255-3.84,17.471,17.471,0,0,1,1.694-4.733,10.6,10.6,0,0,1,5.317-4.986,4.6,4.6,0,0,1,1.932-.394,2.718,2.718,0,0,1,1.611.524,2.546,2.546,0,0,1,.9,1.354,3.091,3.091,0,0,1-.181,1.98,4.382,4.382,0,0,1-.3.533,1.132,1.132,0,0,1-.352.385c-.109.06-.191.041-.246-.058a1.667,1.667,0,0,1,.023-.8,2.327,2.327,0,0,0-.169-1.092,1.677,1.677,0,0,0-.712-.853,1.772,1.772,0,0,0-1.173-.2,3.485,3.485,0,0,0-1.549.746,6,6,0,0,0-1.922,2.7,16.437,16.437,0,0,0-.937,3.549,22.242,22.242,0,0,0-.256,3.338,7.605,7.605,0,0,0,.172,2.007,3.134,3.134,0,0,0,.523,1.061,1.978,1.978,0,0,0,.9.675,2.593,2.593,0,0,0,1.254.112,3.747,3.747,0,0,0,1.578-.686,20.318,20.318,0,0,0,1.629-1.248,14.594,14.594,0,0,0,1.816-1.84,18.428,18.428,0,0,0,1.706-2.43,13.223,13.223,0,0,0,1.294-2.958M566.953,149.9q-.116-1.179-.171-1.535a1.071,1.071,0,0,1-.111-.3v-.118c-.036,0-.072.119-.108.355,0,.119-.007.306-.024.562a4.6,4.6,0,0,0,.087,1.033q.111.651.195,1.033a2.894,2.894,0,0,0,.14.5c0,.039.018.059.054.059v.059l.056.059c0,.039.018.059.054.059a.505.505,0,0,0,.053-.3,3.476,3.476,0,0,0-.057-.5q-.056-.323-.168-.974m.032-4.725a.5.5,0,0,0-.055-.177,2.155,2.155,0,0,1-.058-.649c0-.157,0-.325,0-.5a2.763,2.763,0,0,1,.106-.68c.108-.237.224-.5.351-.8a10.336,10.336,0,0,1,.567-1.1,4.835,4.835,0,0,1,.513-1.036q.3-.443.514-.741l.813-.949a4.416,4.416,0,0,1,.651-.652l-.054-.059c0,.04-.064.08-.191.119a1.644,1.644,0,0,0-.516.357c-.146.119-.29.248-.435.386a4.879,4.879,0,0,0-.487.563q-.6.772-1.3,1.837a6.8,6.8,0,0,0-.458,1.125c-.089.316-.187.631-.295.946a2.119,2.119,0,0,0-.078.709q.029.3.03.59a1.486,1.486,0,0,0,.138.384c.055.1.1.187.137.265h.055l-.055.059Zm.359,6.791a.339.339,0,0,0-.109-.176l-.056-.059h-.108c-.037,0-.036.02,0,.059-.037,0-.055.02-.055.059l.056.059c-.073.079-.055.118.054.117l.055.059v.059h.109v-.059h.054l-.055-.059c0-.039.018-.059.054-.059m.595-.889h-.054l-.054.06a1.021,1.021,0,0,1,.053-.237l-.276-.825a2.086,2.086,0,0,0-.114-.944l-.109-.235-.056-.059,0,.3c0,.039,0,.138,0,.295a6.6,6.6,0,0,0,.058.709c.073.235.138.423.193.56s.1.246.138.325v.059l.055.059c-.036.039-.036.059,0,.059h-.054v.059c0,.079.036.117.11.117h.109v-.059c-.036-.039-.037-.059,0-.059Z" transform="translate(-463.973 -111.81)" fill="#6e5252"/>
    <path id="Path_29563" data-name="Path 29563" d="M290.566,49.142s5.774,4.872,5.905,14.768" transform="translate(-238.849 -40.395)" fill="#6e5252" stroke="#666566" stroke-width="1"/>
    <path id="Path_29564" data-name="Path 29564" d="M322.309,65.518a23.95,23.95,0,0,0-3.19,6.393" transform="translate(-262.32 -53.857)" fill="#6e5252" stroke="#666566" stroke-width="1"/>
    <path id="Path_29565" data-name="Path 29565" d="M342.28,8.229c-2.606,3.629-5.388,6.829-8.283,8.053a18.9,18.9,0,0,1,2.391-6.621C341.226,1.1,345.029,4.4,342.28,8.229Z" transform="translate(-274.55 -3.513)" fill="#6e5252" stroke="#666566" stroke-width="1"/>
    <path id="Path_29566" data-name="Path 29566" d="M278.189,33.7a1.648,1.648,0,1,1-1.647-1.648A1.648,1.648,0,0,1,278.189,33.7Z" transform="translate(-225.966 -26.344)" fill="#6e5252" stroke="#666566" stroke-width="1"/>
    <path id="Path_29567" data-name="Path 29567" d="M308.1,8.054a1.648,1.648,0,1,1-1.648-1.647A1.648,1.648,0,0,1,308.1,8.054Z" transform="translate(-250.556 -5.267)" fill="#6e5252" stroke="#666566" stroke-width="1"/>
    <path id="Path_29568" data-name="Path 29568" d="M314.07,24.92a40.776,40.776,0,0,1,.126,10.649" transform="translate(-258.17 -20.485)" fill="#6e5252" stroke="#666566" stroke-width="1"/>
    <path id="Path_29569" data-name="Path 29569" d="M356.565,81.686a12.1,12.1,0,0,0,1.522.145l.846.051.846.022c1.453.056,3.144.042,4.772.054l2.572.051c1.365.006,2.84.075,4.13.064,1.155-.01,2.309.02,3.453.029l1.76.045c.534,0,1.07-.013,1.591,0l1.523.027c.53.014,1.069.033,1.59.028l1.558-.015,3.859.033,1.93-.013,3.181.027,1.015.037c.339,0,.682-.025,1.016-.035,2.12-.062,4.345-.137,6.432.01l.981.081c.309.017.634,0,.948.008.239.008.473.047.71.05a3.323,3.323,0,0,1,.981.023c.246.091.19.2.1.321.087.057.166.226.1.265.063.163.169.358-.342.377-.133,0-.3-.038-.44-.048-.884-.059-1.788-.019-2.606-.1a1.359,1.359,0,0,0-.169-.03c-.694-.071-1.521-.086-2.268-.093-.514,0-1.014-.034-1.489-.027l-3.318.089c-1.014.02-2.056-.033-3.181-.042l-2.878-.01c-2.156.02-4.386-.042-6.432-.01-.8.012-1.609-.042-2.4-.049-1.879-.019-3.863-.024-5.924-.079-.872-.024-1.692.012-2.5-.006l-5.111-.117c-1.882-.058-3.731-.013-5.348-.074l-2.707-.125a3.362,3.362,0,0,1-.744-.051c-.122-.065.042-.105.1-.2s0-.177.1-.233c.019-.033-.132.016-.033-.015.068-.077,0-.129.036-.19.013-.025.094-.054.1-.072.021-.051-.047-.056,0-.1-.057-.022.148-.051.137-.1" transform="translate(-292.697 -67.147)" fill="#6e5252" fill-rule="evenodd"/>
    <path id="Path_29570" data-name="Path 29570" d="M174.017,81.619a2.42,2.42,0,0,0,.66.135l.367.046.367.017c.63.048,1.363.025,2.07.028.368,0,.745.038,1.116.037.592,0,1.231.059,1.791.04.5-.016,1,.007,1.5.01.255,0,.507.036.764.034.232,0,.464-.019.69-.01l.661.019c.23.011.463.027.69.019l.675-.025,1.673.011c.279,0,.558-.022.838-.024l1.38.009c.143,0,.3.031.44.031s.3-.029.441-.04a12.425,12.425,0,0,1,2.79-.026c.139.02.28.059.425.075s.276-.006.412,0c.1.007.205.044.308.046.163,0,.312-.079.426.017s.081.2.042.322a.384.384,0,0,1,.042.264c.027.163.072.357-.149.378a.949.949,0,0,1-.19-.044c-.383-.054-.776-.009-1.131-.08a.286.286,0,0,0-.073-.03,4.9,4.9,0,0,0-.984-.079c-.223,0-.44-.029-.646-.019-.5.024-.972.079-1.44.107-.441.027-.891-.021-1.38-.023-.407,0-.81-.009-1.248.007-.936.031-1.9-.017-2.79.025-.349.017-.7-.032-1.042-.036-.816-.008-1.676,0-2.569-.046-.379-.018-.734.022-1.087.008l-2.217-.088c-.816-.047-1.618.008-2.319-.044l-1.175-.11c-.11-.011-.276.012-.322-.046s.018-.106.045-.2,0-.177.045-.233c.008-.033-.057.017-.015-.015.031-.078,0-.129.016-.19.005-.025.041-.055.045-.073.009-.051-.02-.056,0-.1-.025-.021.064-.053.059-.1" transform="translate(-142.867 -67.092)" fill="#6e5252" fill-rule="evenodd"/>
    <path id="Path_29571" data-name="Path 29571" d="M331.815,304.384a15.488,15.488,0,0,0,1.725.145l.959.052.959.022c1.647.057,3.563.045,5.41.059l2.915.053c1.547.007,3.22.078,4.681.068,1.309-.009,2.617.022,3.913.032l2,.045h1.8l1.726.029c.6.015,1.212.034,1.8.03l1.766-.015,4.374.036,2.187-.012,3.606.03,1.151.038c.384,0,.772-.025,1.152-.034,2.4-.061,4.925-.133,7.29.016l1.113.083c.351.016.719,0,1.074.008.27.009.537.048.805.05a4.269,4.269,0,0,1,1.113.024c.279.092.215.2.112.322.1.056.189.226.113.264.071.163.192.359-.386.376-.151,0-.337-.038-.5-.048-1-.06-2.028-.02-2.954-.1a1.882,1.882,0,0,0-.192-.031c-.786-.072-1.723-.087-2.57-.094-.583-.005-1.149-.035-1.689-.028l-3.761.086c-1.151.019-2.33-.036-3.606-.045l-3.262-.012c-2.445.018-4.972-.045-7.291-.016-.911.011-1.823-.043-2.724-.051-2.13-.021-4.379-.027-6.714-.085-.989-.024-1.918.011-2.84-.008l-5.793-.12c-2.133-.059-4.229-.016-6.062-.079l-3.068-.127a4.287,4.287,0,0,1-.844-.051c-.138-.066.047-.107.117-.2s0-.177.117-.233c.021-.033-.15.016-.039-.015.078-.077.005-.129.04-.189.014-.025.107-.054.116-.072.023-.051-.054-.057,0-.1-.064-.021.167-.051.155-.1" transform="translate(-272.299 -250.208)" fill="#6e5252" fill-rule="evenodd"/>
    <path id="Path_29572" data-name="Path 29572" d="M.409,305.194a8.424,8.424,0,0,0,1.263.141l.7.049.7.019c1.206.053,2.609.036,3.961.044l2.135.045c1.133,0,2.356.069,3.427.055.957-.012,1.915.015,2.865.022l1.46.04c.444,0,.888-.015,1.32,0l1.264.024c.441.013.887.03,1.321.025l1.293-.02,3.2.024,1.6-.017,2.64.019.843.036c.281,0,.565-.027.843-.037a45.328,45.328,0,0,1,5.337,0l.814.079c.257.016.527,0,.787.006.2.008.393.047.59.048a2.282,2.282,0,0,1,.814.021c.2.091.157.2.082.323.072.055.137.225.082.263.052.163.14.359-.284.377a3.506,3.506,0,0,1-.365-.046c-.733-.058-1.484-.015-2.162-.089a.949.949,0,0,0-.14-.03,17.725,17.725,0,0,0-1.881-.087c-.427,0-.842-.033-1.236-.024l-2.754.1c-.842.023-1.706-.029-2.64-.035l-2.388,0c-1.789.024-3.639-.032-5.337,0-.667.014-1.335-.038-1.994-.044-1.56-.015-3.206-.015-4.916-.066-.724-.022-1.4.016-2.079,0l-4.241-.106c-1.562-.054-3.1,0-4.438-.062L.654,306.16a2.3,2.3,0,0,1-.617-.048c-.1-.066.035-.106.086-.2s0-.176.086-.233c.016-.033-.109.018-.027-.014.056-.077,0-.129.029-.19.011-.025.079-.054.085-.072.017-.051-.039-.056,0-.1-.048-.021.122-.052.113-.1" transform="translate(0 -250.874)" fill="#6e5252" fill-rule="evenodd"/>
  </g>
</svg>
