<svg id="Component_16_2" data-name="Component 16 – 2" xmlns="http://www.w3.org/2000/svg" xmlns:xlink="http://www.w3.org/1999/xlink" width="39.37" height="18.586" viewBox="0 0 39.37 18.586">
  <defs>
    <clipPath id="clip-path">
      <rect id="Rectangle_40" data-name="Rectangle 40" width="39.37" height="18.586" fill="none"/>
    </clipPath>
  </defs>
  <g id="Group_18" data-name="Group 18" clip-path="url(#clip-path)">
    <path id="Path_23" data-name="Path 23" d="M10.878,9.728A3.316,3.316,0,0,1,11.319,5.2c.148-.14.3-.276.45-.414a.157.157,0,0,0-.015-.028c-.063-.074-.127-.149-.191-.222A3.359,3.359,0,0,0,9.656,3.386a3.689,3.689,0,0,0-1.775.106c-.392.116-.78.247-1.172.362a1.589,1.589,0,0,1-.85.042c-.2-.051-.4-.095-.6-.153A8.071,8.071,0,0,0,3.8,3.41a2.933,2.933,0,0,0-2.549.938A4.553,4.553,0,0,0,.083,6.868a7.579,7.579,0,0,0,.209,3.194,10.613,10.613,0,0,0,1.563,3.265,3.963,3.963,0,0,0,1.011,1.038,1.643,1.643,0,0,0,1.334.308,8.046,8.046,0,0,0,.912-.3,3.283,3.283,0,0,1,1.218-.263,3.7,3.7,0,0,1,1,.191c.318.1.634.2.953.3A1.8,1.8,0,0,0,10,14.216a3.832,3.832,0,0,0,.424-.391,8.705,8.705,0,0,0,1.593-2.584c.067-.162.122-.33.185-.5-.069-.026-.126-.046-.182-.069a2.687,2.687,0,0,1-1.143-.946M6.932,3.4a2.659,2.659,0,0,0,.935-.677,3.511,3.511,0,0,0,1-2.236A4.281,4.281,0,0,0,8.844,0,3.393,3.393,0,0,0,5.937,3.57c.005,0,.011.009.016.008A3.274,3.274,0,0,0,6.932,3.4M22.46,3.086a5.084,5.084,0,0,0-3.471-1.028,18.519,18.519,0,0,0-3.067.239v12.23h1.6V9.568a5.5,5.5,0,0,0,1.285.11A5.128,5.128,0,0,0,22.588,8.32a3.644,3.644,0,0,0,.955-2.644A3.327,3.327,0,0,0,22.46,3.086M18.842,8.393a5.355,5.355,0,0,1-1.322-.129V3.453a6.707,6.707,0,0,1,1.506-.129c1.763,0,2.92.79,2.92,2.424,0,1.708-1.175,2.644-3.1,2.644m18.82-2.755L35.9,10.854c-.22.643-.4,1.322-.569,1.855h-.037c-.147-.533-.367-1.23-.569-1.818L32.777,5.638H31.014l3.287,8.19a1.408,1.408,0,0,1,.11.422,1.159,1.159,0,0,1-.128.386,4.9,4.9,0,0,1-1.359,1.8,4.273,4.273,0,0,1-1.414.79l.4,1.359A4.379,4.379,0,0,0,33.9,17.538c1.1-.955,1.891-2.516,3.048-5.564L39.37,5.638ZM30.63,9.072c0-1.781-.661-3.636-3.379-3.636a5.517,5.517,0,0,0-2.92.79L24.7,7.291a4.429,4.429,0,0,1,2.314-.661,1.832,1.832,0,0,1,2.02,2.057V8.87c-3.434-.018-5.344,1.157-5.344,3.305a2.532,2.532,0,0,0,2.718,2.553,3.31,3.31,0,0,0,2.718-1.322h.055l.129,1.12h1.469a12.52,12.52,0,0,1-.147-2.13Zm-1.561,2.461a1.687,1.687,0,0,1-.092.514,2.211,2.211,0,0,1-2.149,1.487A1.43,1.43,0,0,1,25.3,11.992c0-1.726,2-2.038,3.765-2Z" transform="translate(0 0.001)" fill="#1a1a1a"/>
  </g>
</svg>
