<svg id="Component_15_2" data-name="Component 15 – 2" xmlns="http://www.w3.org/2000/svg" xmlns:xlink="http://www.w3.org/1999/xlink" width="60.688" height="16.172" viewBox="0 0 60.688 16.172">
  <defs>
    <clipPath id="clip-path">
      <rect id="Rectangle_39" data-name="Rectangle 39" width="60.688" height="16.172" fill="none"/>
    </clipPath>
  </defs>
  <g id="Group_16" data-name="Group 16" clip-path="url(#clip-path)">
    <path id="Path_17" data-name="Path 17" d="M7.827,4.429c-.258,1.694-1.552,1.694-2.8,1.694H4.311l.5-3.163A.393.393,0,0,1,5.2,2.627h.326c.852,0,1.656,0,2.072.486a1.573,1.573,0,0,1,.229,1.316M7.282.008H2.562a.656.656,0,0,0-.648.554L0,12.666a.393.393,0,0,0,.389.454H2.648a.656.656,0,0,0,.648-.554L3.811,9.3a.655.655,0,0,1,.647-.554H5.952c3.109,0,4.9-1.5,5.373-4.486a3.636,3.636,0,0,0-.6-3.047A4.379,4.379,0,0,0,7.282.008" transform="translate(0 -0.007)" fill="#253b80"/>
    <path id="Path_18" data-name="Path 18" d="M141.932,56.785a2.519,2.519,0,0,1-2.55,2.158,1.751,1.751,0,0,1-1.873-2.2,2.53,2.53,0,0,1,2.533-2.176,1.907,1.907,0,0,1,1.507.616,1.956,1.956,0,0,1,.382,1.6m3.151-4.4h-2.26a.394.394,0,0,0-.389.332l-.1.632-.158-.229a3.218,3.218,0,0,0-2.67-.948,5.2,5.2,0,0,0-5.047,4.546,4.267,4.267,0,0,0,.842,3.472,3.537,3.537,0,0,0,2.847,1.15,4.325,4.325,0,0,0,3.129-1.294l-.1.628a.393.393,0,0,0,.388.455H143.6a.656.656,0,0,0,.648-.554l1.222-7.737a.392.392,0,0,0-.387-.454" transform="translate(-123.691 -48.019)" fill="#253b80"/>
    <path id="Path_19" data-name="Path 19" d="M298.117,54.843h-2.272a.658.658,0,0,0-.543.288l-3.133,4.615-1.328-4.435a.658.658,0,0,0-.629-.468H287.98a.394.394,0,0,0-.373.52l2.5,7.343-2.352,3.321a.393.393,0,0,0,.321.621h2.269a.655.655,0,0,0,.539-.282l7.555-10.905a.393.393,0,0,0-.323-.618" transform="translate(-264.685 -50.476)" fill="#253b80"/>
    <path id="Path_20" data-name="Path 20" d="M430.665,4.429c-.257,1.694-1.552,1.694-2.8,1.694h-.712l.5-3.163a.392.392,0,0,1,.388-.332h.326c.852,0,1.656,0,2.072.486a1.573,1.573,0,0,1,.228,1.316M430.12.008H425.4a.656.656,0,0,0-.647.554l-1.909,12.1a.393.393,0,0,0,.388.454h2.423a.459.459,0,0,0,.453-.388l.542-3.431a.655.655,0,0,1,.647-.554h1.494c3.11,0,4.9-1.5,5.373-4.486a3.633,3.633,0,0,0-.6-3.047A4.375,4.375,0,0,0,430.12.008" transform="translate(-389.168 -0.007)" fill="#179bd7"/>
    <path id="Path_21" data-name="Path 21" d="M564.8,56.785a2.518,2.518,0,0,1-2.55,2.158,1.751,1.751,0,0,1-1.873-2.2,2.531,2.531,0,0,1,2.533-2.176,1.907,1.907,0,0,1,1.507.616,1.947,1.947,0,0,1,.382,1.6m3.151-4.4h-2.259a.391.391,0,0,0-.388.332l-.1.632-.159-.229a3.216,3.216,0,0,0-2.669-.948,5.2,5.2,0,0,0-5.046,4.546,4.269,4.269,0,0,0,.841,3.472,3.539,3.539,0,0,0,2.847,1.15,4.325,4.325,0,0,0,3.129-1.294l-.1.628a.394.394,0,0,0,.389.455h2.035a.656.656,0,0,0,.647-.554l1.222-7.737a.394.394,0,0,0-.39-.454" transform="translate(-512.885 -48.019)" fill="#179bd7"/>
    <path id="Path_22" data-name="Path 22" d="M702.505.332l-1.937,12.326a.393.393,0,0,0,.388.454H702.9a.655.655,0,0,0,.648-.554l1.911-12.1A.393.393,0,0,0,705.074,0h-2.181a.394.394,0,0,0-.388.333" transform="translate(-644.779 0.001)" fill="#179bd7"/>
  </g>
</svg>
