<svg id="Component_17_2" data-name="Component 17 – 2" xmlns="http://www.w3.org/2000/svg" xmlns:xlink="http://www.w3.org/1999/xlink" width="38.19" height="23.603" viewBox="0 0 38.19 23.603">
  <defs>
    <clipPath id="clip-path">
      <rect id="Rectangle_42" data-name="Rectangle 42" width="38.19" height="23.602" fill="none"/>
    </clipPath>
  </defs>
  <rect id="Rectangle_41" data-name="Rectangle 41" width="13.301" height="17.099" transform="translate(12.444 3.252)" fill="#ff5f00"/>
  <g id="Group_21" data-name="Group 21">
    <g id="Group_20" data-name="Group 20" clip-path="url(#clip-path)">
      <path id="Path_24" data-name="Path 24" d="M14.588,11.8a11.832,11.832,0,0,1,4.491-9.277A11.8,11.8,0,1,0,11.8,23.6a11.729,11.729,0,0,0,7.277-2.524A11.783,11.783,0,0,1,14.588,11.8" fill="#eb001b"/>
      <path id="Path_25" data-name="Path 25" d="M283.424,11.8a11.789,11.789,0,0,1-19.079,9.277,11.827,11.827,0,0,0,0-18.554A11.789,11.789,0,0,1,283.424,11.8" transform="translate(-245.234 0)" fill="#f79e1b"/>
      <path id="Path_26" data-name="Path 26" d="M44.767,146.622v-1.967a1.154,1.154,0,0,0-1.246-1.246,1.293,1.293,0,0,0-1.115.557,1.147,1.147,0,0,0-1.049-.557,1.059,1.059,0,0,0-.918.459v-.393h-.688v3.147h.688v-1.737c0-.557.3-.82.754-.82s.688.3.688.82v1.737h.688v-1.737a.725.725,0,0,1,.754-.82c.459,0,.688.3.688.82v1.737Zm10.195-3.147H53.848v-.951h-.688v.951h-.623v.623h.623v1.442c0,.721.3,1.147,1.082,1.147a1.833,1.833,0,0,0,.852-.229l-.2-.59a1.079,1.079,0,0,1-.59.164c-.328,0-.459-.2-.459-.525V144.1h1.115Zm5.835-.066a.924.924,0,0,0-.82.459v-.393h-.688v3.147h.688v-1.77c0-.524.229-.819.656-.819a1.917,1.917,0,0,1,.426.066l.2-.656a2.166,2.166,0,0,0-.459-.033m-8.818.328a2.25,2.25,0,0,0-1.278-.328c-.787,0-1.311.393-1.311,1.016,0,.525.393.82,1.082.918l.328.033c.361.066.557.164.557.328,0,.229-.262.393-.721.393a1.81,1.81,0,0,1-1.049-.328l-.328.524a2.318,2.318,0,0,0,1.344.393c.918,0,1.442-.426,1.442-1.016,0-.557-.426-.852-1.082-.951l-.328-.033c-.3-.033-.525-.1-.525-.295,0-.229.229-.361.59-.361a2.363,2.363,0,0,1,.983.262Zm18.292-.328a.924.924,0,0,0-.82.459v-.393h-.688v3.147h.688v-1.77c0-.524.229-.819.656-.819a1.917,1.917,0,0,1,.426.066l.2-.656a2.166,2.166,0,0,0-.459-.033m-8.785,1.639a1.575,1.575,0,0,0,1.672,1.639,1.631,1.631,0,0,0,1.115-.361l-.328-.557a1.325,1.325,0,0,1-.819.3.931.931,0,0,1-.951-1.016.967.967,0,0,1,.951-1.016,1.324,1.324,0,0,1,.819.3l.328-.557a1.631,1.631,0,0,0-1.115-.361,1.575,1.575,0,0,0-1.672,1.639m6.36,0v-1.573h-.688v.393a1.184,1.184,0,0,0-.983-.459,1.64,1.64,0,0,0,0,3.278,1.1,1.1,0,0,0,.983-.459v.393h.688Zm-2.524,0a.953.953,0,1,1,1.9,0,.953.953,0,1,1-1.9,0m-8.228-1.639a1.64,1.64,0,0,0,.033,3.278,2.005,2.005,0,0,0,1.278-.426l-.328-.492a1.567,1.567,0,0,1-.918.328.885.885,0,0,1-.951-.754h2.327v-.262a1.448,1.448,0,0,0-1.442-1.672m0,.59a.767.767,0,0,1,.787.754H56.241a.83.83,0,0,1,.852-.754m17.079,1.049v-2.819h-.688v1.639a1.184,1.184,0,0,0-.983-.459,1.64,1.64,0,0,0,0,3.278,1.1,1.1,0,0,0,.983-.459v.393h.688Zm-2.524,0a.953.953,0,1,1,1.9,0,.953.953,0,1,1-1.9,0m-23.012,0v-1.573h-.688v.393a1.184,1.184,0,0,0-.983-.459,1.64,1.64,0,0,0,0,3.278,1.1,1.1,0,0,0,.983-.459v.393h.688Zm-2.557,0a.953.953,0,1,1,1.9,0,.953.953,0,1,1-1.9,0" transform="translate(-36.878 -131.946)" fill="#fff"/>
    </g>
  </g>
</svg>
