<svg id="Component_14_1" data-name="Component 14 – 1" xmlns="http://www.w3.org/2000/svg" xmlns:xlink="http://www.w3.org/1999/xlink" width="40.254" height="13" viewBox="0 0 40.254 13">
  <defs>
    <clipPath id="clip-path">
      <rect id="Rectangle_38" data-name="Rectangle 38" width="40.254" height="13" fill="none"/>
    </clipPath>
  </defs>
  <g id="Group_14" data-name="Group 14" clip-path="url(#clip-path)">
    <path id="Path_16" data-name="Path 16" d="M19.931.23,17.242,12.8H13.989L16.678.23ZM33.615,8.348l1.712-4.722.985,4.722ZM37.246,12.8h3.008L37.626.23H34.851a1.48,1.48,0,0,0-1.385.922L28.585,12.8H32l.678-1.878h4.172l.394,1.878M28.754,8.7c.014-3.318-4.587-3.5-4.556-4.984.01-.451.44-.93,1.379-1.053a6.141,6.141,0,0,1,3.208.563l.57-2.667A8.77,8.77,0,0,0,26.313,0c-3.216,0-5.478,1.708-5.5,4.156-.021,1.81,1.616,2.819,2.846,3.422,1.269.616,1.694,1.012,1.688,1.562-.009.843-1.012,1.217-1.945,1.231a6.8,6.8,0,0,1-3.341-.795l-.59,2.756A9.883,9.883,0,0,0,23.091,13c3.418,0,5.654-1.688,5.664-4.3M15.283.23,10.013,12.8H6.575L3.981,2.769a1.379,1.379,0,0,0-.772-1.1A13.612,13.612,0,0,0,0,.594L.077.23H5.612a1.517,1.517,0,0,1,1.5,1.281l1.37,7.276L11.866.23Z" fill="#1a1f71"/>
  </g>
</svg>
